<svg width="390" height="220" viewBox="0 0 390 220" fill="none" xmlns="http://www.w3.org/2000/svg">
<g clip-path="url(#clip0_2_4903)">
<path d="M304.484 10.7963C301.031 13.0065 312.429 38.94 322.786 57.1552C330.687 71.0457 333.848 75.5965 351.406 101.444C356.334 108.697 360.885 116.201 365.04 123.925C376.478 145.239 384.88 168.056 390 191.71V149.95L347.344 58.2593C315.601 16.6589 306.646 9.4152 304.484 10.7963Z" fill="url(#paint0_linear_2_4903)"/>
<path d="M0 73.702C6.73766 78.1041 20.5644 85.7593 39.4062 86.7778C71.0308 88.4787 92.9378 70.1719 97.9062 65.7963C117.912 52.5929 140.604 44.033 164.328 40.7407C175.933 39.6714 187.275 36.641 197.872 31.7778C218.605 22.2404 231.185 8.02593 237.278 0H0V73.702Z" fill="url(#paint1_linear_2_4903)"/>
<path d="M0 59.2105C7.60703 65.1852 14.885 68.4322 20.9219 70.2778C65.5708 83.9259 109.109 40.9241 112.663 37.3165C112.663 37.3165 45.9062 39.8342 0 37.9459V59.2105Z" fill="url(#paint2_linear_2_4903)"/>
<path d="M299.215 0C301.438 9.15464 304.405 18.111 308.088 26.7789C318.65 51.6307 333.196 69.5567 344.703 81.2778C352.474 88.1905 359.413 95.991 365.377 104.52C385.184 132.884 389.157 162.317 390 178.261V149.926C389.476 143.227 388.243 136.604 386.321 130.167C380.195 109.672 368.436 95.7876 360.75 88.2037C373.902 99.3784 383.973 113.751 390 129.947V90.9557L319.859 0H299.215Z" fill="url(#paint3_linear_2_4903)"/>
<path d="M0 37.9459C3.40844 43.2422 7.22109 47.0759 10.9688 49.9074C46.087 76.4419 108.448 39.6244 111.312 37.8889C127.596 30.8635 145.183 27.3917 162.906 27.7037C171.265 28.378 188.862 28.6143 207.823 19.2744C217.452 14.5171 226.097 7.97753 233.303 0L0 0V37.9459Z" fill="url(#paint4_linear_2_4903)"/>
<path d="M300.517 0C302.698 7.39734 305.886 14.4577 309.991 20.9815C319.987 36.8439 333.03 45.6296 340.641 49.9074C363.958 62.3778 381.622 83.3361 390 108.47V0H300.517Z" fill="url(#paint5_linear_2_4903)"/>
<path opacity="0.84" d="M16.5648 23.6989C16.5648 23.6989 18.4945 25.0678 20.1886 23.4707C20.1886 23.4707 18.7098 25.357 20.0728 26.7524C20.0728 26.7524 18.3848 25.4344 16.7862 27.4002C16.7862 27.4002 18.6489 24.8885 16.5648 23.6989Z" fill="#F2F2F2" stroke="#F2F2F2" stroke-miterlimit="10"/>
<path opacity="0.84" d="M76.3933 12.1468C76.3933 12.1468 80.7869 12.8333 82.3103 8.72665C82.3103 8.72665 81.3902 13.147 84.8474 14.355C84.8474 14.355 80.9067 13.5402 79.8505 18.203C79.8505 18.203 80.8986 12.4076 76.3933 12.1468Z" fill="#F2F2F2" stroke="#F2F2F2" stroke-miterlimit="10"/>
<path opacity="0.84" d="M339.881 31.517C339.881 31.517 341.506 33.1365 343.385 31.8817C343.385 31.8817 341.666 33.4502 342.747 35.0024C342.747 35.0024 341.343 33.4705 339.497 35.0941C339.499 35.0941 341.685 33 339.881 31.517Z" fill="#F2F2F2" stroke="#F2F2F2" stroke-miterlimit="10"/>
<path opacity="0.84" d="M369.594 60.6243C369.594 60.6243 372.954 60.7994 373.78 57.587C373.78 57.587 373.431 60.9848 376.129 61.6224C376.129 61.6224 373.1 61.323 372.675 64.9102C372.667 64.9102 373.004 60.4654 369.594 60.6243Z" fill="#F2F2F2" stroke="#F2F2F2" stroke-miterlimit="10"/>
<path opacity="0.84" d="M386.5 82.3655C386.5 82.3655 388.544 84.4861 390.494 83.2537C390.494 83.2537 388.763 84.8833 390.183 86.845C390.183 86.845 388.403 84.8568 386.527 86.5272C386.535 86.5272 388.724 84.3333 386.5 82.3655Z" fill="#F2F2F2" stroke="#F2F2F2" stroke-miterlimit="10"/>
<path opacity="0.84" d="M118.578 6.78131C118.578 6.78131 120.656 5.80557 120.124 3.6076C120.124 3.6076 121.002 5.76483 122.828 5.28001C122.828 5.28001 120.91 6.07446 121.796 8.37223C121.796 8.37223 120.577 5.58964 118.578 6.78131Z" fill="#F2F2F2" stroke="#F2F2F2" stroke-miterlimit="10"/>
<path opacity="0.84" d="M384.059 2.85184C384.059 2.85184 384.948 3.73795 385.976 3.05554C385.976 3.05554 385.036 3.91313 385.627 4.76258C385.627 4.76258 384.859 3.92536 383.849 4.8135C383.849 4.80739 385.046 3.66665 384.059 2.85184Z" fill="#F2F2F2" stroke="#F2F2F2" stroke-miterlimit="10"/>
<path d="M375.273 45.9148L375.499 45.8313L375.273 45.9148Z" fill="#F2F2F2"/>
<path d="M376.013 46.3467L376.086 46.2204C376.151 46.1078 376.186 45.9798 376.185 45.8496C376.19 45.7507 376.168 45.6524 376.123 45.5644C376.093 45.4738 376.04 45.3924 375.97 45.3281C375.88 45.2373 375.768 45.1719 375.645 45.1387L375.501 45.0857L375.273 45.0552L375.046 45.0857L374.843 45.1713L374.668 45.3057L374.534 45.4809L374.449 45.6846L374.418 45.9148C374.413 46.0293 374.439 46.1431 374.491 46.2448C374.511 46.3165 374.549 46.3818 374.601 46.4343C374.639 46.4982 374.692 46.5515 374.755 46.5891C374.808 46.6417 374.873 46.6796 374.944 46.6991C375.085 46.758 375.238 46.7784 375.389 46.7581C375.537 46.7383 375.677 46.68 375.795 46.5891C375.889 46.5291 375.966 46.4455 376.017 46.3467H376.013Z" fill="#F2F2F2"/>
<path d="M385.671 19.4069L385.897 19.3254L385.671 19.4069Z" fill="#F2F2F2"/>
<path d="M385.671 21.4439C386.205 21.4218 386.714 21.2103 387.107 20.847C387.302 20.6699 387.448 20.4444 387.528 20.1931C387.655 19.9513 387.715 19.6799 387.703 19.4068L387.629 18.867C387.537 18.5264 387.357 18.216 387.107 17.9667L386.701 17.6489C386.393 17.4679 386.043 17.3717 385.686 17.3698C385.286 17.364 384.894 17.4809 384.562 17.7048C384.23 17.9287 383.974 18.2489 383.829 18.6226C383.703 18.8641 383.643 19.1346 383.654 19.4068L383.727 19.9487C383.82 20.2889 384 20.5988 384.249 20.847L384.656 21.1668C384.964 21.3471 385.314 21.4426 385.671 21.4439Z" fill="#F2F2F2"/>
<path d="M371.312 4.26147L371.619 4.40407L371.312 4.26147Z" fill="#F2F2F2"/>
<path d="M370.476 4.75037L370.622 4.94389C370.72 5.10998 370.86 5.24704 371.028 5.34111C371.239 5.46539 371.485 5.51599 371.728 5.48499C371.97 5.454 372.196 5.34315 372.369 5.16983C372.542 4.99651 372.653 4.77051 372.684 4.52724C372.715 4.28398 372.665 4.03719 372.541 3.82556C372.445 3.65749 372.306 3.51806 372.138 3.42146C371.97 3.32485 371.78 3.27451 371.587 3.27556L371.323 3.28982C371.151 3.29027 370.982 3.33593 370.833 3.42223C370.691 3.50809 370.571 3.6277 370.486 3.77056C370.399 3.91951 370.353 4.08898 370.354 4.26149C370.353 4.43338 370.399 4.60225 370.486 4.75037H370.476Z" fill="#F2F2F2"/>
<path d="M341.419 40.1439L341.644 40.0604L341.419 40.1439Z" fill="#F2F2F2"/>
<path d="M342.641 40.482L342.676 40.3659L342.715 40.0726C342.721 39.924 342.688 39.7763 342.619 39.6448C342.594 39.5529 342.545 39.4693 342.477 39.4024C342.401 39.2819 342.294 39.1835 342.168 39.1172L342.058 39.0439L341.756 38.9156C341.592 38.8625 341.418 38.8547 341.25 38.8931C341.028 38.919 340.817 39.0057 340.641 39.1437C340.503 39.2323 340.39 39.3551 340.314 39.5002L340.186 39.8037L340.141 40.1439C340.132 40.3136 340.169 40.4826 340.249 40.6328C340.278 40.7392 340.335 40.8361 340.413 40.9139C340.467 41.0108 340.545 41.0916 340.641 41.1481C340.761 41.2611 340.91 41.3399 341.071 41.3763L341.41 41.4232L341.748 41.3763L342.05 41.248C342.195 41.1712 342.317 41.0582 342.406 40.92C342.518 40.7988 342.597 40.6498 342.633 40.4881L342.641 40.482Z" fill="#F2F2F2"/>
<path d="M344.597 23.2691C345.189 23.2691 345.191 22.3443 344.597 22.3443C344.004 22.3443 344.004 23.2691 344.597 23.2691Z" fill="#F2F2F2"/>
<path d="M318.177 16.7363C319.668 16.7363 319.672 14.412 318.177 14.412C316.682 14.412 316.684 16.7363 318.177 16.7363Z" fill="#F2F2F2"/>
<path d="M319.075 23.6296C319.952 23.6296 319.954 22.2607 319.075 22.2607C318.195 22.2607 318.195 23.6296 319.075 23.6296Z" fill="#F2F2F2"/>
<path d="M370.14 55.9004C371.325 55.9004 371.327 54.0548 370.14 54.0548C368.954 54.0548 368.954 55.9004 370.14 55.9004Z" fill="#F2F2F2"/>
<path d="M352.556 43.2219L352.639 43.448L352.556 43.2219Z" fill="#F2F2F2"/>
<path d="M351.892 44.3626L351.989 44.4319C352.177 44.542 352.391 44.5997 352.609 44.5989C352.932 44.5855 353.24 44.4577 353.478 44.2383C353.629 44.0882 353.738 43.9005 353.793 43.6945L353.825 43.5722L353.872 43.2219L353.825 42.8715L353.693 42.5558L353.49 42.2889L353.224 42.0852L352.909 41.9528L352.56 41.9059C352.384 41.8973 352.208 41.936 352.052 42.018C351.943 42.0497 351.843 42.1085 351.762 42.1891C351.664 42.2461 351.583 42.3275 351.526 42.4254C351.446 42.5066 351.387 42.6068 351.355 42.7167C351.297 42.8181 351.266 42.9334 351.266 43.0508C351.236 43.1655 351.236 43.2863 351.266 43.4011C351.266 43.5185 351.297 43.6337 351.355 43.7352C351.387 43.8451 351.446 43.9453 351.526 44.0265C351.618 44.1703 351.745 44.2876 351.896 44.3667L351.892 44.3626Z" fill="#F2F2F2"/>
<path d="M327.886 3.59129C329.623 3.59129 329.625 0.886108 327.886 0.886108C326.148 0.886108 326.148 3.59129 327.886 3.59129Z" fill="#F2F2F2"/>
<path d="M54.0069 9.46612C54.3554 9.48166 54.7018 9.4036 55.0103 9.24001C55.3313 9.1372 55.6199 8.95177 55.8472 8.70223C56.096 8.47306 56.2814 8.18324 56.3855 7.86094C56.548 7.55219 56.6251 7.20543 56.6089 6.85668L56.5175 6.16205C56.3977 5.72646 56.1666 5.32976 55.8472 5.01112L55.3211 4.60371C54.9224 4.36993 54.4687 4.24689 54.0069 4.24723C53.6576 4.23439 53.3112 4.31526 53.0034 4.48149C52.6825 4.58557 52.3941 4.7716 52.1665 5.02131C51.9178 5.24973 51.7324 5.53888 51.6283 5.86057C51.4657 6.17006 51.3886 6.51746 51.4048 6.86686L51.4983 7.55946C51.6169 7.99567 51.8473 8.39315 52.1665 8.71242L52.6926 9.11983C53.0914 9.35361 53.545 9.47665 54.0069 9.47631V9.46612Z" fill="#F2F2F2"/>
<path d="M27.1233 29.1602C29.1241 29.1602 29.1261 26.0415 27.1233 26.0415C25.1205 26.0415 25.1184 29.1602 27.1233 29.1602Z" fill="#F2F2F2"/>
<path d="M15.6812 32.7413L15.6406 32.6232C15.6361 32.6059 15.6307 32.5889 15.6244 32.5722C15.5813 32.4388 15.4929 32.3249 15.3745 32.2504C15.2963 32.2033 15.2068 32.1785 15.1155 32.1785C15.0243 32.1785 14.9348 32.2033 14.8565 32.2504C14.7377 32.3244 14.6491 32.4385 14.6067 32.5722L14.5884 32.6232L14.5498 32.7413C14.5207 32.8414 14.5193 32.9476 14.5458 33.0484C14.5723 33.1493 14.6256 33.241 14.7001 33.3137C14.8092 33.4203 14.9542 33.4821 15.1064 33.4869C15.2586 33.4821 15.4036 33.4203 15.5126 33.3137C15.5862 33.2403 15.6389 33.1486 15.6654 33.048C15.6918 32.9474 15.691 32.8415 15.6629 32.7413H15.6812Z" fill="#F2F2F2"/>
<path d="M67.2344 49.227C69.1336 49.227 69.1377 46.2672 67.2344 46.2672C65.3311 46.2672 65.3331 49.227 67.2344 49.227Z" fill="#F2F2F2"/>
<path d="M76.7813 9.87149C78.1686 9.87149 78.1706 7.70612 76.7813 7.70612C75.3919 7.70612 75.3899 9.87149 76.7813 9.87149Z" fill="#F2F2F2"/>
<path d="M11.9945 20.8756C13.8734 20.8756 13.8755 17.9483 11.9945 17.9483C10.1136 17.9483 10.1116 20.8756 11.9945 20.8756Z" fill="#F2F2F2"/>
<path d="M136.34 6.14371C138.218 6.14371 138.223 3.21445 136.34 3.21445C134.457 3.21445 134.459 6.14371 136.34 6.14371Z" fill="#F2F2F2"/>
<path d="M42.4267 44.3931L42.3516 44.4665C42.2576 44.5554 42.1877 44.6669 42.1485 44.7904C42.0841 44.9095 42.0538 45.0442 42.0611 45.1794L42.0977 45.4483C42.1441 45.6168 42.2329 45.7704 42.3557 45.8944L42.4308 45.9678L42.6542 46.143L42.9203 46.255C43.0634 46.3021 43.2167 46.3085 43.3632 46.2733C43.4616 46.2739 43.5585 46.2479 43.6435 46.198C43.7363 46.1725 43.821 46.1234 43.8892 46.0554C43.9737 46.0067 44.0438 45.9364 44.0924 45.8517C44.1602 45.7832 44.2092 45.6983 44.2346 45.6052C44.304 45.473 44.3369 45.3246 44.33 45.1754L44.2914 44.88L44.1797 44.6131L44.005 44.3891L43.7796 44.2139L43.5155 44.1019C43.3723 44.0556 43.2195 44.0485 43.0727 44.0815C42.9739 44.081 42.877 44.1078 42.7924 44.1589C42.655 44.2025 42.5316 44.2819 42.4349 44.3891L42.4267 44.3931Z" fill="#F2F2F2"/>
<path d="M11.7467 10.063C11.6289 10.0426 11.637 10.2891 11.7467 10.2667V10.063Z" fill="#F2F2F2"/>
<path d="M12.2748 9.16668C12.2362 9.14631 12.0575 9.0689 12.0148 9.05464H12.0026L11.7223 9.01797C11.6249 9.02586 11.528 9.03878 11.4319 9.05668H11.4197C11.3933 9.05668 11.182 9.15446 11.1576 9.16872C11.1353 9.18094 10.9545 9.32557 10.9342 9.34186C10.8622 9.41537 10.7944 9.4929 10.7311 9.57409L10.7189 9.59649C10.6127 9.78259 10.5567 9.99321 10.5564 10.2076C10.5567 10.4021 10.6076 10.5931 10.7042 10.7617C10.8007 10.9304 10.9396 11.0708 11.1069 11.1691L11.373 11.2811C11.5658 11.3341 11.7692 11.3341 11.962 11.2811C12.2354 11.1922 12.47 11.0117 12.6262 10.7698C12.7247 10.5989 12.7765 10.405 12.7765 10.2076C12.7765 10.0102 12.7247 9.81632 12.6262 9.64538L12.612 9.62094L12.7237 9.88372C12.7226 9.8722 12.7226 9.8606 12.7237 9.84909L12.7623 10.1404C12.7603 10.1296 12.7603 10.1186 12.7623 10.1078L12.7136 10.3889V10.3706L12.6059 10.6252C12.6053 10.6211 12.6053 10.617 12.6059 10.613L12.4394 10.8289L12.2261 10.9939H12.2383L11.9864 11.0998H12.0047L12.2545 10.9939L12.4576 10.8289L12.6222 10.6252C12.6979 10.5084 12.7407 10.3733 12.7461 10.2341C12.7705 10.1427 12.7705 10.0464 12.7461 9.95501C12.7461 9.862 12.7216 9.77064 12.675 9.6902C12.6511 9.60246 12.6049 9.52244 12.5409 9.45797C12.478 9.34006 12.3865 9.23989 12.2748 9.16668Z" fill="#F2F2F2"/>
<path d="M381.19 71.9502L381.499 72.0928L381.19 71.9502Z" fill="#F2F2F2"/>
<path d="M381.19 73.1439L381.454 73.1154C381.639 73.1157 381.821 73.0664 381.981 72.9728C382.134 72.8821 382.262 72.7538 382.352 72.6C382.446 72.4404 382.496 72.2586 382.496 72.0734C382.496 71.8882 382.446 71.7064 382.352 71.5468L382.218 71.3431C382.115 71.1662 381.968 71.0189 381.792 70.9154C381.607 70.8064 381.396 70.7501 381.182 70.7524C380.92 70.7504 380.664 70.8353 380.455 70.994C380.246 71.1527 380.095 71.3762 380.025 71.6298C379.956 71.8835 379.972 72.153 380.071 72.3966C380.17 72.6402 380.346 72.8442 380.573 72.9768C380.757 73.0859 380.968 73.1422 381.182 73.1398L381.19 73.1439Z" fill="#F2F2F2"/>
<path d="M154.282 22.3259C155.324 22.3259 155.326 20.6963 154.282 20.6963C153.238 20.6963 153.238 22.3259 154.282 22.3259Z" fill="#F2F2F2"/>
<path d="M159.325 20.4009C160.06 20.4009 160.06 19.2541 159.325 19.2541C158.59 19.2541 158.588 20.4009 159.325 20.4009Z" fill="#F2F2F2"/>
<path d="M5.02938 10.5763C5.74438 10.5763 5.74641 9.46204 5.02938 9.46204C4.31235 9.46204 4.31438 10.5763 5.02938 10.5763Z" fill="#F2F2F2"/>
</g>
<defs>
<linearGradient id="paint0_linear_2_4903" x1="303.853" y1="101.176" x2="390" y2="101.176" gradientUnits="userSpaceOnUse">
<stop offset="0.02" stop-color="#87D9E6"/>
<stop offset="0.62" stop-color="#87A9C8"/>
<stop offset="1" stop-color="#8790B8"/>
</linearGradient>
<linearGradient id="paint1_linear_2_4903" x1="0" y1="43.4439" x2="237.283" y2="43.4439" gradientUnits="userSpaceOnUse">
<stop stop-color="#51D7E3"/>
<stop offset="0.21" stop-color="#67BDD4"/>
<stop offset="0.75" stop-color="#9E7CAE"/>
<stop offset="1" stop-color="#B4639F"/>
</linearGradient>
<linearGradient id="paint2_linear_2_4903" x1="0" y1="55.1304" x2="112.663" y2="55.1304" gradientUnits="userSpaceOnUse">
<stop offset="0.02" stop-color="#BD4390"/>
<stop offset="0.35" stop-color="#CC388A"/>
<stop offset="1" stop-color="#E52580"/>
</linearGradient>
<linearGradient id="paint3_linear_2_4903" x1="299.215" y1="89.1265" x2="390" y2="89.1265" gradientUnits="userSpaceOnUse">
<stop offset="0.02" stop-color="#A673AA"/>
<stop offset="0.64" stop-color="#D13E8E"/>
<stop offset="1" stop-color="#E52580"/>
</linearGradient>
<linearGradient id="paint4_linear_2_4903" x1="0" y1="29.7448" x2="233.303" y2="29.7448" gradientUnits="userSpaceOnUse">
<stop stop-color="#006FB7"/>
<stop offset="0.12" stop-color="#0168AE"/>
<stop offset="0.32" stop-color="#025494"/>
<stop offset="0.57" stop-color="#05356B"/>
<stop offset="0.58" stop-color="#053369"/>
<stop offset="0.87" stop-color="#113253"/>
<stop offset="0.99" stop-color="#173249"/>
</linearGradient>
<linearGradient id="paint5_linear_2_4903" x1="345.258" y1="108.47" x2="345.258" y2="0" gradientUnits="userSpaceOnUse">
<stop stop-color="#006FB7"/>
<stop offset="0.12" stop-color="#0168AE"/>
<stop offset="0.32" stop-color="#025494"/>
<stop offset="0.57" stop-color="#05356B"/>
<stop offset="0.58" stop-color="#053369"/>
<stop offset="0.87" stop-color="#113253"/>
<stop offset="0.99" stop-color="#173249"/>
</linearGradient>
<clipPath id="clip0_2_4903">
<rect width="390" height="220" fill="white"/>
</clipPath>
</defs>
</svg>
