<svg width="1920" height="1080" viewBox="0 0 1920 1080" fill="none" xmlns="http://www.w3.org/2000/svg">
<g clip-path="url(#clip0_45_15)">
<path d="M1499 53C1482 63.85 1538.11 191.16 1589.1 280.58C1628 348.77 1643.56 371.11 1730 498C1754.26 533.606 1776.66 570.441 1797.12 608.36C1853.43 712.992 1894.79 825.002 1920 941.12V736.12L1710 286C1553.73 81.78 1509.64 46.22 1499 53Z" fill="url(#paint0_linear_45_15)"/>
<path d="M0 361.81C33.17 383.42 101.24 421 194 426C349.69 434.35 457.54 344.48 482 323C580.492 258.183 692.207 216.162 809 200C866.134 194.751 921.968 179.874 974.14 156C1076.21 109.18 1138.14 39.4 1168.14 0H0V361.81Z" fill="url(#paint1_linear_45_15)"/>
<path d="M0 290.67C37.45 320 73.28 335.94 103 345C322.81 412 537.15 200.9 554.65 183.19C554.65 183.19 226 195.55 0 186.28V290.67Z" fill="url(#paint2_linear_45_15)"/>
<path d="M1473.06 0C1484 44.9409 1498.61 88.9085 1516.74 131.46C1568.74 253.46 1640.35 341.46 1697 399C1735.26 432.935 1769.42 471.229 1798.78 513.1C1896.29 652.34 1915.85 796.83 1920 875.1V736C1917.42 703.116 1911.35 670.599 1901.89 639C1871.73 538.39 1813.84 470.23 1776 433C1840.75 487.858 1890.33 558.415 1920 637.92V446.51L1574.69 0H1473.06Z" fill="url(#paint3_linear_45_15)"/>
<path d="M0 186.28C16.78 212.28 35.55 231.1 54 245C226.89 375.26 533.9 194.52 548 186C628.164 151.512 714.746 134.468 802 136C843.15 139.31 929.78 140.47 1023.13 94.62C1070.53 71.2659 1113.09 39.1624 1148.57 0L0 0V186.28Z" fill="url(#paint4_linear_45_15)"/>
<path d="M1479.47 0C1490.21 36.3142 1505.9 70.9741 1526.11 103C1575.32 180.87 1639.53 224 1677 245C1791.79 306.218 1878.76 409.104 1920 532.49V0H1479.47Z" fill="url(#paint5_linear_45_15)"/>
<path opacity="0.84" d="M81.5498 116.34C81.5498 116.34 91.0498 123.06 99.3898 115.22C99.3898 115.22 92.1098 124.48 98.8198 131.33C98.8198 131.33 90.5098 124.86 82.6398 134.51C82.6398 134.51 91.8098 122.18 81.5498 116.34Z" fill="#F2F2F2" stroke="#F2F2F2" stroke-miterlimit="10"/>
<path opacity="0.84" d="M376.09 59.63C376.09 59.63 397.72 63 405.22 42.84C405.22 42.84 400.69 64.54 417.71 70.47C417.71 70.47 398.31 66.47 393.11 89.36C393.11 89.36 398.27 60.91 376.09 59.63Z" fill="#F2F2F2" stroke="#F2F2F2" stroke-miterlimit="10"/>
<path opacity="0.84" d="M1673.26 154.72C1673.26 154.72 1681.26 162.67 1690.51 156.51C1690.51 156.51 1682.05 164.21 1687.37 171.83C1687.37 171.83 1680.46 164.31 1671.37 172.28C1671.38 172.28 1682.14 162 1673.26 154.72Z" fill="#F2F2F2" stroke="#F2F2F2" stroke-miterlimit="10"/>
<path opacity="0.84" d="M1819.54 297.61C1819.54 297.61 1836.08 298.47 1840.15 282.7C1840.15 282.7 1838.43 299.38 1851.71 302.51C1851.71 302.51 1836.8 301.04 1834.71 318.65C1834.67 318.65 1836.33 296.83 1819.54 297.61Z" fill="#F2F2F2" stroke="#F2F2F2" stroke-miterlimit="10"/>
<path opacity="0.84" d="M1902.77 404.34C1902.77 404.34 1912.83 414.75 1922.43 408.7C1922.43 408.7 1913.91 416.7 1920.9 426.33C1920.9 426.33 1912.14 416.57 1902.9 424.77C1902.94 424.77 1913.72 414 1902.77 404.34Z" fill="#F2F2F2" stroke="#F2F2F2" stroke-miterlimit="10"/>
<path opacity="0.84" d="M583.77 33.29C583.77 33.29 594 28.5 591.38 17.71C591.38 17.71 595.7 28.3 604.69 25.92C604.69 25.92 595.25 29.82 599.61 41.1C599.61 41.1 593.61 27.44 583.77 33.29Z" fill="#F2F2F2" stroke="#F2F2F2" stroke-miterlimit="10"/>
<path opacity="0.84" d="M1890.75 14C1890.75 14 1895.13 18.35 1900.19 15C1900.19 15 1895.56 19.21 1898.47 23.38C1898.47 23.38 1894.69 19.27 1889.72 23.63C1889.72 23.6 1895.61 18 1890.75 14Z" fill="#F2F2F2" stroke="#F2F2F2" stroke-miterlimit="10"/>
<path d="M1847.5 225.4L1848.61 224.99L1847.5 225.4Z" fill="#F2F2F2"/>
<path d="M1851.14 227.52L1851.5 226.9C1851.82 226.347 1851.99 225.719 1851.99 225.08C1852.01 224.594 1851.9 224.112 1851.68 223.68C1851.53 223.235 1851.28 222.835 1850.93 222.52C1850.49 222.074 1849.94 221.753 1849.33 221.59L1848.62 221.33L1847.5 221.18L1846.38 221.33L1845.38 221.75L1844.52 222.41L1843.86 223.27L1843.44 224.27L1843.29 225.4C1843.27 225.962 1843.39 226.521 1843.65 227.02C1843.75 227.372 1843.93 227.693 1844.19 227.95C1844.37 228.264 1844.64 228.526 1844.95 228.71C1845.21 228.968 1845.53 229.155 1845.88 229.25C1846.57 229.539 1847.33 229.64 1848.07 229.54C1848.8 229.442 1849.49 229.156 1850.07 228.71C1850.53 228.416 1850.91 228.005 1851.16 227.52H1851.14Z" fill="#F2F2F2"/>
<path d="M1898.69 95.27L1899.8 94.87L1898.69 95.27Z" fill="#F2F2F2"/>
<path d="M1898.69 105.27C1901.32 105.161 1903.82 104.123 1905.76 102.34C1906.72 101.47 1907.43 100.363 1907.83 99.13C1908.45 97.9426 1908.75 96.6102 1908.69 95.27L1908.33 92.62C1907.87 90.9478 1906.99 89.424 1905.76 88.2L1903.76 86.64C1902.24 85.7517 1900.52 85.2792 1898.76 85.27C1896.79 85.2415 1894.86 85.8152 1893.23 86.9144C1891.59 88.0135 1890.33 89.5856 1889.62 91.42C1889 92.6054 1888.7 93.9334 1888.76 95.27L1889.12 97.93C1889.57 99.6003 1890.46 101.121 1891.69 102.34L1893.69 103.91C1895.21 104.795 1896.93 105.264 1898.69 105.27Z" fill="#F2F2F2"/>
<path d="M1828 20.92L1829.51 21.62L1828 20.92Z" fill="#F2F2F2"/>
<path d="M1823.88 23.32L1824.6 24.27C1825.08 25.0853 1825.77 25.7582 1826.6 26.22C1827.64 26.8301 1828.85 27.0785 1830.04 26.9263C1831.24 26.7742 1832.35 26.23 1833.2 25.3792C1834.05 24.5283 1834.6 23.4189 1834.75 22.2246C1834.91 21.0304 1834.66 19.8189 1834.05 18.78C1833.58 17.955 1832.89 17.2705 1832.06 16.7962C1831.24 16.322 1830.3 16.0748 1829.35 16.08L1828.05 16.15C1827.2 16.1522 1826.37 16.3764 1825.64 16.8C1824.94 17.2215 1824.35 17.8087 1823.93 18.51C1823.5 19.2412 1823.28 20.0732 1823.28 20.92C1823.28 21.7639 1823.5 22.5929 1823.93 23.32H1823.88Z" fill="#F2F2F2"/>
<path d="M1680.83 197.07L1681.94 196.66L1680.83 197.07Z" fill="#F2F2F2"/>
<path d="M1686.85 198.73L1687.02 198.16L1687.21 196.72C1687.24 195.991 1687.08 195.266 1686.74 194.62C1686.61 194.169 1686.37 193.758 1686.04 193.43C1685.66 192.838 1685.14 192.355 1684.52 192.03L1683.98 191.67L1682.49 191.04C1681.68 190.779 1680.82 190.741 1680 190.93C1678.91 191.057 1677.87 191.482 1677 192.16C1676.32 192.595 1675.77 193.198 1675.39 193.91L1674.76 195.4L1674.54 197.07C1674.5 197.903 1674.68 198.733 1675.07 199.47C1675.22 199.993 1675.49 200.468 1675.88 200.85C1676.14 201.326 1676.53 201.722 1677 202C1677.59 202.555 1678.33 202.941 1679.12 203.12L1680.79 203.35L1682.45 203.12L1683.94 202.49C1684.65 202.113 1685.25 201.558 1685.69 200.88C1686.24 200.285 1686.63 199.553 1686.81 198.76L1686.85 198.73Z" fill="#F2F2F2"/>
<path d="M1696.48 114.23C1699.39 114.23 1699.4 109.69 1696.48 109.69C1693.56 109.69 1693.56 114.23 1696.48 114.23Z" fill="#F2F2F2"/>
<path d="M1566.41 82.16C1573.75 82.16 1573.77 70.75 1566.41 70.75C1559.05 70.75 1559.06 82.16 1566.41 82.16Z" fill="#F2F2F2"/>
<path d="M1570.83 116C1575.15 116 1575.16 109.28 1570.83 109.28C1566.5 109.28 1566.5 116 1570.83 116Z" fill="#F2F2F2"/>
<path d="M1822.23 274.42C1828.06 274.42 1828.07 265.36 1822.23 265.36C1816.39 265.36 1816.39 274.42 1822.23 274.42Z" fill="#F2F2F2"/>
<path d="M1735.66 212.18L1736.07 213.29L1735.66 212.18Z" fill="#F2F2F2"/>
<path d="M1732.39 217.78L1732.87 218.12C1733.8 218.661 1734.85 218.944 1735.92 218.94C1737.51 218.874 1739.03 218.247 1740.2 217.17C1740.94 216.433 1741.48 215.512 1741.75 214.5L1741.91 213.9L1742.14 212.18L1741.91 210.46L1741.26 208.91L1740.26 207.6L1738.95 206.6L1737.4 205.95L1735.68 205.72C1734.81 205.678 1733.95 205.867 1733.18 206.27C1732.64 206.426 1732.15 206.715 1731.75 207.11C1731.27 207.39 1730.87 207.79 1730.59 208.27C1730.19 208.669 1729.91 209.16 1729.75 209.7C1729.46 210.198 1729.31 210.764 1729.31 211.34C1729.16 211.904 1729.16 212.496 1729.31 213.06C1729.31 213.636 1729.46 214.202 1729.75 214.7C1729.91 215.24 1730.19 215.731 1730.59 216.13C1731.04 216.836 1731.67 217.412 1732.41 217.8L1732.39 217.78Z" fill="#F2F2F2"/>
<path d="M1614.21 17.63C1622.76 17.63 1622.77 4.35001 1614.21 4.35001C1605.65 4.35001 1605.65 17.63 1614.21 17.63Z" fill="#F2F2F2"/>
<path d="M265.88 46.47C267.596 46.5463 269.301 46.1631 270.82 45.36C272.4 44.8553 273.821 43.945 274.94 42.72C276.165 41.595 277.078 40.1722 277.59 38.59C278.39 37.0743 278.77 35.3721 278.69 33.66L278.24 30.25C277.65 28.1117 276.513 26.1642 274.94 24.6L272.35 22.6C270.387 21.4523 268.154 20.8483 265.88 20.85C264.16 20.787 262.455 21.1839 260.94 22C259.36 22.5109 257.94 23.4242 256.82 24.65C255.596 25.7714 254.683 27.1908 254.17 28.77C253.37 30.2893 252.99 31.9948 253.07 33.71L253.53 37.11C254.114 39.2514 255.248 41.2027 256.82 42.77L259.41 44.77C261.373 45.9177 263.606 46.5217 265.88 46.52V46.47Z" fill="#F2F2F2"/>
<path d="M133.53 143.15C143.38 143.15 143.39 127.84 133.53 127.84C123.67 127.84 123.66 143.15 133.53 143.15Z" fill="#F2F2F2"/>
<path d="M77.1999 160.73L76.9999 160.15C76.9778 160.065 76.951 159.982 76.9199 159.9C76.7081 159.245 76.2727 158.686 75.6899 158.32C75.3047 158.089 74.864 157.967 74.4149 157.967C73.9658 157.967 73.5251 158.089 73.1399 158.32C72.5547 158.683 72.1185 159.244 71.9099 159.9L71.8199 160.15L71.6299 160.73C71.4865 161.221 71.4797 161.743 71.6101 162.238C71.7404 162.733 72.0031 163.183 72.3699 163.54C72.9069 164.063 73.6204 164.367 74.3699 164.39C75.1193 164.367 75.8329 164.063 76.3699 163.54C76.7321 163.18 76.9917 162.73 77.1218 162.236C77.2519 161.742 77.2477 161.222 77.1099 160.73H77.1999Z" fill="#F2F2F2"/>
<path d="M331 241.66C340.35 241.66 340.37 227.13 331 227.13C321.63 227.13 321.64 241.66 331 241.66Z" fill="#F2F2F2"/>
<path d="M378 48.46C384.83 48.46 384.84 37.83 378 37.83C371.16 37.83 371.15 48.46 378 48.46Z" fill="#F2F2F2"/>
<path d="M59.0498 102.48C68.2998 102.48 68.3098 88.11 59.0498 88.11C49.7898 88.11 49.7798 102.48 59.0498 102.48Z" fill="#F2F2F2"/>
<path d="M671.21 30.16C680.46 30.16 680.48 15.78 671.21 15.78C661.94 15.78 661.95 30.16 671.21 30.16Z" fill="#F2F2F2"/>
<path d="M208.87 217.93L208.5 218.29C208.037 218.727 207.693 219.274 207.5 219.88C207.183 220.465 207.034 221.126 207.07 221.79L207.25 223.11C207.479 223.937 207.916 224.691 208.52 225.3L208.89 225.66L209.99 226.52L211.3 227.07C212.004 227.301 212.759 227.333 213.48 227.16C213.965 227.163 214.442 227.035 214.86 226.79C215.317 226.665 215.734 226.424 216.07 226.09C216.486 225.851 216.831 225.506 217.07 225.09C217.404 224.754 217.645 224.337 217.77 223.88C218.112 223.231 218.274 222.503 218.24 221.77L218.05 220.32L217.5 219.01L216.64 217.91L215.53 217.05L214.23 216.5C213.525 216.273 212.773 216.238 212.05 216.4C211.564 216.398 211.087 216.529 210.67 216.78C209.994 216.994 209.386 217.384 208.91 217.91L208.87 217.93Z" fill="#F2F2F2"/>
<path d="M57.8298 49.4C57.2498 49.3 57.2898 50.51 57.8298 50.4V49.4Z" fill="#F2F2F2"/>
<path d="M60.4302 45C60.2402 44.9 59.3602 44.52 59.1502 44.45H59.0902L57.7102 44.27C57.2306 44.3087 56.7533 44.3721 56.2802 44.46H56.2202C56.0902 44.46 55.0502 44.94 54.9302 45.01C54.8202 45.07 53.9302 45.78 53.8302 45.86C53.4757 46.2209 53.1418 46.6015 52.8302 47L52.7702 47.11C52.2476 48.0236 51.9718 49.0575 51.9702 50.11C51.9717 51.0646 52.2225 52.0023 52.6978 52.8302C53.1732 53.6581 53.8565 54.3475 54.6802 54.83L55.9902 55.38C56.9394 55.6399 57.941 55.6399 58.8902 55.38C60.2361 54.9437 61.3908 54.0574 62.1602 52.87C62.6447 52.0309 62.8998 51.079 62.8998 50.11C62.8998 49.141 62.6447 48.1891 62.1602 47.35L62.0902 47.23L62.6402 48.52C62.6345 48.4635 62.6345 48.4065 62.6402 48.35L62.8302 49.78C62.8202 49.7271 62.8202 49.6729 62.8302 49.62L62.5902 51V50.91L62.0602 52.16C62.0573 52.1401 62.0573 52.1199 62.0602 52.1L61.2402 53.16L60.1902 53.97H60.2502L59.0102 54.49H59.1002L60.3302 53.97L61.3302 53.16L62.1402 52.16C62.513 51.5868 62.7238 50.9233 62.7502 50.24C62.8703 49.7912 62.8703 49.3188 62.7502 48.87C62.7502 48.4134 62.6294 47.9649 62.4002 47.57C62.2826 47.1393 62.0552 46.7465 61.7402 46.43C61.4302 45.8511 60.9798 45.3594 60.4302 45Z" fill="#F2F2F2"/>
<path d="M1876.63 353.21L1878.15 353.91L1876.63 353.21Z" fill="#F2F2F2"/>
<path d="M1876.63 359.07L1877.93 358.93C1878.84 358.932 1879.73 358.69 1880.52 358.23C1881.28 357.785 1881.91 357.155 1882.35 356.4C1882.81 355.617 1883.06 354.724 1883.06 353.815C1883.06 352.906 1882.81 352.013 1882.35 351.23L1881.69 350.23C1881.18 349.362 1880.46 348.638 1879.59 348.13C1878.68 347.595 1877.64 347.319 1876.59 347.33C1875.3 347.32 1874.04 347.737 1873.01 348.516C1871.98 349.295 1871.24 350.392 1870.89 351.637C1870.55 352.883 1870.63 354.206 1871.12 355.402C1871.61 356.597 1872.48 357.599 1873.59 358.25C1874.5 358.785 1875.54 359.062 1876.59 359.05L1876.63 359.07Z" fill="#F2F2F2"/>
<path d="M759.54 109.6C764.67 109.6 764.68 101.6 759.54 101.6C754.4 101.6 754.4 109.6 759.54 109.6Z" fill="#F2F2F2"/>
<path d="M784.37 100.15C787.99 100.15 787.99 94.52 784.37 94.52C780.75 94.52 780.74 100.15 784.37 100.15Z" fill="#F2F2F2"/>
<path d="M24.76 51.92C28.28 51.92 28.29 46.45 24.76 46.45C21.23 46.45 21.24 51.92 24.76 51.92Z" fill="#F2F2F2"/>
</g>
<defs>
<linearGradient id="paint0_linear_45_15" x1="1495.89" y1="496.68" x2="1920" y2="496.68" gradientUnits="userSpaceOnUse">
<stop offset="0.02" stop-color="#87D9E6"/>
<stop offset="0.62" stop-color="#87A9C8"/>
<stop offset="1" stop-color="#8790B8"/>
</linearGradient>
<linearGradient id="paint1_linear_45_15" x1="0" y1="213.27" x2="1168.16" y2="213.27" gradientUnits="userSpaceOnUse">
<stop stop-color="#51D7E3"/>
<stop offset="0.21" stop-color="#67BDD4"/>
<stop offset="0.75" stop-color="#9E7CAE"/>
<stop offset="1" stop-color="#B4639F"/>
</linearGradient>
<linearGradient id="paint2_linear_45_15" x1="0" y1="270.64" x2="554.65" y2="270.64" gradientUnits="userSpaceOnUse">
<stop offset="0.02" stop-color="#BD4390"/>
<stop offset="0.35" stop-color="#CC388A"/>
<stop offset="1" stop-color="#E52580"/>
</linearGradient>
<linearGradient id="paint3_linear_45_15" x1="1473.06" y1="437.53" x2="1920" y2="437.53" gradientUnits="userSpaceOnUse">
<stop offset="0.02" stop-color="#A673AA"/>
<stop offset="0.64" stop-color="#D13E8E"/>
<stop offset="1" stop-color="#E52580"/>
</linearGradient>
<linearGradient id="paint4_linear_45_15" x1="0" y1="146.02" x2="1148.57" y2="146.02" gradientUnits="userSpaceOnUse">
<stop stop-color="#006FB7"/>
<stop offset="0.12" stop-color="#0168AE"/>
<stop offset="0.32" stop-color="#025494"/>
<stop offset="0.57" stop-color="#05356B"/>
<stop offset="0.58" stop-color="#053369"/>
<stop offset="0.87" stop-color="#113253"/>
<stop offset="0.99" stop-color="#173249"/>
</linearGradient>
<linearGradient id="paint5_linear_45_15" x1="1699.73" y1="532.49" x2="1699.73" y2="0" gradientUnits="userSpaceOnUse">
<stop stop-color="#006FB7"/>
<stop offset="0.12" stop-color="#0168AE"/>
<stop offset="0.32" stop-color="#025494"/>
<stop offset="0.57" stop-color="#05356B"/>
<stop offset="0.58" stop-color="#053369"/>
<stop offset="0.87" stop-color="#113253"/>
<stop offset="0.99" stop-color="#173249"/>
</linearGradient>
<clipPath id="clip0_45_15">
<rect width="1920" height="1080" fill="white"/>
</clipPath>
</defs>
</svg>