<svg width="390" height="842" viewBox="0 0 390 842" fill="none" xmlns="http://www.w3.org/2000/svg">
<g clip-path="url(#clip0_70_696)">
<path d="M-240.06 597.28L-122.84 573.62L-50.84 620.51L-13.84 666.18L27.35 695.71L73.35 702.33L131.77 668.79L215.6 661.36L323.06 621.91L389 567.74L391.78 487L402.18 450.93L632.83 635.26L362.83 1031.63C152.61 1024.33 -0.470001 948.49 -19 850C-22.57 831 -22.27 805.21 -8.25999 772.14" fill="url(#paint0_linear_70_696)"/>
<path opacity="0.3" d="M100.715 798.254C105.223 786.96 92.2247 771.156 71.6818 762.956C51.1389 754.756 30.8307 757.265 26.3223 768.56C21.8139 779.854 34.8124 795.658 55.3553 803.858C75.8982 812.058 96.2064 809.549 100.715 798.254Z" stroke="white" stroke-width="4" stroke-miterlimit="10"/>
<path opacity="0.3" d="M124.267 805.372C130.899 788.758 109.097 764.442 75.572 751.06C42.0468 737.678 9.49323 740.298 2.86161 756.912C-3.77001 773.526 18.0316 797.842 51.5568 811.224C85.082 824.606 117.636 821.986 124.267 805.372Z" stroke="white" stroke-width="4" stroke-miterlimit="10"/>
<path opacity="0.3" d="M132.741 802.656C140.174 780.008 111.475 750.252 68.6398 736.193C25.8049 722.135 -14.9455 729.098 -22.3786 751.746C-29.8118 774.394 -1.11292 804.15 41.722 818.209C84.557 832.267 125.307 825.304 132.741 802.656Z" stroke="white" stroke-width="4" stroke-miterlimit="10"/>
<path opacity="0.3" d="M166.528 809.265C175.696 777.731 134.435 738.013 74.3699 720.551C14.3049 703.089 -41.8189 714.496 -50.9862 746.03C-60.1534 777.563 -18.8927 817.281 41.1723 834.743C101.237 852.205 157.361 840.798 166.528 809.265Z" stroke="white" stroke-width="4" stroke-miterlimit="10"/>
<path opacity="0.5" d="M367.311 968.205C385.19 967.63 398.744 937.917 397.585 901.838C396.426 865.76 380.993 836.978 363.113 837.552C345.234 838.127 331.68 867.84 332.839 903.918C333.998 939.997 349.431 968.779 367.311 968.205Z" stroke="white" stroke-width="4" stroke-miterlimit="10"/>
<path opacity="0.3" d="M372.693 993.408C396.423 991.156 412.208 952.947 407.95 908.066C403.692 863.185 381.003 828.626 357.273 830.878C333.543 833.129 317.758 871.338 322.016 916.219C326.274 961.101 348.963 995.659 372.693 993.408Z" stroke="white" stroke-width="4" stroke-miterlimit="10"/>
<path opacity="0.3" d="M378.875 1021.94C411.441 1017.72 431.329 964.015 423.294 901.982C415.259 839.948 382.345 793.08 349.778 797.298C317.211 801.516 297.324 855.223 305.359 917.257C313.394 979.291 346.308 1026.16 378.875 1021.94Z" stroke="white" stroke-width="4" stroke-miterlimit="10"/>
<path d="M-187.63 607.71C-187.63 607.71 -88.33 560.08 -31.42 649.42C-25.86 658.42 -6.91998 686.62 30.28 699.56C82.1 717.56 126.6 691.17 132.76 687.37C139.556 683.823 146.692 680.968 154.06 678.85C200.17 665.65 242.23 685.55 258.67 694.54C266.15 690.79 273.94 686.62 281.96 681.99C290.79 676.88 298.96 671.74 306.57 666.66C316.936 655.407 327.976 644.794 339.63 634.88C376.87 603.18 395.4 599.96 409.03 580.88C419.29 566.47 427.88 541.48 416.77 495.58C407.843 474.367 398.92 453.173 390 432L373 494C370.667 509 368.333 524 366 539L351.05 562.07L322.52 610.6L270.11 650L247.44 660.45L189.79 641.5L138 648.32L89.83 687.2L53.83 696.39L34.72 694L24.19 689L-7.47998 666.26L-44.91 610.67L-101.18 537.87L-166.18 501.46L-225 491.67L-323.71 502.55L-187.63 607.71Z" fill="url(#paint1_linear_70_696)"/>
<path d="M-332.38 495.91C-308.09 487.91 -267.1 478.3 -217.59 485.3C-118.93 499.25 -61.23 568.7 -47.1 586.77C-44.81 590.37 -41.18 596.13 -36.8 603.27C-28.3 617.12 -22.46 627.27 -21.37 629.07C-12.25 644.58 11.72 685.33 45.2 690.78C80.62 696.54 111.97 660.38 116.48 655.03C120.39 650.7 140.79 628.97 174.74 627.03C207.03 625.17 229.03 642.49 233.84 646.48C258.203 640.721 281.067 629.856 300.919 614.603C320.771 599.35 337.159 580.058 349 558C358.38 534.07 367.5 508.38 376 481C381.207 464.22 385.873 447.887 390 432C393.92 440.37 423.27 505.58 390 561C382.154 573.937 371.78 585.161 359.5 594C359.5 594 311.84 641.86 257.86 655.64C254.59 662.64 250.24 665.73 247.86 667.07C234.86 674.5 218.03 665.72 212.98 663.07C210.205 661.633 207.558 659.961 205.07 658.07C201.9 655.84 178.57 640.07 149.33 648.17C124.78 654.98 112.87 673.98 110.33 678.17C95.02 694.65 80.44 699.17 72.71 700.73C33.97 708.45 -4.69 675.28 -22.43 651.86C-32.8 638.17 -34.94 629.23 -53.04 606.86C-61.4 596.497 -70.4045 586.671 -80 577.44C-91.2438 566.654 -103.799 557.324 -117.37 549.67C-146.08 533.51 -207.21 522.67 -282.53 534.56" fill="url(#paint2_linear_70_696)"/>
<path d="M-10 877C-6.27 868.21 24.76 798.44 104.28 776.51C179.18 755.86 238.53 793.8 247.28 799.61C247.28 799.61 359.93 844.76 426.83 792.24C424.443 795.317 421.889 798.262 419.18 801.06C402.47 818.3 384.08 825.39 374.73 828.88C358.073 835.023 340.397 837.928 322.65 837.44C312.89 837.32 305.31 836.15 290.15 833.8C281.32 832.43 263.41 829.6 247.15 824.25C244.36 823.33 236.86 820.77 227.83 817.39C223.34 815.71 220.66 814.65 219.56 814.23C205.02 808.69 187.12 809.36 183.19 809.45C166.749 809.647 150.584 813.707 136 821.3C108.4 835.88 95.5 859.56 91 869L-10 877Z" fill="url(#paint3_linear_70_696)"/>
<path d="M433.7 721.81C439.238 720.068 445.172 720.037 450.728 721.721C456.284 723.405 461.202 726.726 464.84 731.25C472.84 741.4 472.77 756.15 464.52 766.74C464.52 766.74 444.42 823.17 356.84 856.28C356.84 856.28 278.84 865.2 253.71 947.78L241.49 938.1C241.49 938.1 258.66 856.62 351.08 849.17C351.08 849.17 240.8 819.84 226.58 926.61L223.36 924.4C223.36 924.4 217.62 879.45 270.45 844.5C270.45 844.5 218.85 841.5 208.97 913.04L107 844C117.441 832.776 130.139 823.888 144.26 817.92C182.12 802.06 217.26 813.36 227.15 816.92C227.15 816.92 357.61 873.46 426.84 792.23C446.27 780.38 455.52 759.81 450.57 742.87C447.13 731.09 437.78 724.37 433.7 721.81Z" fill="url(#paint4_linear_70_696)"/>
<path d="M274.93 963.86C275.32 941.35 282.15 926.86 287.19 918.66C298.02 901.12 316.19 890.58 351.99 870.21C366.18 862.15 378.19 855.97 386.48 851.84C411.77 839.25 426.76 828.12 441.89 812.06C445.76 807.96 490.15 759.56 478.99 707.48C478.5 705.19 477.99 703.34 477.66 702.18C476.79 700.24 464.05 671.56 435.36 668.74C419.14 667.14 398.66 675.62 374.64 706.8C369.143 715.538 365.176 725.149 362.91 735.22C376.21 695.4 409.1 672.89 436.69 677.68C454.32 680.73 465.84 694.24 470.83 701.11C470.83 701.11 414.83 653.23 353.03 745.26C346.648 756.996 338.56 767.719 329.03 777.08C334.382 776.321 339.581 774.728 344.44 772.36C355.78 766.77 359.85 759.31 376.17 744.36C380.36 740.52 383.86 737.57 385.95 735.84C390.452 730.993 395.897 727.118 401.95 724.45C411.979 720.158 423.127 719.225 433.73 721.79C456.73 721.57 463.59 730.41 465.26 732.86C479.72 754.16 443.43 799.17 440.36 802.61C439.17 803.95 437.43 805.85 435.24 808.03C429.12 814.069 422.421 819.491 415.24 824.22C396.5 836.95 366.12 850.15 364.88 850.69C350.848 854.426 337.124 859.237 323.83 865.08C314.32 869.25 305.54 873.72 301.39 876.14C274.06 892.07 259.91 928.06 253.71 947.76L274.93 963.86Z" fill="url(#paint5_linear_70_696)"/>
<path d="M282.67 699.07C282.67 699.07 271.58 795.32 341.47 763.33C341.47 763.33 335.86 772.2 329.71 776.81C329.71 776.81 268.97 793.93 266.39 699.37C263.81 604.81 282.67 699.07 282.67 699.07Z" fill="url(#paint6_linear_70_696)"/>
<path d="M230.18 660.45L207 698.28C207 698.28 224 734.35 236.68 744.8L229.68 700.56L252.6 677.67L230.21 660.45" fill="#3D8DC8"/>
<path d="M299.06 653.05L334.22 685.89C334.22 685.89 334.43 706.53 315.59 734.41L315.4 698.52L291.66 679.65L299.06 653.05Z" fill="#3F94C7"/>
<path d="M227.24 565.15C227.24 565.15 258.32 552.25 280.55 559.06C280.55 559.06 319.55 627.13 293.61 702.42L254.21 710.25C251.87 707.38 200.88 644.97 227.21 565.15" fill="#C8CDC3"/>
<mask id="mask0_70_696" style="mask-type:luminance" maskUnits="userSpaceOnUse" x="219" y="557" width="84" height="154">
<path d="M227.24 565.15C227.24 565.15 258.32 552.25 280.55 559.06C280.55 559.06 319.55 627.13 293.61 702.42L254.21 710.25C251.87 707.38 200.88 644.97 227.21 565.15" fill="white"/>
</mask>
<g mask="url(#mask0_70_696)">
<path d="M262.69 562C265.28 567 266.36 572.23 267.83 577.62C269.57 583.99 271.45 590.32 273.04 596.73C274.56 602.85 275.84 609.01 277.04 615.2C277.7 618.6 278.38 622 278.96 625.41C279.17 626.65 279.38 627.9 279.57 629.14C279.57 629.01 280.31 634.45 280.01 632.14C281.614 644.625 282.226 657.218 281.84 669.8C281.747 672.94 281.58 676.08 281.34 679.22C281.187 681.1 281.01 682.98 280.81 684.86C280.81 685.29 280.22 689.58 280.42 688.18C280.59 687 279.87 691.5 279.87 691.47C279.61 693.02 279.32 694.57 279.02 696.11C278.35 699.5 277.56 702.87 276.7 706.22C274.46 714.95 279.55 725.36 288.76 727.46C297.76 729.46 307.6 724.76 310 715.4C317.4 686.49 317.83 657 313.31 627.63C311.153 613.962 307.845 600.501 303.42 587.39C298.92 573.93 293.78 560.33 285.62 548.62C281.52 542.74 273.99 540.03 267.45 543.85C260.91 547.67 259.37 555.63 262.68 562.02L262.69 562Z" fill="#808080"/>
</g>
<path d="M227.24 565.15C227.24 565.15 247.7 498.48 280.55 559.06C280.55 559.06 247.42 569.48 227.24 565.15Z" fill="#5567AE"/>
<mask id="mask1_70_696" style="mask-type:luminance" maskUnits="userSpaceOnUse" x="227" y="533" width="54" height="34">
<path d="M227.24 565.15C227.24 565.15 247.7 498.48 280.55 559.06C280.55 559.06 247.42 569.48 227.24 565.15Z" fill="white"/>
</mask>
<g mask="url(#mask1_70_696)">
<path d="M241.92 525.1C242.84 530.93 247.92 535.4 251.54 539.75C255.16 544.1 258.54 548.75 261.98 553.24C265.42 557.73 268.53 562.4 271.5 567.18C274.95 572.74 277.5 579.54 283.14 583.18C289.05 587.04 296.91 581.96 296.92 575.28C296.93 568.6 292.17 562.52 288.61 557.17C284.87 551.55 280.83 546.17 276.61 540.89C272.683 536.108 268.397 531.631 263.79 527.5C259.04 523.17 254.14 518.34 247.41 517.91C243.41 517.65 241.41 521.72 241.94 525.09L241.92 525.1Z" fill="#1B1464"/>
<path d="M241.13 528.7C249.425 537.391 256.656 547.039 262.67 557.44C265.86 563 269.02 568.58 271.72 574.44C274.67 580.79 276.5 587.58 281.6 592.66C284.9 595.95 292.15 594.89 292.96 589.66C294.25 581.4 291.18 574.43 287.88 567.01C284.75 559.777 280.943 552.856 276.51 546.34C268.96 535.46 258.65 521.34 244.06 521.66C243.251 521.682 242.465 521.937 241.798 522.396C241.131 522.854 240.611 523.497 240.301 524.244C239.991 524.992 239.905 525.814 240.052 526.61C240.199 527.406 240.573 528.142 241.13 528.73V528.7Z" fill="#1B1464"/>
<path d="M246.06 525.41C247.26 527.96 247.73 530.7 249.06 533.29C250.45 536.03 251.87 538.74 253.44 541.39C256.44 546.48 259.44 551.51 261.97 556.87C264.36 561.97 266.39 567.23 268.73 572.36C271.17 577.72 272.73 584.31 276.17 589.06C280.72 595.28 290.23 593.22 290.72 585.12C291.11 578.75 288.24 571.85 286.04 565.97C283.656 559.72 280.64 553.729 277.04 548.09C273.745 542.722 270.149 537.543 266.27 532.58C264.191 529.971 261.867 527.567 259.33 525.4C256.69 523.13 254.04 522.13 251.25 520.28C247.85 518.03 244.65 522.28 246.12 525.41H246.06Z" fill="#1B1464"/>
</g>
<path d="M257.38 626.47C268.061 626.47 276.72 617.811 276.72 607.13C276.72 596.449 268.061 587.79 257.38 587.79C246.699 587.79 238.04 596.449 238.04 607.13C238.04 617.811 246.699 626.47 257.38 626.47Z" fill="#5999D0"/>
<mask id="mask2_70_696" style="mask-type:luminance" maskUnits="userSpaceOnUse" x="238" y="587" width="39" height="40">
<path d="M257.38 626.47C268.061 626.47 276.72 617.811 276.72 607.13C276.72 596.449 268.061 587.79 257.38 587.79C246.699 587.79 238.04 596.449 238.04 607.13C238.04 617.811 246.699 626.47 257.38 626.47Z" fill="white"/>
</mask>
<g mask="url(#mask2_70_696)">
<path d="M250.61 578.69C255.137 580.997 255.94 581.137 253.02 579.11C251.758 578.373 250.322 577.986 248.86 577.99C246.491 577.893 244.143 578.461 242.08 579.63C238.88 581.38 235.63 584.88 233.58 587.85C229.159 594.634 227.028 602.656 227.5 610.74C228.01 619.573 230.952 628.094 236 635.36C241.37 642.92 248.53 651.5 257.88 653.71C269.18 656.37 278.66 644.5 272.88 634.17C269.65 628.37 263.99 624.89 259.88 619.77C259.25 619.03 259.23 619 259.81 619.67C259.39 619.05 258.96 618.42 258.55 617.79C257.85 616.79 257.15 615.71 256.55 614.62C254.97 611.88 255.09 611.8 254.09 608.5C253.31 605.93 253.99 609.62 253.77 606.68C253.68 605.55 253.57 604.43 253.56 603.3C253.56 600.03 253.62 600.67 254.23 597.96C254.89 595.06 255.65 593.58 256.53 590.72C256.982 589.265 257.178 587.742 257.11 586.22L256.8 584C255.57 580.62 255.5 581.43 256.61 586.46C259.53 582.53 254.72 577.62 250.61 578.66V578.69Z" fill="#0071BC"/>
</g>
<path d="M265.1 656.47L262.06 700.13L281.52 755.18L280.35 697.19L265.1 656.47Z" fill="#3F94C7"/>
<path d="M28.61 739C36.86 739 36.87 726.19 28.61 726.19C20.35 726.19 20.36 739 28.61 739Z" fill="#F2F2F2"/>
<path d="M32 720.13C38.73 720.13 38.75 709.66 32 709.66C25.25 709.66 25.25 720.13 32 720.13Z" fill="#F2F2F2"/>
<path d="M92.41 750.31L91.75 750.11L92.41 750.31Z" fill="#F2F2F2"/>
<path d="M92.4101 755.86C93.8654 755.793 95.2517 755.22 96.3301 754.24C96.8579 753.75 97.2535 753.134 97.4801 752.45C97.8219 751.79 97.984 751.052 97.95 750.31L97.7601 748.84C97.5024 747.914 97.0098 747.07 96.3301 746.39L95.21 745.52C94.3602 745.025 93.3935 744.766 92.4101 744.77C91.6665 744.734 90.9271 744.9 90.27 745.25C89.6006 745.501 88.9927 745.892 88.4872 746.397C87.9818 746.903 87.5906 747.511 87.34 748.18C86.9914 748.834 86.8256 749.57 86.8601 750.31L87.06 751.79C87.316 752.717 87.8088 753.561 88.49 754.24L89.6101 755.1C90.4566 755.604 91.4249 755.867 92.4101 755.86Z" fill="#F2F2F2"/>
<path d="M77 745.89C82.13 745.89 82.14 737.89 77 737.89C71.86 737.89 71.86 745.89 77 745.89Z" fill="#F2F2F2"/>
<path d="M102.83 732.22C110.67 732.22 110.68 720.03 102.83 720.03C94.98 720.03 94.97 732.22 102.83 732.22Z" fill="#F2F2F2"/>
<path d="M115.68 747.45L115.02 747.25L115.68 747.45Z" fill="#F2F2F2"/>
<path d="M115.68 744.72H115.11L114.45 744.81L113.85 745.06L113.34 745.45C113.098 745.669 112.919 745.949 112.82 746.26C112.706 746.45 112.647 746.668 112.65 746.89C112.59 747.109 112.59 747.341 112.65 747.56C112.645 747.785 112.704 748.007 112.82 748.2C112.917 748.509 113.097 748.786 113.34 749L113.74 749.34C114.077 749.672 114.494 749.913 114.95 750.04C115.425 750.17 115.925 750.17 116.4 750.04C116.858 749.918 117.276 749.676 117.61 749.34C118.101 748.811 118.386 748.122 118.41 747.4C118.413 746.915 118.285 746.438 118.04 746.02C117.8 745.608 117.455 745.266 117.041 745.029C116.626 744.792 116.157 744.668 115.68 744.67V744.72Z" fill="#F2F2F2"/>
<path d="M95.0899 764.87L94.4399 764.66L95.0899 764.87Z" fill="#F2F2F2"/>
<path d="M95.09 768.93C95.6349 768.953 96.1763 768.832 96.66 768.58C97.163 768.42 97.6148 768.13 97.97 767.74C98.3555 767.381 98.6443 766.93 98.81 766.43C99.0619 765.95 99.1827 765.412 99.16 764.87L99 763.79C98.8256 763.115 98.4814 762.495 98 761.99L97.18 761.36C96.5541 760.996 95.8438 760.803 95.12 760.8C94.5784 760.779 94.0406 760.899 93.56 761.15C93.0678 761.332 92.6209 761.619 92.2498 761.99C91.8786 762.361 91.5922 762.808 91.41 763.3C91.1594 763.784 91.0388 764.325 91.06 764.87L91.21 765.95C91.3843 766.623 91.7286 767.239 92.21 767.74L93.03 768.38C93.6388 768.731 94.3273 768.92 95.03 768.93H95.09Z" fill="#F2F2F2"/>
<path d="M3.80005 712.62L4.66005 712.16L3.80005 712.62Z" fill="#F2F2F2"/>
<path d="M5.76995 716L6.53995 715.51C6.97604 715.273 7.34437 714.929 7.60995 714.51C7.94866 714.144 8.18642 713.696 8.29995 713.21L8.42995 712.21C8.45331 711.699 8.33935 711.192 8.09995 710.74C8.01518 710.418 7.84602 710.125 7.60995 709.89C7.34137 709.473 6.97375 709.13 6.53995 708.89L5.61995 708.5C4.96474 708.325 4.27516 708.325 3.61995 708.5L2.78995 708.85C2.14154 709.033 1.54991 709.377 1.06995 709.85L0.459949 710.65C0.101074 711.255 -0.0856515 711.947 -0.0800507 712.65C-0.0989916 713.171 0.0181929 713.688 0.259949 714.15C0.403448 714.614 0.657383 715.036 0.999949 715.38C1.34237 715.755 1.77666 716.034 2.25995 716.19C2.72284 716.428 3.23978 716.542 3.75995 716.52C4.4623 716.528 5.15354 716.344 5.75995 715.99L5.76995 716Z" fill="#F2F2F2"/>
<path opacity="0.84" d="M40.9 725C40.8075 724.273 40.4696 723.599 39.9424 723.09C39.4151 722.581 38.7299 722.267 38 722.2C38 722.2 40.64 721.97 40.74 719.82C40.7843 720.164 40.8985 720.495 41.0758 720.794C41.253 721.092 41.4895 721.351 41.7706 721.554C42.0517 721.757 42.3714 721.901 42.7102 721.976C43.0489 722.051 43.3994 722.056 43.74 721.99C43.74 721.99 40.29 722.38 40.9 725Z" fill="#F2F2F2" stroke="#F2F2F2" stroke-miterlimit="10"/>
<path opacity="0.84" d="M18.4 727.86C19.2067 727.355 19.8182 726.592 20.1343 725.694C20.4505 724.797 20.4525 723.819 20.14 722.92C20.14 722.92 21.81 725.92 24.42 724.92C24.42 724.92 21.73 726.42 23.42 729.65C23.43 729.65 21.15 725.76 18.4 727.86Z" fill="#F2F2F2" stroke="#F2F2F2" stroke-miterlimit="10"/>
<path opacity="0.84" d="M88.42 742.34C88.42 742.34 89.56 736.81 84.42 734.63C84.42 734.63 89.96 736.06 91.69 731.75C91.69 731.75 90.43 736.75 96.26 738.32C96.29 738.32 89 736.64 88.42 742.34Z" fill="#F2F2F2" stroke="#F2F2F2" stroke-miterlimit="10"/>
<path opacity="0.84" d="M386.39 626.23C386.39 626.23 378.21 630.6 380.81 639.35C380.81 639.35 376.81 630.84 369.54 633.18C369.54 633.18 377.12 629.57 373.05 620.51C373.05 620.51 378.56 631.46 386.39 626.23Z" fill="#F2F2F2" stroke="#F2F2F2" stroke-miterlimit="10"/>
<path opacity="0.84" d="M350.7 653.3C350.7 653.3 348.46 657.53 352.1 660.51C352.1 660.51 347.94 658.03 345.5 661.13C345.5 661.13 347.7 657.4 343.35 654.7C343.35 654.7 348.86 657.79 350.7 653.3Z" fill="#F2F2F2" stroke="#F2F2F2" stroke-miterlimit="10"/>
<path d="M377.18 651C384.02 651 384.03 640.37 377.18 640.37C370.33 640.37 370.33 651 377.18 651Z" fill="#F2F2F2"/>
<path d="M335.23 671.25C344.48 671.25 344.49 656.88 335.23 656.88C325.97 656.88 325.96 671.25 335.23 671.25Z" fill="#F2F2F2"/>
<path d="M357.43 641.07L357.83 640.77L357.43 641.07Z" fill="#F2F2F2"/>
<path d="M357.43 646.54C358.507 646.558 359.563 646.246 360.457 645.645C361.351 645.044 362.04 644.184 362.43 643.18C362.773 642.531 362.938 641.803 362.91 641.07L362.71 639.61C362.457 638.698 361.971 637.868 361.3 637.2L360.2 636.35C359.364 635.856 358.411 635.597 357.44 635.6C356 635.635 354.63 636.223 353.611 637.241C352.593 638.26 352.005 639.63 351.97 641.07L352.16 642.52C352.413 643.435 352.899 644.269 353.57 644.94L354.68 645.79C355.519 646.277 356.47 646.535 357.44 646.54H357.43Z" fill="#F2F2F2"/>
<path d="M350.69 813.65C357.42 813.65 357.43 803.18 350.69 803.18C343.95 803.18 343.94 813.65 350.69 813.65Z" fill="#F2F2F2"/>
<path d="M287.39 778.41L288.06 778.55L287.39 778.41Z" fill="#F2F2F2"/>
<path d="M287.39 784C288.848 783.945 290.238 783.37 291.31 782.38C292.29 781.302 292.863 779.915 292.93 778.46L292.73 776.98C292.478 776.054 291.988 775.209 291.31 774.53L290.19 773.67C289.341 773.172 288.374 772.91 287.39 772.91C285.931 772.95 284.542 773.548 283.51 774.58C282.478 775.612 281.88 777.001 281.84 778.46L282.04 779.93C282.294 780.856 282.783 781.7 283.46 782.38L284.59 783.25C285.439 783.747 286.406 784.006 287.39 784Z" fill="#F2F2F2"/>
<path d="M303.49 789.43C308.62 789.43 308.63 781.43 303.49 781.43C298.35 781.43 298.35 789.43 303.49 789.43Z" fill="#F2F2F2"/>
<path d="M264.45 783.29L265.13 783.44L264.45 783.29Z" fill="#F2F2F2"/>
<path d="M265.18 785.93L265.69 785.84L266.29 785.58L266.8 785.19L267.19 784.68C267.375 784.404 267.479 784.082 267.49 783.75C267.55 783.531 267.55 783.299 267.49 783.08C267.494 782.855 267.436 782.633 267.32 782.44C267.259 782.233 267.15 782.045 267 781.89C266.822 781.617 266.578 781.393 266.29 781.24L265.83 780.93C265.412 780.684 264.935 780.553 264.45 780.55C263.973 780.553 263.504 780.68 263.091 780.919C262.677 781.157 262.332 781.499 262.09 781.91C261.754 782.559 261.658 783.307 261.82 784.02C261.948 784.475 262.191 784.89 262.525 785.225C262.86 785.559 263.275 785.802 263.73 785.93C264.205 786.06 264.705 786.06 265.18 785.93Z" fill="#F2F2F2"/>
<path d="M379 808.22L378.18 808.75L379 808.22Z" fill="#F2F2F2"/>
<path d="M377 804.85L376.28 805.41C375.839 805.643 375.467 805.988 375.2 806.41C374.869 806.78 374.636 807.227 374.52 807.71C374.363 808.202 374.339 808.726 374.45 809.23C374.469 809.738 374.625 810.232 374.9 810.66L375.5 811.43C375.965 811.907 376.548 812.252 377.19 812.43L378.19 812.56C378.869 812.565 379.536 812.386 380.12 812.04L380.93 811.62C381.373 811.385 381.748 811.041 382.02 810.62C382.366 810.246 382.608 809.787 382.72 809.29C382.887 808.79 382.911 808.253 382.79 807.74C382.765 807.222 382.607 806.719 382.33 806.28L381.72 805.49C381.241 805.011 380.644 804.666 379.99 804.49L378.99 804.35C378.288 804.344 377.597 804.527 376.99 804.88L377 804.85Z" fill="#F2F2F2"/>
<path opacity="0.84" d="M340.91 799.17C341.075 799.88 341.477 800.514 342.049 800.966C342.622 801.418 343.331 801.663 344.06 801.66C344.06 801.66 341.45 802.12 341.54 804.27C341.466 803.931 341.323 803.611 341.12 803.329C340.918 803.047 340.659 802.81 340.361 802.632C340.063 802.454 339.732 802.339 339.388 802.294C339.044 802.249 338.694 802.275 338.36 802.37C338.36 802.37 341.74 801.69 340.91 799.17Z" fill="#F2F2F2" stroke="#F2F2F2" stroke-miterlimit="10"/>
<g clip-path="url(#clip1_70_696)">
<path d="M304.484 8.79631C301.031 11.0065 312.429 36.94 322.786 55.1552C330.687 69.0457 333.848 73.5965 351.406 99.4445C356.334 106.697 360.885 114.201 365.04 121.925C376.478 143.239 384.88 166.056 390 189.71V147.95L347.344 56.2593C315.601 14.6589 306.646 7.4152 304.484 8.79631Z" fill="url(#paint7_linear_70_696)"/>
<path d="M0 71.702C6.73766 76.1041 20.5644 83.7593 39.4062 84.7778C71.0308 86.4787 92.9378 68.1719 97.9062 63.7963C117.912 50.5929 140.604 42.033 164.328 38.7407C175.933 37.6714 187.275 34.641 197.872 29.7778C218.605 20.2404 231.185 6.02593 237.278 -2H0V71.702Z" fill="url(#paint8_linear_70_696)"/>
<path d="M0 57.2105C7.60703 63.1852 14.885 66.4322 20.9219 68.2778C65.5708 81.9259 109.109 38.9241 112.663 35.3165C112.663 35.3165 45.9062 37.8342 0 35.9459V57.2105Z" fill="url(#paint9_linear_70_696)"/>
<path d="M299.215 -2C301.438 7.15464 304.405 16.111 308.088 24.7789C318.65 49.6307 333.196 67.5567 344.703 79.2778C352.474 86.1905 359.413 93.991 365.377 102.52C385.184 130.884 389.157 160.317 390 176.261V147.926C389.476 141.227 388.243 134.604 386.321 128.167C380.195 107.672 368.436 93.7876 360.75 86.2037C373.902 97.3784 383.973 111.751 390 127.947V88.9557L319.859 -2H299.215Z" fill="url(#paint10_linear_70_696)"/>
<path d="M0 35.9459C3.40844 41.2422 7.22109 45.0759 10.9688 47.9074C46.087 74.4419 108.448 37.6244 111.312 35.8889C127.596 28.8635 145.183 25.3917 162.906 25.7037C171.265 26.378 188.862 26.6143 207.823 17.2744C217.452 12.5171 226.097 5.97753 233.303 -2L0 -2V35.9459Z" fill="url(#paint11_linear_70_696)"/>
<path d="M300.517 -2C302.698 5.39734 305.886 12.4577 309.991 18.9815C319.987 34.8439 333.03 43.6296 340.641 47.9074C363.958 60.3778 381.622 81.3361 390 106.47V-2H300.517Z" fill="url(#paint12_linear_70_696)"/>
<path opacity="0.84" d="M16.5648 21.6989C16.5648 21.6989 18.4945 23.0678 20.1886 21.4707C20.1886 21.4707 18.7098 23.357 20.0728 24.7524C20.0728 24.7524 18.3848 23.4344 16.7862 25.4002C16.7862 25.4002 18.6489 22.8885 16.5648 21.6989Z" fill="#F2F2F2" stroke="#F2F2F2" stroke-miterlimit="10"/>
<path opacity="0.84" d="M76.3933 10.1468C76.3933 10.1468 80.7869 10.8333 82.3103 6.72665C82.3103 6.72665 81.3902 11.147 84.8474 12.355C84.8474 12.355 80.9067 11.5402 79.8505 16.203C79.8505 16.203 80.8986 10.4076 76.3933 10.1468Z" fill="#F2F2F2" stroke="#F2F2F2" stroke-miterlimit="10"/>
<path opacity="0.84" d="M339.881 29.517C339.881 29.517 341.506 31.1365 343.385 29.8817C343.385 29.8817 341.666 31.4502 342.747 33.0024C342.747 33.0024 341.343 31.4705 339.497 33.0941C339.499 33.0941 341.685 31 339.881 29.517Z" fill="#F2F2F2" stroke="#F2F2F2" stroke-miterlimit="10"/>
<path opacity="0.84" d="M369.594 58.6243C369.594 58.6243 372.954 58.7994 373.78 55.587C373.78 55.587 373.431 58.9848 376.129 59.6224C376.129 59.6224 373.1 59.323 372.675 62.9102C372.667 62.9102 373.004 58.4654 369.594 58.6243Z" fill="#F2F2F2" stroke="#F2F2F2" stroke-miterlimit="10"/>
<path opacity="0.84" d="M386.5 80.3655C386.5 80.3655 388.544 82.4861 390.494 81.2537C390.494 81.2537 388.763 82.8833 390.183 84.845C390.183 84.845 388.403 82.8568 386.527 84.5272C386.535 84.5272 388.724 82.3333 386.5 80.3655Z" fill="#F2F2F2" stroke="#F2F2F2" stroke-miterlimit="10"/>
<path opacity="0.84" d="M118.578 4.78131C118.578 4.78131 120.656 3.80557 120.124 1.6076C120.124 1.6076 121.002 3.76483 122.828 3.28001C122.828 3.28001 120.91 4.07446 121.796 6.37223C121.796 6.37223 120.577 3.58964 118.578 4.78131Z" fill="#F2F2F2" stroke="#F2F2F2" stroke-miterlimit="10"/>
<path opacity="0.84" d="M384.059 0.851837C384.059 0.851837 384.948 1.73795 385.976 1.05554C385.976 1.05554 385.036 1.91313 385.627 2.76258C385.627 2.76258 384.859 1.92536 383.849 2.8135C383.849 2.80739 385.046 1.66665 384.059 0.851837Z" fill="#F2F2F2" stroke="#F2F2F2" stroke-miterlimit="10"/>
<path d="M375.273 43.9148L375.499 43.8313L375.273 43.9148Z" fill="#F2F2F2"/>
<path d="M376.013 44.3467L376.086 44.2204C376.151 44.1078 376.186 43.9798 376.185 43.8496C376.19 43.7507 376.168 43.6524 376.123 43.5644C376.093 43.4738 376.04 43.3924 375.97 43.3281C375.88 43.2373 375.768 43.1719 375.645 43.1387L375.501 43.0857L375.273 43.0552L375.046 43.0857L374.843 43.1713L374.668 43.3057L374.534 43.4809L374.449 43.6846L374.418 43.9148C374.413 44.0293 374.439 44.1431 374.491 44.2448C374.511 44.3165 374.549 44.3818 374.601 44.4343C374.639 44.4982 374.692 44.5515 374.755 44.5891C374.808 44.6417 374.873 44.6796 374.944 44.6991C375.085 44.758 375.238 44.7784 375.389 44.7581C375.537 44.7383 375.677 44.68 375.795 44.5891C375.889 44.5291 375.966 44.4455 376.017 44.3467H376.013Z" fill="#F2F2F2"/>
<path d="M385.671 17.4069L385.897 17.3254L385.671 17.4069Z" fill="#F2F2F2"/>
<path d="M385.671 19.4439C386.205 19.4218 386.714 19.2103 387.107 18.847C387.302 18.6699 387.448 18.4444 387.528 18.1931C387.655 17.9513 387.715 17.6799 387.703 17.4068L387.629 16.867C387.537 16.5264 387.357 16.216 387.107 15.9667L386.701 15.6489C386.393 15.4679 386.043 15.3717 385.686 15.3698C385.286 15.364 384.894 15.4809 384.562 15.7048C384.23 15.9287 383.974 16.2489 383.829 16.6226C383.703 16.8641 383.643 17.1346 383.654 17.4068L383.727 17.9487C383.82 18.2889 384 18.5988 384.249 18.847L384.656 19.1668C384.964 19.3471 385.314 19.4426 385.671 19.4439Z" fill="#F2F2F2"/>
<path d="M371.312 2.26147L371.619 2.40407L371.312 2.26147Z" fill="#F2F2F2"/>
<path d="M370.476 2.75037L370.622 2.94389C370.72 3.10998 370.86 3.24704 371.028 3.34111C371.239 3.46539 371.485 3.51599 371.728 3.48499C371.97 3.454 372.196 3.34315 372.369 3.16983C372.542 2.99651 372.653 2.77051 372.684 2.52724C372.715 2.28398 372.665 2.03719 372.541 1.82556C372.445 1.65749 372.306 1.51806 372.138 1.42146C371.97 1.32485 371.78 1.27451 371.587 1.27556L371.323 1.28982C371.151 1.29027 370.982 1.33593 370.833 1.42223C370.691 1.50809 370.571 1.6277 370.486 1.77056C370.399 1.91951 370.353 2.08898 370.354 2.26149C370.353 2.43338 370.399 2.60225 370.486 2.75037H370.476Z" fill="#F2F2F2"/>
<path d="M341.419 38.1439L341.644 38.0604L341.419 38.1439Z" fill="#F2F2F2"/>
<path d="M342.641 38.482L342.676 38.3659L342.715 38.0726C342.721 37.924 342.688 37.7763 342.619 37.6448C342.594 37.5529 342.545 37.4693 342.477 37.4024C342.401 37.2819 342.294 37.1835 342.168 37.1172L342.058 37.0439L341.756 36.9156C341.592 36.8625 341.418 36.8547 341.25 36.8931C341.028 36.919 340.817 37.0057 340.641 37.1437C340.503 37.2323 340.39 37.3551 340.314 37.5002L340.186 37.8037L340.141 38.1439C340.132 38.3136 340.169 38.4826 340.249 38.6328C340.278 38.7392 340.335 38.8361 340.413 38.9139C340.467 39.0108 340.545 39.0916 340.641 39.1481C340.761 39.2611 340.91 39.3399 341.071 39.3763L341.41 39.4232L341.748 39.3763L342.05 39.248C342.195 39.1712 342.317 39.0582 342.406 38.92C342.518 38.7988 342.597 38.6498 342.633 38.4881L342.641 38.482Z" fill="#F2F2F2"/>
<path d="M344.597 21.2691C345.189 21.2691 345.191 20.3443 344.597 20.3443C344.004 20.3443 344.004 21.2691 344.597 21.2691Z" fill="#F2F2F2"/>
<path d="M318.177 14.7363C319.668 14.7363 319.672 12.412 318.177 12.412C316.682 12.412 316.684 14.7363 318.177 14.7363Z" fill="#F2F2F2"/>
<path d="M319.075 21.6296C319.952 21.6296 319.954 20.2607 319.075 20.2607C318.195 20.2607 318.195 21.6296 319.075 21.6296Z" fill="#F2F2F2"/>
<path d="M370.14 53.9004C371.325 53.9004 371.327 52.0548 370.14 52.0548C368.954 52.0548 368.954 53.9004 370.14 53.9004Z" fill="#F2F2F2"/>
<path d="M352.556 41.2219L352.639 41.448L352.556 41.2219Z" fill="#F2F2F2"/>
<path d="M351.892 42.3626L351.989 42.4319C352.177 42.542 352.391 42.5997 352.609 42.5989C352.932 42.5855 353.24 42.4577 353.478 42.2383C353.629 42.0882 353.738 41.9005 353.793 41.6945L353.825 41.5722L353.872 41.2219L353.825 40.8715L353.693 40.5558L353.49 40.2889L353.224 40.0852L352.909 39.9528L352.56 39.9059C352.384 39.8973 352.208 39.936 352.052 40.018C351.943 40.0497 351.843 40.1085 351.762 40.1891C351.664 40.2461 351.583 40.3275 351.526 40.4254C351.446 40.5066 351.387 40.6068 351.355 40.7167C351.297 40.8181 351.266 40.9334 351.266 41.0508C351.236 41.1655 351.236 41.2863 351.266 41.4011C351.266 41.5185 351.297 41.6337 351.355 41.7352C351.387 41.8451 351.446 41.9453 351.526 42.0265C351.618 42.1703 351.745 42.2876 351.896 42.3667L351.892 42.3626Z" fill="#F2F2F2"/>
<path d="M327.886 1.59129C329.623 1.59129 329.625 -1.11389 327.886 -1.11389C326.148 -1.11389 326.148 1.59129 327.886 1.59129Z" fill="#F2F2F2"/>
<path d="M54.0069 7.46612C54.3554 7.48166 54.7018 7.4036 55.0103 7.24001C55.3313 7.1372 55.6199 6.95177 55.8472 6.70223C56.096 6.47306 56.2814 6.18324 56.3855 5.86094C56.548 5.55219 56.6251 5.20543 56.6089 4.85668L56.5175 4.16205C56.3977 3.72646 56.1666 3.32976 55.8472 3.01112L55.3211 2.60371C54.9224 2.36993 54.4687 2.24689 54.0069 2.24723C53.6576 2.23439 53.3112 2.31526 53.0034 2.48149C52.6825 2.58557 52.3941 2.7716 52.1665 3.02131C51.9178 3.24973 51.7324 3.53888 51.6283 3.86057C51.4657 4.17006 51.3886 4.51746 51.4048 4.86686L51.4983 5.55946C51.6169 5.99567 51.8473 6.39315 52.1665 6.71242L52.6926 7.11983C53.0914 7.35361 53.545 7.47665 54.0069 7.47631V7.46612Z" fill="#F2F2F2"/>
<path d="M27.1232 27.1602C29.124 27.1602 29.126 24.0415 27.1232 24.0415C25.1204 24.0415 25.1184 27.1602 27.1232 27.1602Z" fill="#F2F2F2"/>
<path d="M15.6813 30.7413L15.6407 30.6232C15.6362 30.6059 15.6308 30.5889 15.6244 30.5722C15.5814 30.4388 15.493 30.3249 15.3746 30.2504C15.2963 30.2033 15.2068 30.1785 15.1156 30.1785C15.0244 30.1785 14.9348 30.2033 14.8566 30.2504C14.7377 30.3244 14.6491 30.4385 14.6068 30.5722L14.5885 30.6232L14.5499 30.7413C14.5208 30.8414 14.5194 30.9476 14.5459 31.0484C14.5723 31.1493 14.6257 31.241 14.7002 31.3137C14.8093 31.4203 14.9542 31.4821 15.1064 31.4869C15.2587 31.4821 15.4036 31.4203 15.5127 31.3137C15.5863 31.2403 15.639 31.1486 15.6654 31.048C15.6919 30.9474 15.691 30.8415 15.663 30.7413H15.6813Z" fill="#F2F2F2"/>
<path d="M67.2343 47.227C69.1335 47.227 69.1376 44.2672 67.2343 44.2672C65.331 44.2672 65.3331 47.227 67.2343 47.227Z" fill="#F2F2F2"/>
<path d="M76.7812 7.87149C78.1685 7.87149 78.1706 5.70612 76.7812 5.70612C75.3918 5.70612 75.3898 7.87149 76.7812 7.87149Z" fill="#F2F2F2"/>
<path d="M11.9945 18.8756C13.8734 18.8756 13.8754 15.9483 11.9945 15.9483C10.1135 15.9483 10.1115 18.8756 11.9945 18.8756Z" fill="#F2F2F2"/>
<path d="M136.34 4.14371C138.218 4.14371 138.223 1.21445 136.34 1.21445C134.457 1.21445 134.459 4.14371 136.34 4.14371Z" fill="#F2F2F2"/>
<path d="M42.4267 42.3931L42.3516 42.4665C42.2576 42.5554 42.1877 42.6669 42.1485 42.7904C42.0841 42.9095 42.0538 43.0442 42.0611 43.1794L42.0977 43.4483C42.1441 43.6168 42.2329 43.7704 42.3557 43.8944L42.4308 43.9678L42.6542 44.143L42.9203 44.255C43.0634 44.3021 43.2167 44.3085 43.3632 44.2733C43.4616 44.2739 43.5585 44.2479 43.6435 44.198C43.7363 44.1725 43.821 44.1234 43.8892 44.0554C43.9737 44.0067 44.0438 43.9364 44.0924 43.8517C44.1602 43.7832 44.2092 43.6983 44.2346 43.6052C44.304 43.473 44.3369 43.3246 44.33 43.1754L44.2914 42.88L44.1797 42.6131L44.005 42.3891L43.7796 42.2139L43.5155 42.1019C43.3723 42.0556 43.2195 42.0485 43.0727 42.0815C42.9739 42.081 42.877 42.1078 42.7924 42.1589C42.655 42.2025 42.5316 42.2819 42.4349 42.3891L42.4267 42.3931Z" fill="#F2F2F2"/>
<path d="M11.7467 8.06297C11.6289 8.0426 11.637 8.28908 11.7467 8.26667V8.06297Z" fill="#F2F2F2"/>
<path d="M12.2748 7.16668C12.2362 7.14631 12.0575 7.0689 12.0148 7.05464H12.0026L11.7223 7.01797C11.6249 7.02586 11.528 7.03878 11.4319 7.05668H11.4197C11.3933 7.05668 11.182 7.15446 11.1576 7.16872C11.1353 7.18094 10.9545 7.32557 10.9342 7.34186C10.8622 7.41537 10.7944 7.4929 10.7311 7.57409L10.7189 7.59649C10.6127 7.78259 10.5567 7.99321 10.5564 8.2076C10.5567 8.40207 10.6076 8.59308 10.7042 8.76172C10.8007 8.93037 10.9396 9.07079 11.1069 9.16909L11.373 9.28112C11.5658 9.33407 11.7692 9.33407 11.962 9.28112C12.2354 9.19225 12.47 9.0117 12.6262 8.76983C12.7247 8.59889 12.7765 8.40499 12.7765 8.2076C12.7765 8.01022 12.7247 7.81632 12.6262 7.64538L12.612 7.62094L12.7237 7.88372C12.7226 7.8722 12.7226 7.8606 12.7237 7.84909L12.7623 8.14038C12.7603 8.12961 12.7603 8.11856 12.7623 8.10779L12.7136 8.3889V8.37057L12.6059 8.6252C12.6053 8.62114 12.6053 8.61703 12.6059 8.61297L12.4394 8.8289L12.2261 8.9939H12.2383L11.9864 9.09983H12.0047L12.2545 8.9939L12.4576 8.8289L12.6222 8.6252C12.6979 8.50842 12.7407 8.37328 12.7461 8.23409C12.7705 8.14267 12.7705 8.04643 12.7461 7.95501C12.7461 7.862 12.7216 7.77064 12.675 7.6902C12.6511 7.60246 12.6049 7.52244 12.5409 7.45797C12.478 7.34006 12.3865 7.23989 12.2748 7.16668Z" fill="#F2F2F2"/>
<path d="M381.19 69.9502L381.499 70.0928L381.19 69.9502Z" fill="#F2F2F2"/>
<path d="M381.19 71.1439L381.454 71.1154C381.639 71.1157 381.821 71.0664 381.981 70.9728C382.134 70.8821 382.262 70.7538 382.352 70.6C382.446 70.4404 382.496 70.2586 382.496 70.0734C382.496 69.8882 382.446 69.7064 382.352 69.5468L382.218 69.3431C382.115 69.1662 381.968 69.0189 381.792 68.9154C381.607 68.8064 381.396 68.7501 381.182 68.7524C380.92 68.7504 380.664 68.8353 380.455 68.994C380.246 69.1527 380.095 69.3762 380.025 69.6298C379.956 69.8835 379.972 70.153 380.071 70.3966C380.17 70.6402 380.346 70.8442 380.573 70.9768C380.757 71.0859 380.968 71.1422 381.182 71.1398L381.19 71.1439Z" fill="#F2F2F2"/>
<path d="M154.282 20.3259C155.324 20.3259 155.326 18.6963 154.282 18.6963C153.238 18.6963 153.238 20.3259 154.282 20.3259Z" fill="#F2F2F2"/>
<path d="M159.325 18.4009C160.061 18.4009 160.061 17.2541 159.325 17.2541C158.59 17.2541 158.588 18.4009 159.325 18.4009Z" fill="#F2F2F2"/>
<path d="M5.02932 8.57629C5.74432 8.57629 5.74635 7.46204 5.02932 7.46204C4.31229 7.46204 4.31432 8.57629 5.02932 8.57629Z" fill="#F2F2F2"/>
</g>
</g>
<defs>
<linearGradient id="paint0_linear_70_696" x1="-211.482" y1="818.198" x2="642.148" y2="707.634" gradientUnits="userSpaceOnUse">
<stop stop-color="#133250"/>
<stop offset="0.15" stop-color="#103659"/>
<stop offset="0.39" stop-color="#094273"/>
<stop offset="0.57" stop-color="#024C89"/>
<stop offset="0.87" stop-color="#016DB4"/>
<stop offset="0.99" stop-color="#02589A"/>
</linearGradient>
<linearGradient id="paint1_linear_70_696" x1="-306.759" y1="634.025" x2="423.662" y2="539.419" gradientUnits="userSpaceOnUse">
<stop stop-color="#95E3EC"/>
<stop offset="0.24" stop-color="#9CC3D9"/>
<stop offset="0.76" stop-color="#AA82B2"/>
<stop offset="1" stop-color="#AF69A3"/>
</linearGradient>
<linearGradient id="paint2_linear_70_696" x1="-182.45" y1="301.268" x2="302.815" y2="675.243" gradientUnits="userSpaceOnUse">
<stop stop-color="#E32781"/>
<stop offset="0.6" stop-color="#BF5499"/>
<stop offset="1" stop-color="#AA6DA7"/>
</linearGradient>
<linearGradient id="paint3_linear_70_696" x1="203.22" y1="833.997" x2="302.269" y2="845.752" gradientUnits="userSpaceOnUse">
<stop stop-color="#95E3EC"/>
<stop offset="0.44" stop-color="#B091BD"/>
<stop offset="0.82" stop-color="#C64F98"/>
<stop offset="1" stop-color="#CE3689"/>
</linearGradient>
<linearGradient id="paint4_linear_70_696" x1="301.643" y1="701.42" x2="268.423" y2="949.744" gradientUnits="userSpaceOnUse">
<stop stop-color="#95E3EC"/>
<stop offset="0.4" stop-color="#B091BD"/>
<stop offset="0.75" stop-color="#C64F98"/>
<stop offset="0.91" stop-color="#CE3689"/>
</linearGradient>
<linearGradient id="paint5_linear_70_696" x1="238.498" y1="830.896" x2="490.962" y2="798.197" gradientUnits="userSpaceOnUse">
<stop stop-color="#95E3EC"/>
<stop offset="0.44" stop-color="#B091BD"/>
<stop offset="0.82" stop-color="#C64F98"/>
<stop offset="1" stop-color="#CE3689"/>
</linearGradient>
<linearGradient id="paint6_linear_70_696" x1="268.157" y1="721.215" x2="334.845" y2="712.578" gradientUnits="userSpaceOnUse">
<stop stop-color="#95E3EC"/>
<stop offset="0.44" stop-color="#B091BD"/>
<stop offset="0.82" stop-color="#C64F98"/>
<stop offset="1" stop-color="#CE3689"/>
</linearGradient>
<linearGradient id="paint7_linear_70_696" x1="303.853" y1="99.1756" x2="390" y2="99.1756" gradientUnits="userSpaceOnUse">
<stop offset="0.02" stop-color="#87D9E6"/>
<stop offset="0.62" stop-color="#87A9C8"/>
<stop offset="1" stop-color="#8790B8"/>
</linearGradient>
<linearGradient id="paint8_linear_70_696" x1="0" y1="41.4439" x2="237.283" y2="41.4439" gradientUnits="userSpaceOnUse">
<stop stop-color="#51D7E3"/>
<stop offset="0.21" stop-color="#67BDD4"/>
<stop offset="0.75" stop-color="#9E7CAE"/>
<stop offset="1" stop-color="#B4639F"/>
</linearGradient>
<linearGradient id="paint9_linear_70_696" x1="0" y1="53.1304" x2="112.663" y2="53.1304" gradientUnits="userSpaceOnUse">
<stop offset="0.02" stop-color="#BD4390"/>
<stop offset="0.35" stop-color="#CC388A"/>
<stop offset="1" stop-color="#E52580"/>
</linearGradient>
<linearGradient id="paint10_linear_70_696" x1="299.215" y1="87.1265" x2="390" y2="87.1265" gradientUnits="userSpaceOnUse">
<stop offset="0.02" stop-color="#A673AA"/>
<stop offset="0.64" stop-color="#D13E8E"/>
<stop offset="1" stop-color="#E52580"/>
</linearGradient>
<linearGradient id="paint11_linear_70_696" x1="0" y1="27.7448" x2="233.303" y2="27.7448" gradientUnits="userSpaceOnUse">
<stop stop-color="#006FB7"/>
<stop offset="0.12" stop-color="#0168AE"/>
<stop offset="0.32" stop-color="#025494"/>
<stop offset="0.57" stop-color="#05356B"/>
<stop offset="0.58" stop-color="#053369"/>
<stop offset="0.87" stop-color="#113253"/>
<stop offset="0.99" stop-color="#173249"/>
</linearGradient>
<linearGradient id="paint12_linear_70_696" x1="345.258" y1="106.47" x2="345.258" y2="-2" gradientUnits="userSpaceOnUse">
<stop stop-color="#006FB7"/>
<stop offset="0.12" stop-color="#0168AE"/>
<stop offset="0.32" stop-color="#025494"/>
<stop offset="0.57" stop-color="#05356B"/>
<stop offset="0.58" stop-color="#053369"/>
<stop offset="0.87" stop-color="#113253"/>
<stop offset="0.99" stop-color="#173249"/>
</linearGradient>
<clipPath id="clip0_70_696">
<rect width="390" height="844" fill="white"/>
</clipPath>
<clipPath id="clip1_70_696">
<rect width="390" height="220" fill="white" transform="translate(0 -2)"/>
</clipPath>
</defs>
</svg>
