<svg width="1920" height="1080" viewBox="0 0 1920 1080" fill="none" xmlns="http://www.w3.org/2000/svg">
<g clip-path="url(#clip0_812_44)">
<path d="M318.5 1136.5L503.5 923.5L705.5 907.5L840.5 939.5L960 935.38L1055.5 881.5L1116.37 734.7L1262.34 600.1L1406.37 371.64L1451.5 175.5L1340.5 20.5L1307.98 -61.89L2004.5 -49.5L2070.79 1080L1003.5 1129.5" fill="url(#paint0_linear_812_44)"/>
<path opacity="0.3" d="M1168.03 1097.03C1218.23 1082.76 1252.57 1048.83 1244.73 1021.23C1236.89 993.629 1189.84 982.819 1139.63 997.082C1089.43 1011.34 1055.09 1045.28 1062.93 1072.88C1070.77 1100.48 1117.82 1111.29 1168.03 1097.03Z" stroke="white" stroke-width="4" stroke-miterlimit="10"/>
<path opacity="0.3" d="M1171.52 1116.27C1253.44 1093 1310.5 1041.22 1298.97 1000.62C1287.43 960.019 1211.67 945.974 1129.75 969.248C1047.83 992.522 990.774 1044.3 1002.31 1084.9C1013.84 1125.5 1089.6 1139.54 1171.52 1116.27Z" stroke="white" stroke-width="4" stroke-miterlimit="10"/>
<path opacity="0.3" d="M1163.24 1143.77C1263.54 1108.37 1329.68 1036.69 1310.97 983.659C1292.25 930.632 1195.77 916.342 1095.47 951.742C995.167 987.142 929.029 1058.83 947.745 1111.85C966.46 1164.88 1062.94 1179.17 1163.24 1143.77Z" stroke="white" stroke-width="4" stroke-miterlimit="10"/>
<path opacity="0.3" d="M1186.1 1175.21C1323.5 1121.34 1411.95 1019.19 1383.67 947.055C1355.39 874.922 1221.08 860.119 1083.68 913.992C946.282 967.865 857.828 1070.01 886.111 1142.15C914.394 1214.28 1048.7 1229.08 1186.1 1175.21Z" stroke="white" stroke-width="4" stroke-miterlimit="10"/>
<path opacity="0.3" d="M1952.38 904.2C1974.53 885.966 1965.6 838.518 1932.43 798.224C1899.26 757.929 1854.42 740.045 1832.26 758.279C1810.11 776.514 1819.04 823.961 1852.21 864.256C1885.38 904.551 1930.23 922.435 1952.38 904.2Z" stroke="white" stroke-width="4" stroke-miterlimit="10"/>
<path opacity="0.5" d="M1987.68 954.939C2020.26 928.116 2002.8 853.07 1948.68 787.318C1894.55 721.567 1824.26 690.01 1791.68 716.833C1759.09 743.657 1776.55 818.703 1830.67 884.454C1884.8 950.205 1955.09 981.763 1987.68 954.939Z" stroke="white" stroke-width="4" stroke-miterlimit="10"/>
<path opacity="0.3" d="M2034.15 994.267C2075.25 955.887 2049.72 861.754 1977.13 784.014C1904.53 706.275 1812.37 674.368 1771.27 712.748C1730.17 751.128 1755.7 845.261 1828.29 923C1900.89 1000.74 1993.05 1032.65 2034.15 994.267Z" stroke="white" stroke-width="4" stroke-miterlimit="10"/>
<path opacity="0.3" d="M2086.8 1038.67C2141.59 983.887 2101.4 854.876 1997.05 750.52C1892.69 646.164 1763.68 605.98 1708.89 660.767C1654.11 715.554 1694.29 844.564 1798.65 948.92C1903 1053.28 2032.01 1093.46 2086.8 1038.67Z" stroke="white" stroke-width="4" stroke-miterlimit="10"/>
<path d="M431.5 1080.5C431.5 1080.5 548.5 848.5 783.5 933.5C806.91 942.37 882.87 967.75 971.03 938.36C1093.81 897.41 1139 784 1145 768C1152.59 751.583 1161.82 735.974 1172.54 721.41C1239.69 630.33 1347 607 1390.62 600.1C1399.21 582.31 1407.77 563.3 1416.08 543.1C1425.22 520.85 1433.14 499.41 1440 479.01C1443.16 443.052 1448.5 407.319 1456 372.01C1480 259.14 1510 226.45 1507.87 171.07C1506.3 129.34 1486.37 70.29 1399.5 0.5H1185.5L1298.5 97.5L1355.06 183.21L1372.5 219.5L1389.09 351.27L1347.81 500.32L1320.5 552.5L1185.5 600.1L1098.5 687.5L1064.5 829.5L1010.5 898.5L971.32 921.6L944.5 927.5L852.5 930.5L702.5 880.5L492.5 825.5L318.5 851.13L194.5 917.5L25.6802 1080L431.5 1080.5Z" fill="url(#paint1_linear_812_44)"/>
<path d="M0 1080C33.9 1030.12 96.64 953.08 199.25 894.88C403.72 778.88 611.55 825.57 664 839C673.44 842.43 688.52 848 707 855C742.83 868.64 768.28 879.1 773 881C812.36 896.85 915.84 938.51 986.25 900.47C1060.74 860.22 1067.25 747.47 1068 731C1069.07 717.27 1075.9 647.3 1136.54 594.76C1194.21 544.76 1260.26 545.48 1275 546C1275 546 1491 259.32 1275 108.66C1275 108.66 1131 -14 1046 -44C1046 -44 1454.47 12.91 1434.24 267C1434.24 267 1414.11 425.07 1333.05 528.56C1337.05 546.36 1333.36 558.39 1330.93 564.25C1317.41 596.78 1273.23 604.68 1260 607.04C1252.74 608.334 1245.38 609.003 1238 609.04C1228.86 609.45 1162.52 613.53 1119.56 670.81C1083.49 718.9 1088.56 771.55 1090 783.04C1085.12 835.89 1064.41 865.35 1052.18 879.36C990.89 949.55 870.89 943.23 804 925C764.91 914.34 748 900.73 682 885C651.37 877.701 620.308 872.357 589 869C552.452 865.028 515.549 865.666 479.16 870.9C298 897.18 185.77 1031.58 148.74 1080.5" fill="url(#paint2_linear_812_44)"/>
<path d="M1150.11 1080C1150.11 1080 1213.32 890.66 1520.66 812.83C1520.66 812.83 1796.19 735 1845.6 540.5C1845.57 549.689 1845.04 558.87 1844 568C1837.59 624.3 1813.44 664 1801 684C1769.88 734 1733 762.24 1716 775C1697.58 788.84 1681.72 797.56 1650 815C1631.54 825.15 1594 845.64 1556 859C1549.44 861.3 1531.74 867.31 1510 874C1499.2 877.32 1492.66 879.2 1490 880C1454.85 890.6 1422.37 917.63 1415.15 923.44C1376.43 954.62 1335.15 1004.75 1324.74 1080.5L1150.11 1080Z" fill="url(#paint3_linear_812_44)"/>
<path d="M1757 399C1773.43 375.82 1802.17 365 1828.79 371.81C1858.28 379.31 1879.47 406.92 1879.3 438.6C1879.3 438.6 1923 573 1807 761C1807 761 1674 890 1746 1080.5L1709.24 1080C1709.24 1080 1624 903 1786 756C1786 756 1537.66 860 1664.83 1080L1655.64 1080.5C1655.64 1080.5 1580.17 1004.77 1628.59 863.38C1628.59 863.38 1527.76 932 1612.38 1080L1324.74 1080.5C1324.74 1080.5 1342.94 922.42 1507.97 874.21C1507.97 874.21 1833.19 792 1845.6 540.5C1864.85 490.38 1852.51 438.61 1818.87 414.08C1795.47 397 1768.31 397.91 1757 399Z" fill="url(#paint4_linear_812_44)"/>
<path d="M1808.83 1080C1777.16 1037.36 1769.01 1000.41 1766.66 977.88C1761.66 929.49 1780.35 883.67 1818 794C1832.9 758.5 1846.44 729.66 1856 710C1885.13 650.07 1897.11 607.67 1902.27 555.88C1903.59 542.63 1916.85 388.26 1821 307C1816.79 303.43 1813.19 300.7 1810.88 299C1806.47 296.65 1741.36 261.39 1683.68 297.42C1651.07 317.8 1625 363.13 1625 456C1627.32 480.242 1633.74 503.914 1644 526C1611.53 432.44 1640.58 343 1699 312.21C1736.34 292.55 1777.32 301.21 1796.53 306.84C1796.53 306.84 1622.96 298 1639.96 559C1644.95 590.111 1645.29 621.79 1640.96 653C1649.87 643.883 1657.3 633.422 1662.96 622C1676.1 595.22 1672.96 575.43 1681.96 524C1684.27 510.81 1686.55 500.24 1687.96 494C1689.39 478.481 1693.96 463.416 1701.4 449.72C1718.74 417.93 1746.4 403.72 1756.96 399C1799.57 365.51 1825.18 372.11 1831.83 374.3C1889.52 393.3 1886.52 529.64 1885.74 540.5C1885.44 544.71 1884.91 550.76 1883.96 558C1881.24 578.079 1876.56 597.842 1869.96 617C1853.26 667.79 1815.51 736.21 1813.96 739C1793.12 766.192 1774.4 794.943 1757.96 825C1746.2 846.49 1736.24 867.5 1731.96 878C1703.82 947.11 1729.19 1034.75 1745.96 1080.5L1808.83 1080Z" fill="url(#paint5_linear_812_44)"/>
<path d="M1442 574C1442 574 1559.87 769.83 1644.44 609.42C1644.44 609.42 1646.7 634.06 1641.85 651.53C1641.85 651.53 1553 771 1412 598C1271 425 1442 574 1442 574Z" fill="url(#paint6_linear_812_44)"/>
<path d="M1288.28 577.41L1299.38 681.53C1299.38 681.53 1383.08 724.53 1421.84 725.72L1345.05 653.14L1354.93 577.34L1288.28 577.41Z" fill="#3D8DC8"/>
<path d="M1406.37 464.39L1519.37 475.13C1519.37 475.13 1549.49 513.39 1554.43 592.64L1502.43 525.83L1430.89 524.76L1406.37 464.39Z" fill="#3F94C7"/>
<path d="M1145.56 403.54C1145.56 403.54 1185.06 334.66 1236.41 315.4C1236.41 315.4 1407.26 386.5 1467.26 564.5L1404.91 635.86C1396.4 633.86 1211.24 590.68 1145.56 403.54Z" fill="#C8CDC3"/>
<mask id="mask0_812_44" style="mask-type:luminance" maskUnits="userSpaceOnUse" x="1145" y="315" width="323" height="321">
<path d="M1145.56 403.54C1145.56 403.54 1185.06 334.66 1236.41 315.4C1236.41 315.4 1407.26 386.5 1467.26 564.5L1404.91 635.86C1396.4 633.86 1211.24 590.68 1145.56 403.54Z" fill="white"/>
</mask>
<g mask="url(#mask0_812_44)">
<path d="M1215.52 330.46C1226.83 335.09 1237.16 341.88 1247.11 348.89C1257.06 355.9 1266.84 362.58 1276.57 369.63C1295.9 383.63 1313.45 397.75 1332.05 414.03C1350.41 430.025 1367.76 447.144 1384 465.29C1400.57 483.9 1412.44 498.9 1426 519.29C1440.77 541.401 1453.47 564.835 1463.91 589.29C1467.48 597.67 1480.46 600.15 1487.64 595.51C1496.36 589.9 1497.64 580.75 1493.87 571.78C1454.17 478.52 1381.59 404.02 1299.1 347.08C1275.21 330.59 1250.26 314.27 1222.65 304.72C1215.83 302.36 1208.04 307.41 1206.22 314.05C1204.11 321.7 1208.84 327.74 1215.55 330.48L1215.52 330.46Z" fill="#808080"/>
</g>
<path d="M1145.56 403.54C1145.56 403.54 1087.79 249.54 1236.41 315.4C1236.41 315.4 1189.51 382.55 1145.56 403.54Z" fill="#5567AE"/>
<mask id="mask1_812_44" style="mask-type:luminance" maskUnits="userSpaceOnUse" x="1134" y="299" width="103" height="105">
<path d="M1145.56 403.54C1145.56 403.54 1087.79 249.54 1236.41 315.4C1236.41 315.4 1189.51 382.55 1145.56 403.54Z" fill="white"/>
</mask>
<g mask="url(#mask1_812_44)">
<path d="M1117.53 299.72C1126.7 306.08 1139.2 306.41 1149.99 308.31C1161.44 310.31 1172.73 312.93 1183.99 315.65C1206.63 321.092 1228.86 328.109 1250.52 336.65C1258.52 339.78 1274.95 350.13 1282.01 340.98C1286.11 335.68 1281.01 329.51 1276.63 326.54C1271.7 323.17 1265.63 321.19 1260.14 318.93C1238.83 310.343 1216.86 303.504 1194.44 298.48C1181.69 295.684 1168.81 293.544 1155.84 292.07C1149.24 291.25 1142.46 290.2 1135.84 290.2C1132.84 290.2 1129.73 290.31 1126.7 290.51C1123.16 290.74 1120.7 291.84 1117.52 293.41C1114.86 294.72 1115.43 298.3 1117.52 299.75L1117.53 299.72Z" fill="#1B1464"/>
<path d="M1120.28 309.86C1150.28 306.86 1180.07 316.86 1207.54 327.8C1221.24 333.179 1234.63 339.298 1247.67 346.13C1253.98 349.463 1260.19 352.993 1266.3 356.72C1272.67 360.59 1279.83 365.07 1286.97 367.26C1294.11 369.45 1297.41 360.79 1293.58 355.9C1288.87 349.9 1281 344.79 1274.58 340.9C1267.71 336.72 1260.71 332.773 1253.58 329.06C1239.72 321.757 1225.38 315.409 1210.65 310.06C1195.97 304.81 1180.9 300.06 1165.47 297.68C1157.61 296.357 1149.65 295.774 1141.68 295.94C1133.16 296.25 1125.88 298.51 1118.24 302.16C1114.62 303.89 1116.24 310.29 1120.33 309.88L1120.28 309.86Z" fill="#1B1464"/>
<path d="M1125.82 297.59C1132.95 299.89 1139.82 302.98 1146.9 305.47C1153.42 307.76 1159.9 310.08 1166.48 312.34C1179.97 316.936 1193.16 322.342 1206 328.53C1218.89 334.8 1231.6 341.69 1244 348.89C1250 352.35 1255.82 356.01 1261.67 359.66C1267.36 363.22 1274.46 369.8 1281.58 369.09C1285.68 368.68 1288.15 365.59 1287.38 361.47C1286.02 354.26 1277.43 349.47 1271.96 345.47C1265.96 341.03 1259.66 336.93 1253.29 333C1240.35 325.097 1226.81 318.213 1212.8 312.41C1199.06 306.552 1185.01 301.471 1170.7 297.19C1163.5 295.1 1156.19 293.431 1148.8 292.19C1141.43 290.94 1134.28 290.83 1126.86 290.19C1122.48 289.82 1122.01 296.31 1125.86 297.56L1125.82 297.59Z" fill="#1B1464"/>
</g>
<path d="M1262.34 484.23C1287.54 484.23 1307.97 463.801 1307.97 438.6C1307.97 413.399 1287.54 392.97 1262.34 392.97C1237.14 392.97 1216.71 413.399 1216.71 438.6C1216.71 463.801 1237.14 484.23 1262.34 484.23Z" fill="#5999D0"/>
<mask id="mask2_812_44" style="mask-type:luminance" maskUnits="userSpaceOnUse" x="1216" y="392" width="92" height="93">
<path d="M1262.34 484.23C1287.54 484.23 1307.97 463.801 1307.97 438.6C1307.97 413.399 1287.54 392.97 1262.34 392.97C1237.14 392.97 1216.71 413.399 1216.71 438.6C1216.71 463.801 1237.14 484.23 1262.34 484.23Z" fill="white"/>
</mask>
<g mask="url(#mask2_812_44)">
<path d="M1214.16 400C1212.52 403.12 1210.25 405.55 1208.58 408.64C1206.7 412.432 1205.6 416.564 1205.35 420.79C1204.63 427.958 1205.15 435.196 1206.87 442.19C1210.67 456.853 1218.44 470.185 1229.32 480.72C1241.24 492.22 1256.38 500.31 1272.24 504.84C1288.9 509.6 1306.79 511.84 1323.82 508.41C1329.38 507.3 1333.4 501.26 1333.4 495.83C1333.4 490.6 1329.4 484.06 1323.82 483.25C1309.12 481.1 1296.62 481.25 1283.09 477.88C1276.86 476.379 1270.77 474.328 1264.9 471.75C1261.96 470.32 1259.06 468.82 1256.27 467.12C1254.87 466.27 1253.49 465.38 1252.15 464.45C1251.25 463.857 1250.39 463.213 1249.57 462.52C1240.84 455.19 1233.93 446.47 1230.13 436.52C1228.03 431.471 1226.55 426.186 1225.73 420.78C1225.36 417.65 1225.22 414.45 1224.67 411.34C1224.45 410.08 1224.07 408.84 1223.83 407.58C1223.59 406.32 1223.33 406 1223.34 406.92C1223.49 405.97 1223.66 405.03 1223.87 404.09C1224.99 398.49 1217.12 394.36 1214.16 399.99V400Z" fill="#0071BC"/>
</g>
<path d="M1347.81 519.69L1405.02 605.65L1520.66 680.51L1434.95 573.82L1347.81 519.69Z" fill="#3F94C7"/>
<path opacity="0.6" d="M1714.62 100.715C1736.77 82.4807 1727.84 35.0333 1694.67 -5.26163C1661.5 -45.5566 1616.65 -63.4402 1594.5 -45.2059C1572.35 -26.9715 1581.28 20.476 1614.45 60.7709C1647.62 101.066 1692.47 118.949 1714.62 100.715Z" stroke="white" stroke-width="4" stroke-miterlimit="10"/>
<path opacity="0.3" d="M1749.91 151.444C1782.5 124.621 1765.04 49.5744 1710.91 -16.1768C1656.79 -81.9279 1586.5 -113.485 1553.91 -86.6618C1521.33 -59.8384 1538.79 15.208 1592.91 80.9591C1647.03 146.71 1717.33 178.267 1749.91 151.444Z" stroke="white" stroke-width="4" stroke-miterlimit="10"/>
<path opacity="0.4" d="M1796.42 190.726C1837.52 152.346 1811.99 58.2132 1739.39 -19.5262C1666.8 -97.2657 1574.63 -129.173 1533.53 -90.7929C1492.43 -52.413 1517.96 41.7204 1590.56 119.46C1663.15 197.199 1755.32 229.106 1796.42 190.726Z" stroke="white" stroke-width="4" stroke-miterlimit="10"/>
<path opacity="0.3" d="M1849.09 235.128C1903.87 180.341 1863.69 51.3309 1759.33 -53.025C1654.98 -157.381 1525.97 -197.565 1471.18 -142.778C1416.39 -87.9914 1456.58 41.0191 1560.93 145.375C1665.29 249.731 1794.3 289.915 1849.09 235.128Z" stroke="white" stroke-width="4" stroke-miterlimit="10"/>
<path d="M1015.51 1008.94C1023.75 1008.94 1023.77 996.13 1015.51 996.13C1007.25 996.13 1007.25 1008.94 1015.51 1008.94Z" fill="#F2F2F2"/>
<path d="M996.25 969.81C1002.99 969.81 1003 959.34 996.25 959.34C989.5 959.34 989.51 969.81 996.25 969.81Z" fill="#F2F2F2"/>
<path d="M1160.22 943.75L1158.69 944.31L1160.22 943.75Z" fill="#F2F2F2"/>
<path d="M1160.22 949.29C1161.68 949.247 1163.06 948.65 1164.09 947.62C1165.12 946.59 1165.72 945.206 1165.76 943.75L1165.56 942.27C1165.31 941.344 1164.82 940.499 1164.14 939.82C1163.08 938.804 1161.68 938.226 1160.22 938.2C1158.76 938.24 1157.37 938.838 1156.34 939.87C1155.31 940.902 1154.71 942.291 1154.67 943.75L1154.87 945.22C1155.12 946.146 1155.61 946.99 1156.29 947.67C1157.35 948.688 1158.75 949.267 1160.22 949.29Z" fill="#F2F2F2"/>
<path d="M1119.27 954.22C1124.39 954.22 1124.4 946.22 1119.27 946.22C1114.14 946.22 1114.13 954.22 1119.27 954.22Z" fill="#F2F2F2"/>
<path d="M1144.86 889.63C1152.7 889.63 1152.71 877.44 1144.86 877.44C1137.01 877.44 1137 889.63 1144.86 889.63Z" fill="#F2F2F2"/>
<path d="M1199.58 904.89L1198.06 905.45L1199.58 904.89Z" fill="#F2F2F2"/>
<path d="M1198.2 902.53L1197.01 903.21C1196.49 903.524 1196.11 904.014 1195.93 904.589C1195.74 905.163 1195.77 905.785 1196.01 906.34C1196.2 906.84 1196.55 907.261 1197.01 907.54C1197.6 907.856 1198.29 907.945 1198.94 907.79L1200.31 907.53C1201 907.338 1201.59 906.887 1201.95 906.27C1202.17 905.906 1202.29 905.494 1202.32 905.071C1202.34 904.648 1202.26 904.225 1202.08 903.84C1201.93 903.483 1201.71 903.162 1201.42 902.898C1201.14 902.634 1200.8 902.433 1200.44 902.309C1200.07 902.185 1199.68 902.141 1199.29 902.179C1198.91 902.217 1198.54 902.337 1198.2 902.53Z" fill="#F2F2F2"/>
<path d="M1186.2 967.07L1184.67 967.64L1186.2 967.07Z" fill="#F2F2F2"/>
<path d="M1183.32 964.2L1182.44 965.11C1182.02 965.538 1181.71 966.064 1181.54 966.64C1181.35 967.389 1181.41 968.181 1181.72 968.89C1181.95 969.441 1182.32 969.921 1182.79 970.28C1183 970.493 1183.26 970.648 1183.55 970.73C1183.96 970.941 1184.43 971.041 1184.89 971.02L1186.2 971.14C1186.9 971.127 1187.59 970.934 1188.2 970.58C1188.8 970.226 1189.3 969.723 1189.65 969.12C1190.01 968.514 1190.2 967.824 1190.21 967.12C1190.23 966.578 1190.11 966.04 1189.86 965.56C1189.69 965.06 1189.41 964.609 1189.02 964.25C1188.26 963.489 1187.22 963.061 1186.15 963.061C1185.07 963.061 1184.03 963.489 1183.27 964.25L1183.32 964.2Z" fill="#F2F2F2"/>
<path d="M940.34 1000.89L941.34 998.8L940.34 1000.89Z" fill="#F2F2F2"/>
<path d="M944.1 1001.93L944.92 999.93C945.066 999.43 945.106 998.905 945.039 998.389C944.972 997.873 944.799 997.376 944.53 996.93C944.096 996.231 943.457 995.683 942.7 995.36C941.849 994.994 940.893 994.952 940.013 995.241C939.133 995.53 938.389 996.131 937.92 996.93L936.92 998.83C936.433 999.75 936.294 1000.82 936.53 1001.83C936.683 1002.4 936.967 1002.92 937.36 1003.36C937.752 1003.8 938.242 1004.14 938.79 1004.36C939.262 1004.57 939.773 1004.68 940.29 1004.68C940.807 1004.68 941.318 1004.57 941.79 1004.36C942.272 1004.2 942.705 1003.92 943.05 1003.55C943.529 1003.07 943.874 1002.48 944.05 1001.83L944.1 1001.93Z" fill="#F2F2F2"/>
<path opacity="0.84" d="M1027.45 970.53C1027.45 970.53 1023.06 966.19 1018.02 969.58C1018.02 969.58 1022.62 965.36 1019.7 961.2C1019.7 961.2 1023.49 965.3 1028.44 960.92C1028.44 960.92 1022.58 966.59 1027.45 970.53Z" fill="#F2F2F2" stroke="#F2F2F2" stroke-miterlimit="10"/>
<path opacity="0.84" d="M989.58 1008.35C989.58 1008.35 992.41 1000.82 985.71 996.62C985.71 996.62 993.18 999.87 996.59 994.19C996.59 994.19 993.71 1000.87 1001.59 1004.45C1001.55 1004.45 991.7 1000.47 989.58 1008.35Z" fill="#F2F2F2" stroke="#F2F2F2" stroke-miterlimit="10"/>
<path opacity="0.84" d="M1141.29 934.58C1141.29 934.58 1135.45 922.58 1122.76 925.9C1122.76 925.9 1135.17 920.6 1132.2 910.04C1132.2 910.04 1136.98 921.1 1150.2 915.74C1150.2 915.74 1134.2 923.07 1141.29 934.58Z" fill="#F2F2F2" stroke="#F2F2F2" stroke-miterlimit="10"/>
<path d="M644.56 1009.51C652.8 1009.51 652.82 996.7 644.56 996.7C636.3 996.7 636.3 1009.51 644.56 1009.51Z" fill="#F2F2F2"/>
<path d="M650.76 966.23C657.49 966.23 657.5 955.76 650.76 955.76C644.02 955.76 644.01 966.23 650.76 966.23Z" fill="#F2F2F2"/>
<path d="M796.65 1038.67L795.08 1038.25L796.65 1038.67Z" fill="#F2F2F2"/>
<path d="M796.65 1044.22C797.39 1044.25 798.126 1044.09 798.78 1043.74C799.47 1043.53 800.088 1043.13 800.57 1042.59C801.565 1041.52 802.14 1040.13 802.19 1038.67C802.187 1037.2 801.605 1035.79 800.57 1034.75C799.518 1033.73 798.116 1033.15 796.65 1033.13C795.908 1033.1 795.17 1033.26 794.51 1033.6C793.826 1033.83 793.21 1034.22 792.72 1034.75C791.74 1035.83 791.167 1037.21 791.1 1038.67C791.101 1040.14 791.683 1041.55 792.72 1042.59C793.775 1043.61 795.18 1044.2 796.65 1044.22Z" fill="#F2F2F2"/>
<path d="M759.47 1024.31C764.59 1024.31 764.6 1016.31 759.47 1016.31C754.34 1016.31 754.33 1024.31 759.47 1024.31Z" fill="#F2F2F2"/>
<path d="M851.23 1029.68L849.65 1029.26L851.23 1029.68Z" fill="#F2F2F2"/>
<path d="M851.23 1027L850.32 1026.91C850.18 1026.9 850.04 1026.9 849.9 1026.91C849.213 1026.92 848.556 1027.19 848.07 1027.68C847.765 1027.98 847.547 1028.36 847.438 1028.77C847.329 1029.18 847.333 1029.62 847.45 1030.03C847.629 1030.68 848.052 1031.24 848.63 1031.59C848.756 1031.66 848.886 1031.71 849.02 1031.76L849.85 1032.14C850.269 1032.38 850.746 1032.51 851.23 1032.51C851.714 1032.51 852.19 1032.38 852.61 1032.14C853.023 1031.9 853.365 1031.55 853.603 1031.14C853.841 1030.72 853.967 1030.25 853.967 1029.78C853.967 1029.3 853.841 1028.83 853.603 1028.41C853.365 1028 853.023 1027.65 852.61 1027.41C852.19 1027.17 851.714 1027.04 851.23 1027.04V1027Z" fill="#F2F2F2"/>
<path d="M804.39 1072.72L802.81 1072.3L804.39 1072.72Z" fill="#F2F2F2"/>
<path d="M803.31 1068.8L802.13 1069.01C801.545 1069.17 801.012 1069.49 800.586 1069.92C800.159 1070.35 799.853 1070.89 799.699 1071.48C799.544 1072.06 799.546 1072.68 799.704 1073.27C799.862 1073.85 800.171 1074.39 800.6 1074.82L801.51 1075.59C802.01 1076.09 802.63 1076.45 803.31 1076.64C804.018 1076.83 804.763 1076.83 805.47 1076.64C806.326 1076.4 807.08 1075.89 807.617 1075.18C808.155 1074.47 808.445 1073.61 808.445 1072.72C808.445 1071.83 808.155 1070.97 807.617 1070.26C807.08 1069.55 806.326 1069.04 805.47 1068.8C804.763 1068.61 804.018 1068.61 803.31 1068.8Z" fill="#F2F2F2"/>
<path d="M584.13 958.35L586.13 957.2L584.13 958.35Z" fill="#F2F2F2"/>
<path d="M586.11 961.73L587.92 960.58C588.77 960.065 589.397 959.252 589.68 958.3C589.883 957.566 589.863 956.788 589.622 956.066C589.381 955.344 588.93 954.71 588.326 954.245C587.723 953.78 586.995 953.506 586.235 953.457C585.475 953.408 584.718 953.587 584.06 953.97L582.16 954.97C581.268 955.494 580.619 956.35 580.357 957.351C580.094 958.352 580.239 959.416 580.76 960.31C581.282 961.186 582.119 961.83 583.1 962.11C584.113 962.378 585.19 962.238 586.1 961.72L586.11 961.73Z" fill="#F2F2F2"/>
<path opacity="0.84" d="M620 992.88C620 992.88 626.66 988.37 623.62 981.07C623.62 981.07 627.84 988.07 633.9 985.36C633.9 985.36 627.69 989.16 632.02 996.61C632.05 996.61 626.31 987.67 620 992.88Z" fill="#F2F2F2" stroke="#F2F2F2" stroke-miterlimit="10"/>
<path opacity="0.84" d="M1634.67 259.46C1634.67 259.46 1625.67 266.84 1631.02 276.95C1631.02 276.95 1624.02 267.48 1615.64 272.12C1615.64 272.12 1624.08 265.84 1616.86 255.68C1616.86 255.68 1626.32 267.8 1634.67 259.46Z" fill="#F2F2F2" stroke="#F2F2F2" stroke-miterlimit="10"/>
<path opacity="0.84" d="M1531 288.51C1531 288.51 1522 308.46 1539.46 321.05C1539.46 321.05 1519.74 310.92 1509.46 325.76C1509.46 325.76 1518.46 308.1 1497.78 297.02C1497.77 297 1523.84 309.55 1531 288.51Z" fill="#F2F2F2" stroke="#F2F2F2" stroke-miterlimit="10"/>
<path opacity="0.84" d="M1503.23 390.48C1503.23 390.48 1505.13 401.61 1516.23 401.95C1516.23 401.95 1504.88 403.31 1504.78 412.61C1504.78 412.61 1503.52 402.47 1491.5 403.69C1491.5 403.69 1506.25 401.53 1503.23 390.48Z" fill="#F2F2F2" stroke="#F2F2F2" stroke-miterlimit="10"/>
<path d="M1866.7 258.18L1866.39 259.32L1866.7 258.18Z" fill="#F2F2F2"/>
<path d="M1866.7 271C1870.07 270.865 1873.28 269.536 1875.76 267.25C1876.99 266.131 1877.9 264.711 1878.41 263.13C1879.21 261.61 1879.59 259.906 1879.52 258.19L1879.06 254.79C1878.47 252.65 1877.33 250.699 1875.76 249.13L1873.17 247.13C1871.21 245.981 1868.97 245.377 1866.7 245.38C1864.18 245.341 1861.7 246.075 1859.61 247.484C1857.52 248.893 1855.9 250.908 1854.99 253.26C1854.19 254.776 1853.81 256.478 1853.89 258.19L1854.35 261.6C1854.94 263.737 1856.07 265.684 1857.64 267.25L1860.24 269.25C1862.2 270.396 1864.43 270.997 1866.7 270.99V271Z" fill="#F2F2F2"/>
<path d="M1602.41 312.14C1612.27 312.14 1612.28 296.83 1602.41 296.83C1592.54 296.83 1592.55 312.14 1602.41 312.14Z" fill="#F2F2F2"/>
<path d="M1593 240.59L1594.14 240.9L1593 240.59Z" fill="#F2F2F2"/>
<path d="M1593 243.48H1593.61H1593.88C1594.34 243.482 1594.79 243.357 1595.19 243.12C1595.38 242.99 1595.57 242.84 1595.75 242.69C1596.07 242.375 1596.3 241.981 1596.41 241.548C1596.52 241.116 1596.52 240.661 1596.4 240.23C1596.32 240.004 1596.23 239.784 1596.12 239.57C1595.9 239.185 1595.58 238.865 1595.19 238.64L1594.97 238.49L1594.46 238.14C1594.02 237.878 1593.51 237.739 1593 237.739C1592.49 237.739 1591.98 237.878 1591.54 238.14C1590.9 238.534 1590.43 239.15 1590.21 239.87C1590.01 240.623 1590.12 241.422 1590.5 242.1C1590.75 242.538 1591.12 242.9 1591.56 243.151C1592 243.402 1592.49 243.533 1593 243.53V243.48Z" fill="#F2F2F2"/>
<path d="M1727.38 182.28C1736.73 182.28 1736.74 167.75 1727.38 167.75C1718.02 167.75 1718.01 182.28 1727.38 182.28Z" fill="#F2F2F2"/>
<path d="M1541.68 343.35C1548.51 343.35 1548.52 332.72 1541.68 332.72C1534.84 332.72 1534.83 343.35 1541.68 343.35Z" fill="#F2F2F2"/>
<path d="M1660.94 250.53C1670.19 250.53 1670.2 236.16 1660.94 236.16C1651.68 236.16 1651.67 250.53 1660.94 250.53Z" fill="#F2F2F2"/>
<path d="M1489.81 440.08C1499.06 440.08 1499.07 425.7 1489.81 425.7C1480.55 425.7 1480.54 440.08 1489.81 440.08Z" fill="#F2F2F2"/>
<path d="M1498.18 357.94L1498.5 356.8L1498.18 357.94Z" fill="#F2F2F2"/>
<path d="M1502.9 355.18L1502.66 354.74C1502.36 354.174 1501.92 353.695 1501.38 353.35C1500.91 352.91 1500.32 352.603 1499.69 352.46L1498.38 352.28C1497.5 352.278 1496.63 352.513 1495.87 352.96L1495.42 353.22L1494.32 354.08L1493.46 355.18C1493.07 355.778 1492.85 356.468 1492.81 357.18C1492.68 357.655 1492.68 358.155 1492.81 358.63C1493 360.045 1493.74 361.328 1494.87 362.2C1495.39 362.687 1496.04 363.031 1496.73 363.2L1498.18 363.39L1499.64 363.2L1500.94 362.64L1502.05 361.79L1502.9 360.68C1503.29 360.083 1503.52 359.393 1503.55 358.68C1503.68 358.205 1503.68 357.705 1503.55 357.23C1503.51 356.518 1503.29 355.828 1502.9 355.23V355.18Z" fill="#F2F2F2"/>
<path d="M1714.49 225.27C1718.01 225.27 1718.02 219.8 1714.49 219.8C1710.96 219.8 1710.97 225.27 1714.49 225.27Z" fill="#F2F2F2"/>
<path d="M1726.58 685.64C1733.31 685.64 1733.32 675.17 1726.58 675.17C1719.84 675.17 1719.83 685.64 1726.58 685.64Z" fill="#F2F2F2"/>
<path d="M1565.06 715.47L1566.53 714.78L1565.06 715.47Z" fill="#F2F2F2"/>
<path d="M1565.06 721C1566.52 720.935 1567.91 720.358 1568.98 719.37C1569.97 718.301 1570.55 716.909 1570.6 715.45L1570.41 713.98C1570.15 713.054 1569.66 712.21 1568.98 711.53C1567.93 710.507 1566.53 709.924 1565.06 709.9C1564.32 709.874 1563.58 710.039 1562.92 710.38C1562.24 710.604 1561.63 711.001 1561.14 711.53C1560.61 712.011 1560.21 712.625 1559.99 713.31C1559.64 713.968 1559.48 714.707 1559.51 715.45L1559.71 716.93C1559.96 717.855 1560.46 718.697 1561.14 719.37C1562.19 720.396 1563.59 720.98 1565.06 721Z" fill="#F2F2F2"/>
<path d="M1605.28 709.41C1610.41 709.41 1610.42 701.41 1605.28 701.41C1600.14 701.41 1600.15 709.41 1605.28 709.41Z" fill="#F2F2F2"/>
<path d="M1529.23 757.62L1530.7 756.92L1529.23 757.62Z" fill="#F2F2F2"/>
<path d="M1530.61 760L1531.76 759.21C1532.28 758.898 1532.67 758.407 1532.85 757.829C1533.04 757.251 1533 756.625 1532.76 756.07C1532.52 755.503 1532.09 755.043 1531.54 754.775C1530.98 754.508 1530.35 754.453 1529.76 754.62L1528.44 755C1528.07 755.107 1527.72 755.291 1527.43 755.541C1527.13 755.79 1526.89 756.1 1526.73 756.448C1526.56 756.797 1526.47 757.176 1526.46 757.563C1526.45 757.949 1526.52 758.333 1526.67 758.69C1526.8 759.017 1527 759.314 1527.25 759.563C1527.5 759.813 1527.79 760.009 1528.12 760.14C1528.51 760.313 1528.93 760.391 1529.35 760.367C1529.78 760.342 1530.19 760.217 1530.55 760H1530.61Z" fill="#F2F2F2"/>
<path d="M1779.11 639.35L1778.33 641.51L1779.11 639.35Z" fill="#F2F2F2"/>
<path d="M1775.34 638.31L1774.7 640.31C1774.49 641.044 1774.51 641.823 1774.75 642.546C1774.99 643.269 1775.45 643.904 1776.05 644.369C1776.65 644.833 1777.38 645.107 1778.15 645.153C1778.91 645.2 1779.66 645.017 1780.32 644.63L1781.1 644.03C1781.58 643.564 1781.92 642.981 1782.1 642.34L1782.9 640.34C1783.17 639.342 1783.04 638.275 1782.53 637.376C1782.02 636.476 1781.17 635.816 1780.17 635.54C1779.17 635.288 1778.11 635.431 1777.22 635.94C1776.32 636.448 1775.66 637.283 1775.36 638.27L1775.34 638.31Z" fill="#F2F2F2"/>
<path opacity="0.84" d="M1695 677.2C1695 677.2 1699.75 681.13 1704.48 677.32C1704.48 677.32 1700.26 681.93 1703.48 685.82C1703.48 685.82 1699.35 682.06 1694.8 686.82C1694.83 686.86 1700.17 680.7 1695 677.2Z" fill="#F2F2F2" stroke="#F2F2F2" stroke-miterlimit="10"/>
<path d="M1855.07 1022.2C1861.81 1022.2 1861.82 1011.73 1855.07 1011.73C1848.32 1011.73 1848.32 1022.2 1855.07 1022.2Z" fill="#F2F2F2"/>
<path d="M1830.67 853.5L1831.27 855.01L1830.67 853.5Z" fill="#F2F2F2"/>
<path d="M1830.67 859C1831.41 859.033 1832.15 858.868 1832.81 858.52C1833.49 858.301 1834.11 857.908 1834.59 857.38C1835.58 856.306 1836.16 854.918 1836.22 853.46L1836 852C1835.74 851.075 1835.25 850.232 1834.57 849.55C1833.52 848.533 1832.12 847.954 1830.65 847.93C1829.91 847.896 1829.17 848.061 1828.51 848.41C1827.83 848.627 1827.21 849.02 1826.73 849.55C1826.2 850.038 1825.8 850.654 1825.58 851.34C1825.23 851.997 1825.06 852.736 1825.1 853.48L1825.3 854.95C1825.55 855.878 1826.05 856.723 1826.73 857.4C1827.78 858.417 1829.19 858.996 1830.65 859.02L1830.67 859Z" fill="#F2F2F2"/>
<path d="M1838.05 898.28C1843.18 898.28 1843.19 890.28 1838.05 890.28C1832.91 890.28 1832.92 898.28 1838.05 898.28Z" fill="#F2F2F2"/>
<path d="M1892.59 1072.08L1890.48 1071.16L1892.59 1072.08Z" fill="#F2F2F2"/>
<path d="M1893.63 1068.31L1891.63 1067.54C1891.13 1067.4 1890.61 1067.35 1890.09 1067.42C1889.57 1067.49 1889.08 1067.66 1888.63 1067.92C1887.93 1068.35 1887.38 1068.99 1887.06 1069.75C1886.71 1070.54 1886.64 1071.42 1886.87 1072.25C1887.13 1073.22 1887.76 1074.04 1888.63 1074.54L1890.55 1075.45C1891.16 1075.8 1891.85 1075.99 1892.55 1075.98L1893.55 1075.84C1894.12 1075.69 1894.65 1075.41 1895.09 1075.02C1895.53 1074.62 1895.87 1074.13 1896.08 1073.58C1896.29 1073.11 1896.4 1072.6 1896.4 1072.08C1896.4 1071.56 1896.29 1071.05 1896.08 1070.58C1895.93 1070.1 1895.65 1069.67 1895.28 1069.33C1894.8 1068.85 1894.2 1068.51 1893.55 1068.33L1893.63 1068.31Z" fill="#F2F2F2"/>
<path opacity="0.84" d="M1860.34 985.64C1860.34 985.64 1856.1 990.13 1859.6 995.1C1859.6 995.1 1855.27 990.58 1851.18 993.6C1851.18 993.6 1855.18 989.72 1850.71 984.86C1850.71 984.86 1856.5 990.6 1860.34 985.64Z" fill="#F2F2F2" stroke="#F2F2F2" stroke-miterlimit="10"/>
</g>
<defs>
<linearGradient id="paint0_linear_812_44" x1="690.22" y1="1508.22" x2="2126.22" y2="72.2199" gradientUnits="userSpaceOnUse">
<stop stop-color="#133250"/>
<stop offset="0.15" stop-color="#103659"/>
<stop offset="0.39" stop-color="#094273"/>
<stop offset="0.57" stop-color="#024C89"/>
<stop offset="0.87" stop-color="#016DB4"/>
<stop offset="0.99" stop-color="#02589A"/>
</linearGradient>
<linearGradient id="paint1_linear_812_44" x1="246.94" y1="1301.26" x2="1475.66" y2="72.54" gradientUnits="userSpaceOnUse">
<stop stop-color="#95E3EC"/>
<stop offset="0.24" stop-color="#9CC3D9"/>
<stop offset="0.76" stop-color="#AA82B2"/>
<stop offset="1" stop-color="#AF69A3"/>
</linearGradient>
<linearGradient id="paint2_linear_812_44" x1="0" y1="518.25" x2="1434.96" y2="518.25" gradientUnits="userSpaceOnUse">
<stop stop-color="#E32781"/>
<stop offset="0.6" stop-color="#BF5499"/>
<stop offset="1" stop-color="#AA6DA7"/>
</linearGradient>
<linearGradient id="paint3_linear_812_44" x1="1511.77" y1="854.34" x2="1688.3" y2="748.9" gradientUnits="userSpaceOnUse">
<stop stop-color="#95E3EC"/>
<stop offset="0.44" stop-color="#B091BD"/>
<stop offset="0.82" stop-color="#C64F98"/>
<stop offset="1" stop-color="#CE3689"/>
</linearGradient>
<linearGradient id="paint4_linear_812_44" x1="1485.59" y1="548.34" x2="1781.13" y2="1060.23" gradientUnits="userSpaceOnUse">
<stop stop-color="#95E3EC"/>
<stop offset="0.4" stop-color="#B091BD"/>
<stop offset="0.75" stop-color="#C64F98"/>
<stop offset="0.91" stop-color="#CE3689"/>
</linearGradient>
<linearGradient id="paint5_linear_812_44" x1="1549.42" y1="883.9" x2="1974.11" y2="459.21" gradientUnits="userSpaceOnUse">
<stop stop-color="#95E3EC"/>
<stop offset="0.44" stop-color="#B091BD"/>
<stop offset="0.82" stop-color="#C64F98"/>
<stop offset="1" stop-color="#CE3689"/>
</linearGradient>
<linearGradient id="paint6_linear_812_44" x1="1446.87" y1="636.22" x2="1559.06" y2="524.03" gradientUnits="userSpaceOnUse">
<stop stop-color="#95E3EC"/>
<stop offset="0.44" stop-color="#B091BD"/>
<stop offset="0.82" stop-color="#C64F98"/>
<stop offset="1" stop-color="#CE3689"/>
</linearGradient>
<clipPath id="clip0_812_44">
<rect width="1920" height="1080" fill="white"/>
</clipPath>
</defs>
</svg>
