<svg width="1920" height="1080" viewBox="0 0 1920 1080" fill="none" xmlns="http://www.w3.org/2000/svg">
<g clip-path="url(#clip0_814_516)">
<path d="M1499 53C1482 63.85 1538.11 191.16 1589.1 280.58C1628 348.77 1643.56 371.11 1730 498C1754.26 533.606 1776.66 570.441 1797.12 608.36C1853.43 712.992 1894.79 825.002 1920 941.12V736.12L1710 286C1553.73 81.78 1509.64 46.22 1499 53Z" fill="url(#paint0_linear_814_516)"/>
<path d="M1473.06 0C1484 44.9409 1498.61 88.9085 1516.74 131.46C1568.74 253.46 1640.35 341.46 1697 399C1735.26 432.935 1769.42 471.229 1798.78 513.1C1896.29 652.34 1915.85 796.83 1920 875.1V736C1917.42 703.116 1911.35 670.599 1901.89 639C1871.73 538.39 1813.84 470.23 1776 433C1840.75 487.858 1890.33 558.415 1920 637.92V446.51L1574.69 0H1473.06Z" fill="url(#paint1_linear_814_516)"/>
<path d="M1479.47 0C1490.21 36.3142 1505.9 70.9741 1526.11 103C1575.32 180.87 1639.53 224 1677 245C1791.79 306.218 1878.76 409.104 1920 532.49V0H1479.47Z" fill="url(#paint2_linear_814_516)"/>
<path opacity="0.84" d="M1673.26 154.72C1673.26 154.72 1681.26 162.67 1690.51 156.51C1690.51 156.51 1682.05 164.21 1687.37 171.83C1687.37 171.83 1680.46 164.31 1671.37 172.28C1671.38 172.28 1682.14 162 1673.26 154.72Z" fill="#F2F2F2" stroke="#F2F2F2" stroke-miterlimit="10"/>
<path opacity="0.84" d="M1819.54 297.61C1819.54 297.61 1836.08 298.47 1840.15 282.7C1840.15 282.7 1838.43 299.38 1851.71 302.51C1851.71 302.51 1836.8 301.04 1834.71 318.65C1834.67 318.65 1836.33 296.83 1819.54 297.61Z" fill="#F2F2F2" stroke="#F2F2F2" stroke-miterlimit="10"/>
<path opacity="0.84" d="M1902.77 404.34C1902.77 404.34 1912.83 414.75 1922.43 408.7C1922.43 408.7 1913.91 416.7 1920.9 426.33C1920.9 426.33 1912.14 416.57 1902.9 424.77C1902.94 424.77 1913.72 414 1902.77 404.34Z" fill="#F2F2F2" stroke="#F2F2F2" stroke-miterlimit="10"/>
<path opacity="0.84" d="M1890.75 14C1890.75 14 1895.13 18.35 1900.19 15C1900.19 15 1895.56 19.21 1898.47 23.38C1898.47 23.38 1894.69 19.27 1889.72 23.63C1889.72 23.6 1895.61 18 1890.75 14Z" fill="#F2F2F2" stroke="#F2F2F2" stroke-miterlimit="10"/>
<path d="M1847.5 225.4L1848.61 224.99L1847.5 225.4Z" fill="#F2F2F2"/>
<path d="M1851.14 227.52L1851.5 226.9C1851.82 226.347 1851.99 225.719 1851.99 225.08C1852.01 224.594 1851.9 224.112 1851.68 223.68C1851.53 223.235 1851.28 222.835 1850.93 222.52C1850.49 222.074 1849.94 221.753 1849.33 221.59L1848.62 221.33L1847.5 221.18L1846.38 221.33L1845.38 221.75L1844.52 222.41L1843.86 223.27L1843.44 224.27L1843.29 225.4C1843.27 225.962 1843.39 226.521 1843.65 227.02C1843.75 227.372 1843.93 227.693 1844.19 227.95C1844.37 228.264 1844.64 228.526 1844.95 228.71C1845.21 228.968 1845.53 229.155 1845.88 229.25C1846.57 229.539 1847.33 229.64 1848.07 229.54C1848.8 229.442 1849.49 229.156 1850.07 228.71C1850.53 228.416 1850.91 228.005 1851.16 227.52H1851.14Z" fill="#F2F2F2"/>
<path d="M1898.69 95.27L1899.8 94.87L1898.69 95.27Z" fill="#F2F2F2"/>
<path d="M1898.69 105.27C1901.32 105.161 1903.82 104.123 1905.76 102.34C1906.72 101.47 1907.43 100.363 1907.83 99.13C1908.45 97.9426 1908.75 96.6102 1908.69 95.27L1908.33 92.62C1907.87 90.9478 1906.99 89.424 1905.76 88.2L1903.76 86.64C1902.24 85.7517 1900.52 85.2792 1898.76 85.27C1896.79 85.2415 1894.86 85.8152 1893.23 86.9144C1891.59 88.0135 1890.33 89.5856 1889.62 91.42C1889 92.6054 1888.7 93.9334 1888.76 95.27L1889.12 97.93C1889.57 99.6003 1890.46 101.121 1891.69 102.34L1893.69 103.91C1895.21 104.795 1896.93 105.264 1898.69 105.27Z" fill="#F2F2F2"/>
<path d="M1828 20.92L1829.51 21.62L1828 20.92Z" fill="#F2F2F2"/>
<path d="M1823.88 23.32L1824.6 24.27C1825.08 25.0853 1825.77 25.7582 1826.6 26.22C1827.64 26.8301 1828.85 27.0785 1830.04 26.9263C1831.24 26.7742 1832.35 26.23 1833.2 25.3792C1834.05 24.5283 1834.6 23.4189 1834.75 22.2246C1834.91 21.0304 1834.66 19.8189 1834.05 18.78C1833.58 17.955 1832.89 17.2705 1832.06 16.7962C1831.24 16.322 1830.3 16.0748 1829.35 16.08L1828.05 16.15C1827.2 16.1522 1826.37 16.3764 1825.64 16.8C1824.94 17.2215 1824.35 17.8087 1823.93 18.51C1823.5 19.2412 1823.28 20.0732 1823.28 20.92C1823.28 21.7639 1823.5 22.5929 1823.93 23.32H1823.88Z" fill="#F2F2F2"/>
<path d="M1680.83 197.07L1681.94 196.66L1680.83 197.07Z" fill="#F2F2F2"/>
<path d="M1686.85 198.73L1687.02 198.16L1687.21 196.72C1687.24 195.991 1687.08 195.266 1686.74 194.62C1686.61 194.169 1686.37 193.758 1686.04 193.43C1685.66 192.838 1685.14 192.355 1684.52 192.03L1683.98 191.67L1682.49 191.04C1681.68 190.779 1680.82 190.741 1680 190.93C1678.91 191.057 1677.87 191.482 1677 192.16C1676.32 192.595 1675.77 193.198 1675.39 193.91L1674.76 195.4L1674.54 197.07C1674.5 197.903 1674.68 198.733 1675.07 199.47C1675.22 199.993 1675.49 200.468 1675.88 200.85C1676.14 201.326 1676.53 201.722 1677 202C1677.59 202.555 1678.33 202.941 1679.12 203.12L1680.79 203.35L1682.45 203.12L1683.94 202.49C1684.65 202.113 1685.25 201.558 1685.69 200.88C1686.24 200.285 1686.63 199.553 1686.81 198.76L1686.85 198.73Z" fill="#F2F2F2"/>
<path d="M1696.48 114.23C1699.39 114.23 1699.4 109.69 1696.48 109.69C1693.56 109.69 1693.56 114.23 1696.48 114.23Z" fill="#F2F2F2"/>
<path d="M1566.41 82.16C1573.75 82.16 1573.77 70.75 1566.41 70.75C1559.05 70.75 1559.06 82.16 1566.41 82.16Z" fill="#F2F2F2"/>
<path d="M1570.83 116C1575.15 116 1575.16 109.28 1570.83 109.28C1566.5 109.28 1566.5 116 1570.83 116Z" fill="#F2F2F2"/>
<path d="M1822.23 274.42C1828.06 274.42 1828.07 265.36 1822.23 265.36C1816.39 265.36 1816.39 274.42 1822.23 274.42Z" fill="#F2F2F2"/>
<path d="M1735.66 212.18L1736.07 213.29L1735.66 212.18Z" fill="#F2F2F2"/>
<path d="M1732.39 217.78L1732.87 218.12C1733.8 218.661 1734.85 218.944 1735.92 218.94C1737.51 218.874 1739.03 218.247 1740.2 217.17C1740.94 216.433 1741.48 215.512 1741.75 214.5L1741.91 213.9L1742.14 212.18L1741.91 210.46L1741.26 208.91L1740.26 207.6L1738.95 206.6L1737.4 205.95L1735.68 205.72C1734.81 205.678 1733.95 205.867 1733.18 206.27C1732.64 206.426 1732.15 206.715 1731.75 207.11C1731.27 207.39 1730.87 207.79 1730.59 208.27C1730.19 208.669 1729.91 209.16 1729.75 209.7C1729.46 210.198 1729.31 210.764 1729.31 211.34C1729.16 211.904 1729.16 212.496 1729.31 213.06C1729.31 213.636 1729.46 214.202 1729.75 214.7C1729.91 215.24 1730.19 215.731 1730.59 216.13C1731.04 216.836 1731.67 217.412 1732.41 217.8L1732.39 217.78Z" fill="#F2F2F2"/>
<path d="M1614.21 17.63C1622.76 17.63 1622.77 4.35001 1614.21 4.35001C1605.65 4.35001 1605.65 17.63 1614.21 17.63Z" fill="#F2F2F2"/>
<path d="M1876.63 353.21L1878.15 353.91L1876.63 353.21Z" fill="#F2F2F2"/>
<path d="M1876.63 359.07L1877.93 358.93C1878.84 358.932 1879.73 358.69 1880.52 358.23C1881.28 357.785 1881.91 357.155 1882.35 356.4C1882.81 355.617 1883.06 354.724 1883.06 353.815C1883.06 352.906 1882.81 352.013 1882.35 351.23L1881.69 350.23C1881.18 349.362 1880.46 348.638 1879.59 348.13C1878.68 347.595 1877.64 347.319 1876.59 347.33C1875.3 347.32 1874.04 347.737 1873.01 348.516C1871.98 349.295 1871.24 350.392 1870.89 351.637C1870.55 352.883 1870.63 354.206 1871.12 355.402C1871.61 356.597 1872.48 357.599 1873.59 358.25C1874.5 358.785 1875.54 359.062 1876.59 359.05L1876.63 359.07Z" fill="#F2F2F2"/>
</g>
<defs>
<linearGradient id="paint0_linear_814_516" x1="1495.89" y1="496.68" x2="1920" y2="496.68" gradientUnits="userSpaceOnUse">
<stop offset="0.02" stop-color="#87D9E6"/>
<stop offset="0.62" stop-color="#87A9C8"/>
<stop offset="1" stop-color="#8790B8"/>
</linearGradient>
<linearGradient id="paint1_linear_814_516" x1="1473.06" y1="437.53" x2="1920" y2="437.53" gradientUnits="userSpaceOnUse">
<stop offset="0.02" stop-color="#A673AA"/>
<stop offset="0.64" stop-color="#D13E8E"/>
<stop offset="1" stop-color="#E52580"/>
</linearGradient>
<linearGradient id="paint2_linear_814_516" x1="1699.73" y1="532.49" x2="1699.73" y2="0" gradientUnits="userSpaceOnUse">
<stop stop-color="#006FB7"/>
<stop offset="0.12" stop-color="#0168AE"/>
<stop offset="0.32" stop-color="#025494"/>
<stop offset="0.57" stop-color="#05356B"/>
<stop offset="0.58" stop-color="#053369"/>
<stop offset="0.87" stop-color="#113253"/>
<stop offset="0.99" stop-color="#173249"/>
</linearGradient>
<clipPath id="clip0_814_516">
<rect width="1920" height="1080" fill="white"/>
</clipPath>
</defs>
</svg>
