<svg width="1920" height="4501" viewBox="0 0 1920 4501" fill="none" xmlns="http://www.w3.org/2000/svg">
<path d="M-945.2 4167.26C-934.28 4169.59 -923.27 4173.15 -912.36 4175.19C-897.58 4177.96 -882.98 4175.02 -868.44 4174.3C-856.9 4173.76 -845.33 4173.54 -833.73 4173.63C-827.91 4173.68 -822.09 4173.82 -816.27 4174.05C-812.37 4174.2 -808.48 4174.39 -804.6 4174.62C-816.347 4173.54 -812.443 4173.84 -792.89 4175.51C-808.89 4174.04 -789.7 4175.93 -787.52 4176.17C-781.78 4176.84 -776.033 4177.58 -770.28 4178.41C-760.65 4179.81 -751.04 4181.9 -741.43 4183.41C-716.23 4187.41 -691.15 4190.81 -665.93 4196.87C-618.117 4208.48 -571.51 4224.58 -526.73 4244.97C-520.92 4247.6 -515.22 4250.39 -509.47 4253.06C-489.7 4262.15 -526.24 4243.86 -506.75 4254.43C-495.39 4260.59 -484.03 4266.64 -472.75 4273.33C-448.31 4287.67 -424.157 4303.41 -400.29 4320.54C-310.19 4385.33 -222.08 4465.12 -125.71 4491.48C-36.98 4515.71 51.96 4489.99 127.36 4433.34C206.99 4373.48 276.74 4289.4 353.05 4221.52L331.85 4240.31C371.85 4205.2 413.93 4174.84 459.63 4157.6L434.3 4166.78C461.414 4156.95 490.274 4152.87 519.05 4154.78L492.19 4152.47C558.8 4159.03 625.72 4190.96 691.85 4182.08C751.3 4174.08 805.17 4137.36 850.85 4084.68C892.71 4036.4 927.5 3973.4 960.41 3910.74C974.84 3883.29 988.89 3855.36 1003.26 3827.83C1010.59 3813.72 1018.05 3799.77 1025.62 3785.97C1029.12 3779.65 1032.66 3773.34 1036.23 3767.03C1038.23 3763.49 1040.33 3760.03 1042.36 3756.45C1050.3 3742.78 1037.47 3763.74 1036.23 3766.45C1044.69 3747.79 1058.45 3732.45 1069.39 3717.56C1080.85 3702.01 1092.68 3687.13 1104.88 3672.92C1128.69 3645.29 1154.34 3619.29 1181.65 3595.11L1160.21 3614.11C1225.39 3556.86 1295.29 3513.04 1366.49 3473.53C1442.93 3431.12 1522.7 3395 1605 3365.53L1580.19 3374.4C1687.69 3336.47 1798.33 3308.11 1910.82 3289.66C1966.05 3280.59 2021.49 3273.1 2077.08 3266.78C2104.77 3263.63 2132.8 3262.87 2160.15 3257.29C2188.42 3251.5 2216.7 3246.67 2245.23 3242.5C2258.79 3240.5 2270.81 3230.69 2279.09 3214.9C2287.37 3199.11 2291.37 3178.38 2290.35 3156.51C2288.14 3110.02 2265.66 3073.51 2236.78 3062.27C2206.71 3050.63 2176.59 3039.79 2146.42 3029.74C2116.47 3019.84 2085.89 3017.22 2055.93 3013.5C1991.26 3005.2 1925.99 3002.62 1860.87 3005.79C1741.23 3011.59 1624.3 3036.14 1509.99 3075.97C1278.64 3156.42 1042.06 3272.74 880.71 3539.84C845.88 3597.49 815.64 3661.55 783.05 3722.26C775.05 3737.12 766.92 3751.81 758.66 3766.12C745.17 3789.2 773.84 3742.12 759.54 3764.77C755.293 3771.51 750.96 3778.11 746.54 3784.56C728.92 3810.67 709.41 3833.51 688.33 3852.74L709.73 3833.74C691.91 3849.26 672.67 3860.97 652.42 3868.61L677.79 3859.43C657.57 3866.05 636.21 3868.48 615.02 3866.55L641.9 3868.86C576.58 3861.86 511.9 3833.62 446.85 3838.95C395.04 3843.2 343.72 3865.21 298.43 3897.83C210.49 3961.17 136.24 4056.26 54.1899 4133.52C48.0099 4139.3 25.88 4157.7 53.96 4134.13C48.82 4138.44 43.74 4142.84 38.62 4147.13C30.28 4154.08 22.83 4160.61 14.12 4168.49C15.4 4167.32 34.19 4151.49 23.21 4159.92C17.4 4164.4 11.67 4169.04 5.77997 4173.33C-15.8561 4189.35 -39.5657 4202.36 -64.7 4212L-41.3 4203.66C-64.7029 4211.63 -89.2765 4215.63 -114 4215.48C-125.93 4215.55 -94.61 4218.22 -106.65 4216.09C-110.38 4215.43 -114.06 4215.09 -117.79 4214.39C-125.231 4213.06 -132.601 4211.36 -139.87 4209.29C-155.784 4204.38 -171.326 4198.34 -186.38 4191.22C-202.31 4184.02 -180.66 4193.22 -180.54 4194.11C-180.61 4193.59 -192.3 4187.79 -191.46 4188.2C-198.74 4184.2 -206 4179.91 -213.24 4175.54C-228.7 4166.17 -244.03 4156.2 -259.33 4145.9C-289.03 4126 -318.53 4105.12 -348.42 4086.15C-414.91 4043.85 -483.06 4011.48 -551.89 3989.49C-619.35 3968.16 -690.89 3955.13 -757.57 3960.33C-792.001 3963.06 -826.109 3968.94 -859.47 3977.88C-876.34 3982.33 -893.02 3987.65 -909.62 3993.49C-922.44 3998.1 -933.44 4001.27 -944.56 4010.95C-954.2 4019.35 -963.777 4027.92 -973.29 4036.65C-1005.57 4066.43 -982.53 4159.25 -945.2 4167.26Z" fill="#F1F1F1" fill-opacity="0.05"/>
<path d="M-107 67.46C-103.89 77.46 -101.58 87.99 -98.27 97.96C-93.79 111.45 -85.44 123.11 -78.67 135.38C-73.31 145.127 -68.1533 155 -63.2 165C-60.72 170.007 -58.3033 175.04 -55.95 180.1C-54.37 183.5 -52.8166 186.897 -51.29 190.29C-55.6166 179.89 -54.1333 183.327 -46.84 200.6C-52.76 186.43 -45.76 203.45 -44.98 205.39C-42.98 210.53 -41.01 215.68 -39.07 220.84C-35.86 229.51 -33.16 238.38 -30.07 247.05C-21.93 269.85 -13.43 292.36 -6.70998 315.78C5.81487 359.49 14.8433 404.128 20.29 449.27C20.99 455.01 21.53 460.72 22.18 466.44C24.45 486.05 21.27 449.36 22.4 469.16C23.07 480.72 23.8 492.22 24.06 503.88C24.7267 529.04 24.31 554.373 22.81 579.88C17.04 676.09 0.0500202 774.97 23.52 865.36C45.16 948.58 101.4 1017.36 173.11 1065.61C248.88 1116.49 337.11 1151.84 416.97 1197.55L394.84 1184.83C436.37 1208.91 475.54 1236.18 507.2 1270.38L489.91 1251.31C508.504 1271.83 523.681 1295.21 534.86 1320.54L524.86 1296.81C549.13 1355.89 556.02 1422.63 590.75 1476.81C621.96 1525.51 670.64 1561.02 726.75 1584.88C778.19 1606.74 836.75 1618.23 894.24 1628.21C919.43 1632.58 944.8 1636.51 970.02 1640.8C982.933 1642.99 995.79 1645.33 1008.59 1647.8C1014.46 1648.97 1020.35 1650.17 1026.26 1651.39C1029.58 1652.1 1032.88 1652.86 1036.26 1653.57C1049.13 1656.4 1029.11 1651.5 1026.71 1651.21C1043.25 1653.05 1059.77 1660.38 1074.8 1665.42C1090.5 1670.75 1105.89 1676.57 1120.98 1682.87C1150.81 1695.46 1179.83 1709.86 1207.9 1726L1185.48 1713.16C1253.19 1752.4 1313.69 1799.62 1371.75 1849.16C1434.69 1902.97 1494.07 1960.83 1549.49 2022.36L1532.64 2003.66C1605.65 2085.28 1672.97 2171.82 1734.13 2262.66C1764.28 2307.41 1793.51 2352.75 1821.84 2398.66C1835.98 2421.51 1848.63 2445.33 1864.31 2467.18C1880.54 2489.75 1896.11 2512.62 1911.31 2535.88C1918.56 2546.93 1930.52 2554.39 1945.01 2556.88C1959.5 2559.37 1975.54 2556.78 1990.2 2549.51C2021.35 2534.07 2036.86 2504.13 2032.11 2476.06C2027.14 2446.86 2021.6 2417.86 2015.49 2389.06C2009.37 2360.47 1997.96 2333.46 1987.56 2306.67C1965.16 2248.37 1938.76 2191.69 1908.56 2137.02C1852.82 2036.02 1785.3 1942.84 1708.36 1856.34C1552.76 1681.25 1370.13 1512.12 1115.93 1451.51C1061.05 1438.43 1003.75 1431.16 947.72 1420.89C934.04 1418.4 920.34 1415.66 906.89 1412.75C885.11 1407.9 930 1418.75 908.21 1413.11C901.717 1411.42 895.29 1409.62 888.93 1407.72C863.79 1400.43 839.548 1390.33 816.66 1377.63L839 1390.53C820.878 1380.01 804.413 1366.87 790.14 1351.53L807.45 1370.62C794.103 1355.15 783.283 1337.67 775.39 1318.83L785.39 1342.57C761.95 1284.49 753.51 1220.74 721.68 1166.46C696.35 1123.23 658.96 1085.61 616.85 1056.25C535.07 999.25 437.31 963.25 348.48 915.35C341.82 911.73 319.48 898.11 347.96 915.35C342.77 912.2 337.53 909.12 332.34 905.98C323.94 900.85 316.2 896.35 307 891.18C308.36 891.94 327.45 903.44 316.85 896.48C311.25 892.81 305.56 889.23 300.06 885.48C279.208 871.239 260.004 854.724 242.8 836.24L258.68 853.9C242.986 836.027 229.675 816.195 219.08 794.9C213.87 784.7 225.58 812.35 221.84 801.4C220.67 798.01 219.33 794.74 218.19 791.34C215.897 784.627 213.897 777.813 212.19 770.9C208.722 756.01 206.167 740.922 204.54 725.72C202.63 709.95 205.64 731.21 205.08 731.58C205.4 731.36 204.36 719.65 204.43 720.48C204.07 713.06 203.87 705.59 203.75 698.1C203.54 682.1 203.75 666.03 204.29 649.9C205.18 618.62 206.85 587.2 207.01 556.02C207.594 487.836 200.468 419.804 185.77 353.22C171.32 289.11 149.37 223.91 116.95 168.22C100.207 139.462 81.4429 111.93 60.8 85.83C50.44 72.65 39.55 59.83 28.34 47.34C19.61 37.68 12.67 29.17 1.17002 22.44C-8.78998 16.62 -18.8466 10.9 -29 5.28001C-63.5 -13.75 -117.62 33.08 -107 67.46Z" fill="#F1F1F1" fill-opacity="0.05"/>
<path d="M-16.4 1404.42C58.6 1488.76 147.15 1568.12 173.74 1674.02C199.29 1775.59 159.8 1896.66 170.68 2002.75C192.31 2213.63 338.04 2387.17 591.09 2481.75C831.16 2571.52 1140.68 2598.56 1421.79 2649.99C1457.52 2656.58 1492.75 2663.63 1527.47 2671.12C1534.94 2672.75 1542.35 2674.42 1549.8 2676.12C1565.72 2679.65 1554.42 2677.12 1551.1 2676.38L1562.15 2678.98C1579.26 2683.08 1596.24 2687.3 1613.09 2691.65C1679.09 2708.81 1742.71 2728.28 1803.09 2750.12C1862.32 2771.39 1920.13 2796.44 1976.16 2825.12C1988.64 2831.55 2000.57 2838.36 2012.87 2844.91C2020.24 2848.91 2011.48 2844.05 2010.51 2843.48C2013.26 2845.06 2015.94 2846.66 2018.61 2848.22C2025.81 2852.48 2032.91 2856.81 2039.91 2861.22C2063.56 2876.07 2086.06 2891.62 2107.4 2907.88C2152.18 2941.88 2191.05 2979.1 2224 3019.55C2227.56 3023.91 2231.1 3028.26 2234.39 3032.74C2236.06 3034.95 2237.65 3037.21 2239.39 3039.4C2245.61 3047.22 2233.82 3031.06 2239.3 3039.2C2246.5 3049.86 2253.59 3060.54 2260.08 3071.52C2272.57 3092.5 2283.56 3114.33 2292.95 3136.87C2302.7 3160.11 2310.6 3184.08 2316.57 3208.56C2319.33 3219.93 2321.66 3231.44 2323.57 3243.07C2324.64 3249.34 2325.44 3255.67 2326.35 3262C2324.44 3248.6 2326.87 3269 2327.11 3272.67C2330.7 3323.29 2325.95 3376.22 2312.92 3430.8C2309.8 3443.74 2305.92 3456.71 2302.08 3469.75C2305.56 3457.94 2301.42 3471.65 2299.84 3476.09C2296.91 3484.22 2293.77 3492.36 2290.37 3500.59L2506.37 3451.17C2463.51 3345.87 2345.32 3279.22 2217.14 3222.11C2155.58 3194.72 2093.55 3167.29 2034.64 3137.97C2019.1 3130.13 2003.63 3122.23 1988.24 3114.27C1982.01 3111.11 1975.9 3107.89 1969.93 3104.6L1957.82 3098.1C1955.4 3096.81 1938.58 3087.17 1950.04 3093.93C1965.82 3103.01 1932.77 3083.88 1934.18 3084.61C1930.13 3082.49 1925.76 3080.53 1921.68 3078.41C1914.53 3074.67 1907.49 3070.84 1900.49 3066.92C1885.49 3058.74 1870.61 3050.4 1855.82 3042.03C1841.03 3033.66 1857.32 3042.62 1859.32 3044.1C1856.8 3042.23 1853.51 3040.7 1850.68 3039.02C1843.93 3035.07 1837.25 3031.1 1830.62 3027.1C1815.43 3017.98 1800.41 3008.71 1785.54 2999.29C1758.6 2982.29 1731.22 2965.52 1704.4 2948.44C1649.56 2913.7 1597.28 2877.39 1547.56 2839.5C1447.34 2763.03 1362.56 2678.81 1279.11 2593.19C1236.95 2549.95 1192.17 2507.83 1135.11 2473.12C1074.38 2436.12 1005.63 2406.2 930.35 2379.74C861.6 2355.61 788.96 2334.88 719.35 2311.56C686.12 2300.37 654.35 2288.23 624.35 2274.56C610.223 2268.09 596.507 2261.33 583.2 2254.29C576.65 2250.82 570.69 2246.66 563.56 2243.59C565.67 2244.48 583.12 2255.38 568.92 2246.67C565.34 2244.49 561.73 2242.33 558.17 2240.12C504.89 2207.46 459.17 2170.12 421.55 2128.5C412.817 2118.78 404.5 2108.83 396.6 2098.65C392.6 2093.58 388.91 2088.38 385 2083.29C379.57 2076.29 388.72 2088.58 388.77 2088.7C387.05 2084.7 383.52 2081.08 381.08 2077.35C366.585 2055.43 353.476 2032.63 341.83 2009.08C317.83 1960.77 304.77 1907.33 295.96 1853.52C294.96 1847.2 293.96 1840.87 293.13 1834.52C292.73 1831.8 292.41 1829.07 292.04 1826.33C291.04 1818.87 297.35 1817.86 292.36 1829.44C294.91 1823.52 291.05 1815.27 290.65 1810.07C290.077 1802.67 289.62 1795.24 289.28 1787.77C288.007 1760.77 288.08 1733.39 289.5 1705.63C292.83 1643.63 307.44 1578.9 307.5 1517.63C307.55 1448.75 291.58 1387.22 243.5 1336.5C203.13 1293.82 141 1260.77 76.15 1233.5C10.906 1206.57 -55.8779 1183.53 -123.85 1164.5C-145.695 1158.6 -168.078 1154.92 -190.66 1153.5C-213 1151.69 -236.42 1147.73 -261.79 1150.63L-232.49 1154L-239.35 1151.8C-265.48 1143.43 -308.42 1152.17 -337.43 1174.7C-364.55 1195.7 -369.69 1224.1 -343.43 1232.54L-336.56 1234.74L-352.69 1220.4C-346.69 1233.23 -333.69 1241.53 -321.27 1251.02C-306.04 1262.69 -290.93 1273.75 -270.69 1282.19C-239.74 1295.1 -208.78 1307.94 -179.33 1321.96C-172.21 1325.34 -165.18 1328.76 -158.24 1332.23L-149.41 1336.7C-147.59 1337.61 -135.33 1343.98 -143.12 1339.77C-150.26 1335.96 -140.97 1341.07 -140.22 1341.54C-136.64 1343.7 -133.093 1345.88 -129.58 1348.09C-122.6 1352.52 -115.737 1357.02 -108.99 1361.59C-84.6668 1377.92 -62.0078 1396.61 -41.34 1417.37C-32.3615 1426.66 -23.8988 1436.43 -15.99 1446.65C-6.74999 1458.41 -22.89 1435.58 -15.28 1447.93C-11.11 1454.71 -6.42 1461.25 -2.28 1468.06C11.3795 1490.58 21.7035 1514.95 28.37 1540.43C30.15 1547.1 31.6467 1553.84 32.86 1560.66C33.56 1564.56 34.06 1568.52 34.69 1572.45C36.11 1581.3 34.19 1567.45 34.04 1567C39.23 1580 35.59 1598.37 35.29 1613.15C34.69 1644.4 31.61 1676.29 29.2 1708.01C20.2 1826.49 26.61 1941.47 60.78 2047.01C76.6676 2097.62 98.0553 2146.33 124.56 2192.28C140.66 2219.29 158.459 2245.24 177.85 2269.99C180.09 2272.89 182.31 2275.84 184.71 2278.68C186.71 2280.99 188.99 2288.31 185.62 2278.79C180.11 2263.27 195.17 2291.79 195.1 2291.69C197.34 2294.61 199.79 2297.44 202.16 2300.29C211.08 2310.96 220.497 2321.39 230.41 2331.59C269.05 2371.65 315.23 2407.67 368.41 2439.27C386.63 2450.09 404.64 2461.35 424.63 2471C439.44 2478.15 418.63 2467.41 419.63 2467.06C421.14 2466.48 443.71 2480.79 445.63 2481.8C453.53 2485.93 461.83 2489.8 470.09 2493.71C500 2507.71 531.29 2520.94 562.93 2533.78C627.2 2559.88 698.93 2580.18 762.65 2606.78C793.95 2619.78 823.44 2633.95 851.9 2648.92C868.4 2657.6 845.61 2646.04 844.9 2644.72C846.07 2647.08 854.4 2650.47 856.53 2651.79C862.263 2655.37 867.873 2659.02 873.36 2662.73C888.06 2672.63 901.99 2682.98 915.31 2693.73C963.99 2732.47 1005.19 2775.36 1048.96 2816.92C1092.73 2858.48 1138.69 2898.33 1187.6 2936.77C1288.78 3016.23 1399.6 3092.33 1526.36 3155.58C1587.49 3186.08 1651.88 3214.01 1716.7 3241.84C1780.79 3269.36 1852.87 3291.48 1922.31 3314.84C1988.31 3337 2054.03 3358.94 2113.16 3386.39C2127.29 3392.93 2141.06 3399.72 2154.47 3406.77C2158.28 3408.77 2162 3410.84 2165.79 3412.86C2166.79 3413.39 2176 3418.58 2168.58 3414.36C2160.58 3409.79 2172.06 3416.47 2173.84 3417.58C2178.29 3420.29 2182.65 3423.03 2186.93 3425.81C2210.74 3440.87 2232.57 3458.84 2251.93 3479.3C2256.3 3484.05 2260.29 3488.96 2264.41 3493.83C2265.15 3494.69 2270.78 3501.83 2266.04 3495.62C2260.89 3488.95 2267.68 3498.18 2268.74 3499.85C2275.82 3511.11 2281.86 3523 2286.79 3535.36C2296.49 3559.36 2339.36 3572.06 2388.59 3559.68C2435.51 3547.85 2490.19 3517.43 2502.76 3485.96C2599.33 3243.96 2547.17 3031.05 2390.15 2870.64C2238.15 2715.42 1990.51 2614.87 1710.41 2550.04C1572.65 2518.13 1425.41 2496.04 1277.22 2474.57C1204.07 2463.96 1131.01 2453.26 1059.53 2440.92C1023.89 2434.69 988.713 2428.05 954 2421C938 2417.7 922.19 2414.22 906.43 2410.7C897.43 2408.7 906.87 2410.78 908.33 2411.14C903.51 2409.99 898.74 2408.92 893.98 2407.68L869 2401.58C803.047 2384.6 741.267 2364.15 683.66 2340.22C654.822 2328.17 626.652 2314.57 599.27 2299.5C592.75 2295.93 598.33 2299.11 599.58 2299.8C595.82 2297.65 592.18 2295.44 588.58 2293.22C583.1 2289.92 577.75 2286.54 572.43 2283.1C559.143 2274.59 546.407 2265.75 534.22 2256.58C489.687 2222.84 451.757 2185.51 420.43 2144.58C419.91 2143.93 414.43 2136.47 418.58 2142.3C416.96 2140.02 415.4 2137.64 413.88 2135.4C410.25 2130.05 406.7 2124.63 403.34 2119.16C396.64 2108.2 390.337 2097.05 384.43 2085.72C372.822 2063.11 363.122 2039.57 355.43 2015.35C339.96 1968.47 333.28 1918.47 335.51 1866.1C337.39 1808.93 345.04 1750.25 341.95 1694.38C338.59 1633.38 321.48 1579.38 286.71 1530.06C253.86 1483.62 211.26 1441.85 159.58 1405.41C133.43 1386.93 104.73 1370.25 76.01 1353.32C39.69 1331.78 -42.37 1375.59 -16.48 1404.73L-16.4 1404.42Z" fill="#F1F1F1" fill-opacity="0.05"/>
<path opacity="0.84" d="M508.27 2604.83C508.27 2604.83 520.52 2599.08 517.39 2586.13C517.39 2586.13 522.57 2598.83 533.39 2595.99C533.39 2595.99 522.07 2600.66 527.3 2614.18C527.23 2614.18 520 2597.81 508.27 2604.83Z" fill="#F1F1F1" stroke="#F1F1F1" stroke-miterlimit="10"/>
<path opacity="0.84" d="M729.48 2498.9C729.48 2498.9 737.25 2480.63 721.17 2469.55C721.17 2469.55 739.25 2478.35 748.25 2464.69C748.25 2464.69 740.45 2480.88 759.4 2490.55C759.4 2490.55 735.52 2479.68 729.48 2498.9Z" fill="#F1F1F1" stroke="#F1F1F1" stroke-miterlimit="10"/>
<path opacity="0.84" d="M559.54 2476.05C559.54 2476.05 566.24 2472.91 564.54 2465.83C564.54 2465.83 567.38 2472.76 573.27 2471.21C573.27 2471.21 567.07 2473.77 569.94 2481.16C569.93 2481.16 566 2472.21 559.54 2476.05Z" fill="#F1F1F1" stroke="#F1F1F1" stroke-miterlimit="10"/>
<path opacity="0.84" d="M1851.17 3323.36C1851.17 3323.36 1871.52 3314.07 1866.35 3293.15C1866.35 3293.15 1874.95 3313.68 1892.82 3309.07C1892.82 3309.07 1874.03 3316.62 1882.73 3338.5C1882.73 3338.5 1870.79 3312.12 1851.17 3323.36Z" fill="#F1F1F1" stroke="#F1F1F1" stroke-miterlimit="10"/>
<path opacity="0.84" d="M1771.53 3149.7C1771.53 3149.7 1793.42 3168.37 1816 3151.29C1816 3151.29 1795.69 3172.09 1810.6 3190.29C1810.6 3190.29 1791.6 3172.58 1769.73 3194.15C1769.73 3194.26 1795.51 3166.42 1771.53 3149.7Z" fill="#F1F1F1" stroke="#F1F1F1" stroke-miterlimit="10"/>
<path opacity="0.84" d="M1830.81 3750.78C1830.81 3750.78 1878.14 3746.02 1882.89 3699.45C1882.89 3699.45 1885.25 3747.59 1924.29 3750.78C1924.29 3750.78 1881.43 3753.06 1882.89 3804.03C1882.89 3804 1878.14 3741.3 1830.81 3750.78Z" fill="#F1F1F1" stroke="#F1F1F1" stroke-miterlimit="10"/>
<path opacity="0.84" d="M1685.11 2040.08C1685.11 2040.08 1691.81 2036.94 1690.11 2029.86C1690.11 2029.86 1692.94 2036.81 1698.83 2035.24C1698.83 2035.24 1692.64 2037.8 1695.51 2045.24C1695.51 2045.2 1691.58 2036.28 1685.11 2040.08Z" fill="#F1F1F1" stroke="#F1F1F1" stroke-miterlimit="10"/>
<path opacity="0.84" d="M1658.34 1981.71C1658.34 1981.71 1665.64 1988.04 1673.15 1982.25C1673.15 1982.25 1666.39 1989.25 1671.36 1995.45C1671.36 1995.45 1665.03 1989.45 1657.74 1996.76C1657.74 1996.81 1666.33 1987.38 1658.34 1981.71Z" fill="#F1F1F1" stroke="#F1F1F1" stroke-miterlimit="10"/>
<path opacity="0.84" d="M1678.13 2183.14C1678.13 2183.14 1694.02 2181.54 1695.61 2165.91C1695.61 2165.91 1696.41 2182.07 1709.51 2183.14C1709.51 2183.14 1695.12 2183.9 1695.61 2201.01C1695.61 2201 1694 2180 1678.13 2183.14Z" fill="#F1F1F1" stroke="#F1F1F1" stroke-miterlimit="10"/>
<path opacity="0.84" d="M1858.58 1573.34C1858.58 1573.34 1884.52 1577.41 1893.51 1553.21C1893.51 1553.21 1888.08 1579.21 1908.51 1586.36C1908.51 1586.36 1885.24 1581.55 1879 1609.01C1879 1609 1885.17 1574.87 1858.58 1573.34Z" fill="#F1F1F1" stroke="#F1F1F1" stroke-miterlimit="10"/>
<path opacity="0.84" d="M384.25 1117.07C384.25 1117.07 410.19 1121.13 419.19 1096.93C419.19 1096.93 413.75 1122.93 434.19 1130.08C434.19 1130.08 410.92 1125.28 404.69 1152.74C404.66 1152.74 410.85 1118.6 384.25 1117.07Z" fill="#F1F1F1" stroke="#F1F1F1" stroke-miterlimit="10"/>
<path d="M564.41 1526.15C572.6 1526.15 572.62 1513.41 564.41 1513.41C556.2 1513.41 556.19 1526.15 564.41 1526.15Z" fill="#F1F1F1"/>
<path d="M729.15 1513.2C737.34 1513.2 737.36 1500.45 729.15 1500.45C720.94 1500.45 720.93 1513.2 729.15 1513.2Z" fill="#F1F1F1"/>
<path d="M1725 1367.89C1733.19 1367.89 1733.21 1355.15 1725 1355.15C1716.79 1355.15 1716.77 1367.89 1725 1367.89Z" fill="#F1F1F1"/>
<path d="M1914.72 990.29C1922.91 990.29 1922.93 977.54 1914.72 977.54C1906.51 977.54 1906.5 990.29 1914.72 990.29Z" fill="#F1F1F1"/>
<path d="M1578.76 1028.23C1586.95 1028.23 1586.97 1015.49 1578.76 1015.49C1570.55 1015.49 1570.54 1028.23 1578.76 1028.23Z" fill="#F1F1F1"/>
<path d="M1620.41 1165.21C1628.6 1165.21 1628.62 1152.46 1620.41 1152.46C1612.2 1152.46 1612.19 1165.21 1620.41 1165.21Z" fill="#F1F1F1"/>
<path d="M396 721.89C404.19 721.89 404.21 709.15 396 709.15C387.79 709.15 387.75 721.89 396 721.89Z" fill="#F1F1F1"/>
<path d="M383.93 1318.84C392.13 1318.84 392.14 1306.1 383.93 1306.1C375.72 1306.1 375.72 1318.84 383.93 1318.84Z" fill="#F1F1F1"/>
<path d="M1324.25 1028.23C1332.44 1028.23 1332.45 1015.49 1324.25 1015.49C1316.05 1015.49 1316 1028.23 1324.25 1028.23Z" fill="#F1F1F1"/>
<path d="M1345.67 2012.84C1349.78 2012.74 1353.68 2011.06 1356.59 2008.15C1359.49 2005.25 1361.16 2001.34 1361.26 1997.23L1360.71 1993.1C1359.99 1990.51 1358.61 1988.14 1356.71 1986.24L1353.57 1983.83C1351.19 1982.44 1348.48 1981.71 1345.72 1981.71C1341.61 1981.81 1337.71 1983.49 1334.8 1986.39C1331.9 1989.3 1330.22 1993.2 1330.12 1997.31L1330.69 2001.45C1331.4 2004.05 1332.78 2006.41 1334.69 2008.31L1337.84 2010.71C1340.21 2012.1 1342.92 2012.84 1345.67 2012.84Z" fill="#F1F1F1"/>
<path d="M1533.55 2982.77C1537.65 2982.66 1541.56 2980.98 1544.46 2978.08C1547.36 2975.17 1549.03 2971.26 1549.13 2967.16L1548.59 2963.02C1547.87 2960.43 1546.5 2958.07 1544.59 2956.17L1541.44 2953.76C1539.06 2952.37 1536.35 2951.64 1533.59 2951.64C1529.49 2951.74 1525.58 2953.42 1522.68 2956.32C1519.78 2959.23 1518.1 2963.14 1518 2967.24L1518.56 2971.37C1519.28 2973.97 1520.66 2976.33 1522.56 2978.24L1525.72 2980.64C1528.1 2982.03 1530.8 2982.76 1533.55 2982.77Z" fill="#F1F1F1"/>
<path d="M1758.44 4130.39C1762.54 4130.29 1766.45 4128.61 1769.35 4125.71C1772.25 4122.8 1773.93 4118.89 1774.03 4114.79L1773.48 4110.65C1772.76 4108.06 1771.38 4105.69 1769.48 4103.79L1766.33 4101.38C1763.95 4099.99 1761.24 4099.26 1758.48 4099.26C1754.38 4099.36 1750.47 4101.04 1747.57 4103.94C1744.67 4106.85 1742.99 4110.76 1742.89 4114.86L1743.45 4119C1744.16 4121.6 1745.54 4123.96 1747.45 4125.86L1750.61 4128.26C1752.98 4129.65 1755.69 4130.39 1758.44 4130.39Z" fill="#F1F1F1"/>
<path d="M429.42 2775.45C433.524 2775.35 437.43 2773.67 440.332 2770.77C443.234 2767.86 444.909 2763.95 445.01 2759.85L444.46 2755.71C443.742 2753.12 442.364 2750.75 440.46 2748.85L437.32 2746.45C434.938 2745.06 432.228 2744.33 429.47 2744.33C425.368 2744.43 421.463 2746.11 418.561 2749.01C415.66 2751.91 413.984 2755.82 413.88 2759.92L414.44 2764.06C415.149 2766.66 416.528 2769.03 418.44 2770.93L421.59 2773.32C423.964 2774.71 426.667 2775.45 429.42 2775.45Z" fill="#F1F1F1"/>
<path d="M707.07 708.8C711.174 708.696 715.081 707.019 717.982 704.115C720.884 701.212 722.559 697.304 722.66 693.2L722.11 689.06C721.392 686.469 720.014 684.109 718.11 682.21L715 679.8C712.618 678.41 709.908 677.678 707.15 677.68C703.048 677.784 699.143 679.46 696.241 682.361C693.34 685.263 691.664 689.168 691.56 693.27L692.12 697.41C692.829 700.011 694.208 702.38 696.12 704.28L699.28 706.68C701.644 708.061 704.332 708.792 707.07 708.8Z" fill="#F1F1F1"/>
<path d="M460.89 1631.53C464.994 1631.43 468.9 1629.75 471.802 1626.85C474.704 1623.94 476.379 1620.03 476.48 1615.93L475.93 1611.79C475.212 1609.2 473.834 1606.83 471.93 1604.93L468.79 1602.53C466.407 1601.14 463.698 1600.41 460.94 1600.41C456.836 1600.51 452.928 1602.19 450.025 1605.09C447.121 1607.99 445.444 1611.9 445.34 1616L445.91 1620.14C446.619 1622.74 447.998 1625.11 449.91 1627.01L453.06 1629.4C455.434 1630.79 458.137 1631.53 460.89 1631.53Z" fill="#F1F1F1"/>
<path d="M1641.83 1015.15C1645.94 1015.05 1649.84 1013.37 1652.75 1010.46C1655.65 1007.56 1657.32 1003.65 1657.42 999.54L1656.87 995.41C1656.16 992.814 1654.78 990.449 1652.87 988.55L1649.73 986.14C1647.35 984.75 1644.64 984.018 1641.88 984.02C1637.77 984.121 1633.87 985.798 1630.96 988.701C1628.06 991.605 1626.38 995.515 1626.28 999.62L1626.85 1003.75C1627.56 1006.35 1628.94 1008.72 1630.85 1010.62L1634 1013.02C1636.37 1014.41 1639.08 1015.15 1641.83 1015.15Z" fill="#F1F1F1"/>
<path d="M365.44 1943.61C371.98 1948.55 379.69 1938.41 373.13 1933.45C366.57 1928.49 358.89 1938.66 365.44 1943.61Z" fill="#F1F1F1"/>
<path d="M1386.49 2517.59C1393.03 2522.53 1400.74 2512.38 1394.19 2507.43C1387.64 2502.48 1379.94 2512.63 1386.49 2517.59Z" fill="#F1F1F1"/>
<path d="M1765.62 2330.91C1772.15 2335.85 1779.86 2325.7 1773.31 2320.74C1766.76 2315.78 1759.07 2326 1765.62 2330.91Z" fill="#F1F1F1"/>
<path d="M1474.8 2158.48C1481.33 2163.43 1489.04 2153.28 1482.49 2148.32C1475.94 2143.36 1468.24 2153.52 1474.8 2158.48Z" fill="#F1F1F1"/>
<path d="M1425.37 2292.85C1431.91 2297.79 1439.61 2287.65 1433.06 2282.69C1426.51 2277.73 1418.82 2287.89 1425.37 2292.85Z" fill="#F1F1F1"/>
<path d="M346.59 1669.4C353.12 1674.34 360.82 1664.19 354.27 1659.24C347.72 1654.29 340 1664.44 346.59 1669.4Z" fill="#F1F1F1"/>
<path d="M1271.82 2004.93C1278.35 2009.93 1286.06 1999.73 1279.51 1994.77C1272.96 1989.81 1265.27 2000 1271.82 2004.93Z" fill="#F1F1F1"/>
<path d="M919.24 1549.05C925.77 1553.99 933.48 1543.84 926.93 1538.89C920.38 1533.94 912.68 1544.09 919.24 1549.05Z" fill="#F1F1F1"/>
<path d="M1533 2186.1C1536.33 2188.5 1540.45 2189.52 1544.52 2188.96C1548.58 2188.4 1552.28 2186.3 1554.84 2183.1L1556.91 2179.46C1557.9 2176.96 1558.22 2174.24 1557.85 2171.57L1556.79 2167.76C1555.72 2165.21 1554 2162.99 1551.79 2161.33C1548.46 2158.93 1544.34 2157.91 1540.27 2158.47C1536.21 2159.03 1532.51 2161.13 1529.95 2164.33L1527.95 2167.97C1526.93 2170.47 1526.59 2173.19 1526.95 2175.86L1528.02 2179.67C1529.08 2182.21 1530.8 2184.43 1533 2186.1Z" fill="#F1F1F1"/>
<path d="M1897.13 4204.56C1905.32 4204.56 1905.34 4191.81 1897.13 4191.81C1888.92 4191.81 1888.91 4204.56 1897.13 4204.56Z" fill="#F1F1F1"/>
<path d="M1561.17 4242.5C1569.36 4242.5 1569.38 4229.76 1561.17 4229.76C1552.96 4229.76 1553 4242.5 1561.17 4242.5Z" fill="#F1F1F1"/>
<path d="M378.38 3936.16C386.57 3936.16 386.59 3923.42 378.38 3923.42C370.17 3923.42 370.16 3936.16 378.38 3936.16Z" fill="#F1F1F1"/>
<path d="M1306.66 4242.5C1314.85 4242.5 1314.87 4229.76 1306.66 4229.76C1298.45 4229.76 1298.44 4242.5 1306.66 4242.5Z" fill="#F1F1F1"/>
<path d="M750.43 4091.65C758.62 4091.65 758.64 4078.9 750.43 4078.9C742.22 4078.9 742.22 4091.65 750.43 4091.65Z" fill="#F1F1F1"/>
<path d="M1713 3352.17C1721.19 3352.17 1721.21 3339.43 1713 3339.43C1704.79 3339.43 1704.74 3352.17 1713 3352.17Z" fill="#F1F1F1"/>
<path d="M1902.68 2974.57C1910.88 2974.57 1910.89 2961.82 1902.68 2961.82C1894.47 2961.82 1894.47 2974.57 1902.68 2974.57Z" fill="#F1F1F1"/>
<path d="M1566.73 3012.51C1574.92 3012.51 1574.94 2999.77 1566.73 2999.77C1558.52 2999.77 1558.51 3012.51 1566.73 3012.51Z" fill="#F1F1F1"/>
<path d="M1608.37 3149.49C1616.57 3149.49 1616.58 3136.74 1608.37 3136.74C1600.16 3136.74 1600.16 3149.49 1608.37 3149.49Z" fill="#F1F1F1"/>
<path d="M383.93 2706.17C392.13 2706.17 392.14 2693.43 383.93 2693.43C375.72 2693.43 375.72 2706.17 383.93 2706.17Z" fill="#F1F1F1"/>
<path d="M371.9 3303.12C380.09 3303.12 380.11 3290.37 371.9 3290.37C363.69 3290.37 363.68 3303.12 371.9 3303.12Z" fill="#F1F1F1"/>
<path d="M1312.21 3012.51C1320.4 3012.51 1320.42 2999.77 1312.21 2999.77C1304 2999.77 1304 3012.51 1312.21 3012.51Z" fill="#F1F1F1"/>
<path d="M756 2861.65C764.19 2861.65 764.21 2848.91 756 2848.91C747.79 2848.91 747.77 2861.65 756 2861.65Z" fill="#F1F1F1"/>
<path d="M1629.8 2999.42C1633.9 2999.32 1637.81 2997.64 1640.71 2994.74C1643.61 2991.83 1645.29 2987.92 1645.39 2983.82L1644.84 2979.68C1644.12 2977.09 1642.75 2974.73 1640.84 2972.83L1637.7 2970.42C1635.32 2969.03 1632.61 2968.3 1629.85 2968.3C1625.75 2968.4 1621.84 2970.08 1618.93 2972.98C1616.03 2975.88 1614.35 2979.79 1614.25 2983.89L1614.82 2988.03C1615.53 2990.63 1616.91 2993 1618.82 2994.9L1621.97 2997.3C1624.35 2998.69 1627.05 2999.42 1629.8 2999.42Z" fill="#F1F1F1"/>
</svg>
