<svg width="390" height="510" viewBox="0 0 390 510" fill="none" xmlns="http://www.w3.org/2000/svg">
<path d="M-62.62 27.77C-60.9 31.04 -59.43 34.51 -57.62 37.77C-55.21 42.14 -51.62 45.62 -48.45 49.42C-45.9833 52.44 -43.57 55.5134 -41.21 58.64C-40.03 60.21 -38.88 61.79 -37.74 63.38C-36.97 64.45 -36.22 65.52 -35.48 66.59C-37.64 63.29 -36.9067 64.3833 -33.28 69.87C-36.23 65.36 -32.72 70.78 -32.28 71.4C-31.26 73.04 -30.26 74.69 -29.28 76.35C-27.61 79.14 -26.11 82.02 -24.48 84.81C-20.2 92.15 -15.82 99.37 -12 107.02C-4.8944 121.285 1.06765 136.091 5.82999 151.3C6.43999 153.24 6.99999 155.17 7.58999 157.1C9.58999 163.72 6.17999 151.27 7.83999 158.02C8.83999 162.02 9.83998 165.89 10.64 169.9C12.4867 178.533 13.97 187.293 15.09 196.18C19.28 229.74 19.77 264.94 33.68 294.61C46.49 321.93 70.31 342.06 98.15 354.08C127.55 366.77 160.26 373.3 190.75 383.93L182.29 380.93C198.17 386.56 213.43 393.46 226.55 403.22L219.36 397.75C227.108 403.634 233.86 410.725 239.36 418.75L234.36 411.21C246.53 430.03 253.19 452.61 268.65 469.07C282.55 483.86 301.65 492.98 322.52 497.61C341.67 501.84 362.61 502.05 383.09 501.79C392.09 501.68 401.09 501.41 410.04 501.27C414.633 501.203 419.217 501.18 423.79 501.2C425.89 501.2 428 501.26 430.12 501.31L433.69 501.42C438.31 501.57 431.09 501.16 430.24 501.22C436.07 500.79 442.24 502.22 447.75 503.03C453.51 503.85 459.177 504.85 464.75 506.03C475.85 508.466 486.79 511.578 497.51 515.35L488.95 512.35C514.84 521.54 538.74 533.94 561.95 547.35C587.124 561.869 611.325 578.013 634.4 595.68L627.4 590.31C657.833 613.777 686.617 639.307 713.55 666.72C726.83 680.227 739.83 693.99 752.55 708.01C758.9 715.01 764.79 722.39 771.6 728.92C778.6 735.67 785.49 742.56 792.23 749.6C793.928 751.301 795.959 752.631 798.197 753.507C800.434 754.383 802.829 754.786 805.23 754.69C810.717 754.505 816.007 752.598 820.35 749.24C830.1 741.92 833.53 730.59 830.08 721.24C826.487 711.493 822.713 701.827 818.76 692.24C814.76 682.77 809.14 674.24 803.83 665.61C792.353 646.938 779.603 629.079 765.67 612.16C739.855 581.004 710.64 552.83 678.57 528.16C613.65 477.75 539.78 431.16 448.19 426.57C428.42 425.57 408.19 426.75 388.19 426.81C383.31 426.81 378.4 426.76 373.58 426.62C365.75 426.35 381.94 427.22 374.06 426.62C371.71 426.46 369.37 426.25 367.06 426C357.919 425.102 348.909 423.177 340.2 420.26L348.74 423.26C341.815 420.789 335.292 417.312 329.38 412.94L336.58 418.41C330.981 413.934 326.125 408.602 322.19 402.61L327.19 410.15C315.37 391.62 308.36 370.15 293.9 353.49C282.38 340.2 267.06 329.63 250.65 322.21C218.77 308 182.73 301.82 149 291C146.47 290.18 137.9 286.91 148.82 291C146.82 290.24 144.82 289.52 142.82 288.77C139.59 287.54 136.63 286.48 133.12 285.29C133.64 285.46 140.96 288.21 136.86 286.49C134.69 285.58 132.5 284.71 130.36 283.75C122.251 280.178 114.564 275.718 107.44 270.45L114.06 275.52C107.495 270.369 101.629 264.386 96.61 257.72C94.15 254.54 99.97 263.32 97.98 259.78C97.36 258.69 96.68 257.65 96.07 256.55C94.85 254.377 93.72 252.157 92.68 249.89C90.5266 244.975 88.6764 239.932 87.14 234.79C85.47 229.47 87.87 236.62 87.7 236.79C87.8 236.69 86.7 232.72 86.77 233C86.16 230.46 85.61 227.9 85.09 225.32C83.99 219.82 83.09 214.26 82.18 208.66C80.48 197.81 79.04 186.87 77.09 176.1C72.9103 152.539 66.0803 129.526 56.73 107.5C47.63 86.31 35.87 65.23 21.11 48.1C13.4831 39.2734 5.24261 30.9961 -3.55001 23.33C-7.97001 19.44 -12.55 15.74 -17.22 12.13C-20.85 9.36001 -23.79 6.87001 -28.22 5.29001C-32.0267 3.91668 -35.8633 2.58335 -39.73 1.29001C-52.82 -2.99999 -68.49 16.59 -62.62 27.77Z" fill="#F1F1F1" fill-opacity="0.05"/>
<path d="M54.53 483.17C85.81 507.45 121.47 529.17 137.45 563.96C152.79 597.35 146.94 641.66 157.51 677.56C178.51 748.91 239.94 799.42 333.31 815.79C421.9 831.33 530.41 820.79 630.7 820.46C643.44 820.46 656.043 820.627 668.51 820.96C671.19 821.04 673.85 821.14 676.51 821.24C682.23 821.43 678.17 821.3 676.98 821.24L680.98 821.43C687.14 821.75 693.267 822.117 699.36 822.53C723.25 824.21 746.43 826.84 768.65 830.53C790.451 834.054 812.002 838.978 833.17 845.27C837.89 846.68 842.44 848.27 847.1 849.73C849.9 850.63 846.57 849.53 846.2 849.39L849.3 850.51C852.053 851.51 854.78 852.547 857.48 853.62C866.587 857.22 875.347 861.14 883.76 865.38C900.736 873.793 916.648 884.199 931.16 896.38C932.67 897.66 934.16 898.93 935.59 900.27C936.31 900.92 937 901.6 937.74 902.27C940.39 904.57 935.29 899.75 937.74 902.21C940.91 905.42 944.04 908.65 946.98 912.02C952.638 918.456 957.831 925.287 962.52 932.46C967.381 939.846 971.648 947.608 975.28 955.67C976.96 959.423 978.507 963.24 979.92 967.12C980.7 969.21 981.38 971.35 982.1 973.47C980.58 968.97 982.73 975.84 983.1 977.1C987.674 995.213 989.448 1013.92 988.36 1032.57C988.12 1037.23 987.61 1041.96 987.13 1046.7C987.57 1042.41 987.02 1047.4 986.76 1049.03C986.267 1052.02 985.703 1055.04 985.07 1058.09L1056.39 1027.17C1034.84 993.6 989.79 978.17 941.9 966.73C918.9 961.24 895.74 955.73 873.54 949.43C867.667 947.717 861.823 945.983 856.01 944.23C853.65 943.55 851.34 942.82 849.07 942.07L844.47 940.61C843.56 940.32 837.13 938.08 841.47 939.67C847.47 941.79 834.87 937.32 835.4 937.48C833.87 937 832.23 936.61 830.69 936.14C828.023 935.313 825.357 934.447 822.69 933.54C816.97 931.68 811.32 929.76 805.69 927.82C800.06 925.88 806.25 927.93 807.03 928.31C806.03 927.83 804.81 927.51 803.73 927.11C801.14 926.18 798.58 925.25 796.04 924.29C790.22 922.117 784.44 919.883 778.7 917.59C768.31 913.45 757.79 909.43 747.44 905.26C726.3 896.8 705.933 887.633 686.34 877.76C646.85 857.82 612.21 834.21 577.91 810.03C560.59 797.83 542.43 786.17 520.51 777.86C497.18 769.02 471.51 763.1 443.87 758.86C418.6 754.95 392.21 752.47 366.69 748.86C354.868 747.251 343.138 745.021 331.55 742.18C326.263 740.847 321.097 739.4 316.05 737.84C313.57 737.06 311.25 736.01 308.59 735.4C309.38 735.58 316.1 738.21 310.64 736.12C309.26 735.6 307.88 735.12 306.51 734.55C287.082 727.287 268.795 717.275 252.21 704.82C248.57 702.033 245.06 699.137 241.68 696.13C239.99 694.64 238.37 693.13 236.68 691.58C234.36 689.5 238.31 693.16 238.33 693.2C237.298 691.97 236.168 690.826 234.95 689.78C228.544 683.158 222.556 676.145 217.02 668.78C205.54 653.58 197.61 636 191.12 618C190.36 615.89 189.62 613.77 188.92 611.61C188.6 610.7 188.32 609.78 188.01 608.86C187.2 606.35 189.3 605.6 188.32 609.86C188.82 607.66 186.96 605.06 186.49 603.29C185.823 600.77 185.187 598.237 184.58 595.69C182.407 586.45 180.673 577 179.38 567.34C176.55 545.75 177.43 522.46 173.51 501.34C169.1 477.58 159.64 457.34 139.8 442.96C123.13 430.83 99.57 423.42 75.45 418.19C51.2038 413.105 26.6774 409.462 2 407.28C-5.91367 406.651 -13.8706 406.821 -21.75 407.79C-29.57 408.6 -37.91 408.79 -46.47 411.37L-36.14 410.65L-38.65 410.33C-48.21 409.12 -62.46 414.89 -71.02 424.53C-79.02 433.53 -79.02 443.64 -69.36 444.87L-66.85 445.18L-73.33 441.27C-70.43 445.27 -65.42 447.34 -60.53 449.82C-54.53 452.82 -48.6 455.71 -41.08 457.32C-29.57 459.79 -18.08 462.23 -7 465.17C-4.33 465.88 -1.68 466.61 0.93 467.36L4.27 468.36C4.95 468.56 9.59 469.97 6.63 469.02C3.92 468.16 7.46 469.33 7.75 469.44C9.12 469.96 10.48 470.44 11.84 471.02C14.5067 472.1 17.1733 473.21 19.84 474.35C29.2787 478.425 38.2952 483.415 46.76 489.25C50.4539 491.879 54.0025 494.706 57.39 497.72C61.33 501.19 54.29 494.35 57.72 498.12C59.59 500.19 61.63 502.12 63.48 504.23C69.6425 511.117 74.7696 518.865 78.7 527.23C79.74 529.397 80.69 531.627 81.55 533.92C82.04 535.22 82.47 536.55 82.94 537.92C84 540.92 82.45 536.21 82.37 536.08C84.99 540.23 84.92 546.8 85.76 551.92C87.56 562.74 88.55 573.92 89.76 585.03C94.26 626.49 103.86 665.74 122.43 699.96C131.163 716.393 141.672 731.819 153.77 745.96C161.057 754.244 168.863 762.056 177.14 769.35C178.14 770.2 179.06 771.08 180.07 771.9C180.89 772.57 182.16 774.95 180.39 771.9C177.49 766.9 184.51 775.76 184.49 775.74C185.49 776.61 186.49 777.43 187.49 778.26C191.263 781.367 195.183 784.367 199.25 787.26C216.08 799.082 234.421 808.594 253.78 815.54C260.78 818.1 267.69 820.83 275.21 822.88C280.78 824.39 272.92 822.02 273.21 821.88C273.69 821.58 282.39 825.07 283.11 825.3C286.11 826.21 289.22 827.02 292.32 827.83C303.53 830.75 315.18 833.3 326.92 835.69C350.77 840.57 376.81 842.96 400.5 848.03C412.14 850.49 423.22 853.5 434 856.84C440.25 858.77 431.64 856.24 431.33 855.84C431.89 856.58 434.98 857.21 435.8 857.53C438.01 858.4 440.17 859.3 442.31 860.23C448.01 862.703 453.497 865.37 458.77 868.23C478.05 878.46 495.02 890.61 512.77 902.14C530.52 913.67 548.95 924.46 568.29 934.57C608.29 955.49 651.41 974.57 699.22 988.3C722.22 994.89 746.22 1000.39 770.42 1005.82C794.3 1011.2 820.59 1014.2 846.04 1017.82C870.22 1021.23 894.32 1024.57 916.48 1030.24C921.767 1031.57 926.953 1033.03 932.04 1034.62L936.33 1035.99C936.7 1036.11 940.22 1037.31 937.39 1036.33C934.33 1035.27 938.73 1036.83 939.39 1037.1C941.103 1037.77 942.787 1038.43 944.44 1039.1C953.62 1042.76 962.307 1047.56 970.3 1053.37C972.11 1054.73 973.81 1056.17 975.54 1057.59C975.85 1057.84 978.25 1059.94 976.22 1058.1C974.01 1056.1 976.95 1058.88 977.42 1059.39C980.588 1062.82 983.436 1066.53 985.93 1070.48C990.82 1078.14 1006.42 1079.76 1022.61 1072.32C1038.03 1065.23 1054.95 1051.22 1057.26 1039.56C1075.03 949.89 1043.35 879.77 978.88 834.56C916.49 790.78 824.58 772 723.79 767.63C674.22 765.48 621.99 767.32 569.5 769.43C543.58 770.43 517.69 771.43 492.24 771.81C479.573 771.97 467.027 771.97 454.6 771.81C448.86 771.7 443.19 771.51 437.52 771.31C434.3 771.2 437.68 771.31 438.21 771.31C436.47 771.23 434.76 771.16 433.03 771.04L424.03 770.53C401.213 769.048 378.53 765.954 356.15 761.27C345.427 758.962 334.835 756.081 324.42 752.64C321.94 751.83 324.07 752.57 324.54 752.73C323.11 752.23 321.71 751.73 320.32 751.16C318.21 750.38 316.15 749.56 314.1 748.71C308.96 746.63 303.997 744.4 299.21 742.02C282.387 733.719 266.763 723.184 252.76 710.7C252.54 710.5 250.17 708.28 251.97 710.03C251.27 709.34 250.58 708.62 249.91 707.95C248.31 706.34 246.74 704.69 245.23 703.02C242.217 699.687 239.327 696.247 236.56 692.7C231.092 685.556 226.238 677.962 222.05 670C213.559 654.402 207.981 637.387 205.59 619.79C202.59 599.95 201.43 579.21 196.78 560.14C191.7 539.32 182.33 521.78 167.16 507C152.85 493.09 135.47 481.42 115.3 472.17C105.09 467.47 94.12 463.56 83.12 459.57C69.21 454.47 43.72 474.85 54.52 483.24L54.53 483.17Z" fill="#F1F1F1" fill-opacity="0.05"/>
<path d="M132.43 171.22C132.779 171.123 133.08 170.898 133.272 170.59C133.464 170.282 133.533 169.914 133.467 169.557C133.4 169.2 133.202 168.882 132.912 168.664C132.622 168.446 132.261 168.345 131.9 168.38C131.551 168.477 131.25 168.702 131.058 169.01C130.866 169.318 130.797 169.686 130.863 170.043C130.93 170.399 131.128 170.718 131.418 170.936C131.708 171.154 132.069 171.255 132.43 171.22Z" fill="#F1F1F1"/>
<path d="M268.8 132.2L268.73 131.85C268.705 131.718 268.655 131.593 268.581 131.481C268.507 131.37 268.412 131.274 268.3 131.2C268.191 131.122 268.068 131.067 267.937 131.038C267.807 131.009 267.672 131.006 267.54 131.03L267.18 131.09C266.942 131.145 266.719 131.255 266.53 131.41C266.389 131.518 266.281 131.663 266.22 131.83C266.15 131.926 266.108 132.041 266.1 132.16C266.035 132.396 266.035 132.644 266.1 132.88C266.126 132.998 266.181 133.108 266.26 133.2C266.347 133.357 266.47 133.491 266.62 133.59L266.94 133.75L267.28 133.83H267.65L268.01 133.71L268.31 133.51C268.447 133.403 268.554 133.261 268.62 133.1C268.689 132.999 268.73 132.882 268.74 132.76C268.795 132.584 268.795 132.396 268.74 132.22L268.8 132.2Z" fill="#F1F1F1"/>
<path opacity="0.84" d="M174.29 358.3C174.29 358.3 183.5 358.03 185.05 349.11C185.05 349.11 184.84 358.43 192.34 359.58C192.34 359.58 184.01 359.42 183.62 369.29C183.62 369.29 183.56 357.12 174.29 358.3Z" fill="#F1F1F1" stroke="#F1F1F1" stroke-miterlimit="10"/>
<path d="M262.72 487.85C265.54 487.32 264.72 482.92 261.9 483.45C259.08 483.98 259.88 488.38 262.72 487.85Z" fill="#F1F1F1"/>
<path d="M318.72 472.79C321.54 472.27 320.72 467.87 317.9 468.4C315.08 468.93 315.88 473.32 318.72 472.79Z" fill="#F1F1F1"/>
<path d="M152.94 221.22C155.77 220.69 154.94 216.29 152.12 216.82C149.3 217.35 150.1 221.75 152.94 221.22Z" fill="#F1F1F1"/>
<path d="M187.14 427.92C189.97 427.4 189.14 423 186.32 423.53C183.5 424.06 184.31 428.45 187.14 427.92Z" fill="#F1F1F1"/>
<path d="M241.56 265.78C242.968 265.48 244.208 264.651 245.023 263.464C245.838 262.277 246.166 260.822 245.94 259.4L245.48 258.01C245.069 257.159 244.441 256.431 243.66 255.9L242.42 255.27C241.51 254.945 240.53 254.865 239.58 255.04C238.17 255.338 236.929 256.166 236.114 257.354C235.298 258.542 234.971 259.998 235.2 261.42L235.66 262.82C236.071 263.671 236.699 264.399 237.48 264.93L238.72 265.55C239.629 265.88 240.61 265.96 241.56 265.78Z" fill="#F1F1F1"/>
<path d="M386.6 473C389.17 474.29 391.17 470.29 388.6 469C386.03 467.71 384 471.66 386.6 473Z" fill="#F1F1F1"/>
</svg>
