	<svg
		viewBox="0 0 716 457"
		fill="none"
		xmlns="http://www.w3.org/2000/svg"
	>
		<path
			d="M144.934 258.15C144.934 258.15 -94.5924 369.955 369.805 273.389C369.805 273.389 803.601 176.346 580.738 186.094"
			stroke="#F2F2F2"
			stroke-width="3"
			stroke-miterlimit="10"
		/>
		<path
			d="M142.824 242.064C142.824 242.064 -196.092 414.36 381.93 283.917C381.93 283.917 907.608 164.914 577.728 171.651"
			stroke="#F2F2F2"
			stroke-width="3"
			stroke-miterlimit="10"
		/>
		<path
			d="M142.159 228.504C142.159 228.504 -300.84 447.326 388.32 297.067C388.32 297.067 977.001 167.539 570.382 151.331"
			stroke="#F2F2F2"
			stroke-width="3"
			stroke-miterlimit="10"
		/>
		<path
			d="M365.295 457C491.215 457 593.294 354.697 593.294 228.5C593.294 102.303 491.215 0 365.295 0C239.375 0 137.296 102.303 137.296 228.5C137.296 354.697 239.375 457 365.295 457Z"
			fill="url(#paint0_linear_656_17)"
		/>
		<mask
			id="mask0_656_17"
			style="mask-type:luminance"
			maskUnits="userSpaceOnUse"
			x="137"
			y="0"
			width="457"
			height="457"
		>
			<path
				d="M365.53 456.601C491.572 456.601 593.749 354.388 593.749 228.301C593.749 102.214 491.572 0 365.53 0C239.488 0 137.311 102.214 137.311 228.301C137.311 354.388 239.488 456.601 365.53 456.601Z"
				fill="white"
			/>
		</mask>
		<g mask="url(#mask0_656_17)">
			<g opacity="0.48">
				<path
					d="M78.942 229.954C104.877 207.945 136.759 194.134 170.548 190.27C210.238 185.589 250.963 186.864 290.811 187.959C332.04 189.381 373.318 188.21 414.4 184.453C454.229 180.469 493.898 173.915 526.638 149.232C542.569 137.159 556.947 123.473 571.863 110.126C575.149 107.197 578.535 104.388 581.82 101.54C583.294 100.265 584.728 98.9698 586.202 97.7147C586.978 97.0573 593.152 91.7382 589.149 95.1448C583.513 99.926 596.278 91.5391 596.219 89.5868C598.197 87.9133 597.606 88.2852 594.446 90.7024L596.796 89.009C601.967 84.8608 606.753 80.2535 611.095 75.2432C629.515 55.3217 616.073 24.7024 589.527 23.1684C586.013 22.9393 582.487 22.9393 578.973 23.1684C574.881 23.1714 570.827 23.9488 567.024 25.4594C551.371 30.5394 557.883 29.2843 561.846 27.6308C551.238 32.082 541.283 37.9527 532.254 45.0821C518.533 55.7003 506.365 68.2109 493.44 79.7056C490.493 82.2954 487.466 84.7657 484.459 87.3157C490.672 82.0165 482.467 88.6704 480.337 90.1446C477.509 92.057 474.615 93.8632 471.654 95.5632C469.662 96.6589 467.791 97.7147 465.819 98.6909C463.449 99.8862 458.75 101.659 463.828 99.7866C455.192 102.994 446.333 105.564 437.321 107.476C432.801 108.432 428.241 109.249 423.68 110.006C421.39 110.385 419.1 110.704 416.81 111.062C409.879 112.098 418.801 110.903 414.5 111.361C372.679 115.744 330.859 120.943 289.039 125.525C247.219 130.107 205.08 134.848 165.231 149.829C127.394 164.073 89.2775 182.262 59.9835 210.809C47.3378 223.141 65.9577 241.11 79.1212 229.954H78.942Z"
					fill="#F2F2F2"
				/>
			</g>
			<g opacity="0.48">
				<path
					d="M507.739 33.0102C498.658 45.1424 483.005 51.9356 469.025 56.418C452.711 61.6474 436.083 65.8393 419.239 68.9685C385.126 75.3235 350.674 74.0485 316.362 69.9446C282.666 65.9603 249.13 60.3823 215.495 55.9996C182.457 51.6169 146.81 49.047 114.37 58.45L121.818 85.5033C139.866 79.1524 158.69 75.2724 177.777 73.9688C195.7 72.6142 213.822 74.1879 231.785 74.5067C268.547 75.1442 305.17 73.8891 341.036 64.9045C358.023 60.6413 375.209 54.0273 392.813 52.8121C412.628 51.4176 432.184 51.6368 451.879 48.4892C470.898 45.4714 489.472 40.1186 507.181 32.552C525.172 24.7925 541.816 14.2217 556.489 1.23535C565.55 -6.61373 558.481 -24.2243 546.373 -23.2083C527.952 -21.5424 509.738 -18.0863 491.987 -12.889C474.342 -7.8887 456.858 -2.2509 438.755 0.876777C421.091 3.92477 402.91 2.86888 385.245 5.00048C364.654 7.55044 346.691 15.2003 327.295 21.9537C293.659 33.6676 257.853 36.1976 222.784 40.6202C186.639 45.1623 149.658 49.1864 114.39 58.5495C96.8052 63.1514 104.273 89.2686 121.838 85.603C156.548 78.3516 190.622 75.1044 226.09 78.6305C262.214 82.1964 297.901 89.3283 334.125 92.3165C369.884 95.4831 405.918 92.914 440.866 84.7065C470.519 77.6543 507.361 70.6419 525.423 43.5288C532.891 32.3129 515.466 22.8303 507.679 33.1695L507.739 33.0102Z"
					fill="#F2F2F2"
				/>
			</g>
			<g opacity="0.48">
				<path
					d="M79.2409 313.525C86.2799 311.11 93.7139 310.055 101.147 310.417C110.745 310.636 120.324 311.134 129.923 311.374C135.618 311.533 125.283 310.377 130.799 311.513C133.01 311.971 135.26 312.27 137.471 312.668C141.453 313.386 145.257 314.143 149.14 315.019C160.014 317.469 170.688 320.677 181.561 322.988C221.39 331.813 260.82 340.479 301.784 337.092C374.532 331.116 440.528 301.512 508.894 278.204C525.005 272.706 541.295 267.606 557.804 263.402C565.989 261.41 574.233 259.418 582.518 257.904C586.66 257.127 590.802 256.47 594.964 255.792C597.155 255.454 602.034 253.8 593.809 255.932C596.393 255.453 599.009 255.174 601.635 255.095C609.601 254.358 617.408 253.92 625.314 253.88C629.954 253.88 634.614 253.88 639.254 254.259C641.584 254.418 643.894 254.637 646.204 254.876C637.043 253.92 648.076 255.474 649.35 255.773C651.581 256.29 653.771 256.988 656.002 257.566C656.5 257.705 661.976 259.338 657.774 257.944C653.572 256.549 659.108 258.581 660.164 259.139C661.896 260.036 663.569 261.012 665.202 262.048C666.477 262.845 670.997 266.809 667.194 263.183C663.39 259.558 667.692 263.92 668.647 264.857C669.603 265.793 674.064 270.295 670.32 266.251C666.576 262.207 671.316 268.243 672.073 269.339C676.693 276.212 671.396 267.566 671.615 267.706C672.69 268.343 672.192 273.144 673.208 273.323C672.232 273.144 673.208 263.363 672.809 271.451C672.809 272.228 672.531 277.148 672.63 277.248C671.674 276.332 675.12 268.004 672.63 275.256C672.157 277.15 671.586 279.019 670.918 280.854C670.36 280.694 675.657 272.228 671.336 279.539C670.101 281.651 668.627 283.782 667.532 285.974C665.122 290.775 672.073 281.292 668.289 285.137C667.253 286.213 666.297 287.408 665.282 288.484C663.888 289.938 662.414 291.253 660.96 292.647C655.962 297.389 660.423 292.906 661.618 292.169C657.814 294.5 654.03 296.791 650.127 299.002C643.834 302.548 648.872 299.799 650.446 299.142C647.339 300.417 644.153 301.532 640.966 302.568C632.889 305.118 624.662 307.167 616.332 308.704C611.832 309.581 607.311 310.338 602.79 311.055L595.263 312.19C592.369 312.589 592.727 312.549 596.338 312.071L592.554 312.529C571.724 314.939 550.854 316.513 529.884 316.852C519.01 317.031 508.097 316.852 497.224 316.434C492.026 316.175 486.869 315.716 481.691 315.278C473.984 314.641 480.357 315.178 481.91 315.418C479.082 314.993 476.254 314.515 473.426 313.983C468.388 313.027 463.469 311.872 458.431 310.457C456.26 309.82 454.07 309.142 451.919 308.465C450.624 308.027 441.125 303.584 448.693 307.429C444.351 305.218 440.15 302.688 435.828 300.476C432.084 298.484 437.561 301.891 437.939 302.23C431.666 296.811 440.548 308.525 436.923 301.413C439.99 307.389 440.269 308.983 438.915 318.167C439.771 312.19 437.68 318.983 436.923 321.354C435.529 325.558 437.083 321.354 438.716 319.661C440.349 317.968 442.5 316.294 444.431 314.621C438.457 319.761 442.918 315.816 444.431 314.82C446.801 313.147 449.151 311.473 451.501 309.76C455.742 306.672 459.885 303.504 464.186 300.496C473.183 294.142 482.642 288.468 492.484 283.523C497.144 281.212 501.864 279.021 506.644 276.949C505.21 277.567 500.669 279.28 507.46 276.67C510.726 275.435 513.972 274.2 517.238 273.005C534.564 266.709 546.074 251.709 543.525 232.723C541.315 216.169 525.602 199.076 507.48 200.849C473.964 204.196 444.431 219.635 417.029 238.6C400.898 249.756 387.834 262.506 380.745 281.172C374.014 298.863 375.328 320.239 385.982 336.176C396.159 351.336 414.121 358.368 431.447 351.057C446.921 344.523 458.829 325.159 452.516 308.106C451.72 305.935 450.664 297.966 451.262 305.696C450.804 299.719 450.983 306.035 449.649 309.083C455.743 295.137 456.599 281.192 446.801 268.542C437.401 256.37 423.222 252.605 408.426 255.454C393.629 258.303 378.893 264.199 367.92 274.738C361.131 281.232 356.149 289.381 353.462 298.385C352.174 303.187 351.505 308.135 351.471 313.107C351.471 314.601 351.471 316.115 351.471 317.609C354.697 299.56 364.827 291.831 381.86 294.42L372.122 366.417C363.838 365.381 374.273 367.154 375.268 367.393C378.455 368.19 381.502 369.246 384.608 370.262C378.893 368.369 386.321 371.019 388.053 372.015C390.852 373.704 393.552 375.553 396.139 377.553L423.083 313.067C389.657 299.872 354.256 292.377 318.353 290.894C302.195 290.222 286.009 290.889 269.961 292.886C258.908 294.201 247.876 295.775 236.863 297.309L229.196 298.365C232.283 297.946 232.462 297.926 229.734 298.265C225.253 298.743 220.792 299.361 216.312 299.799C199.532 301.559 182.617 301.605 165.829 299.938C164.036 299.759 162.264 299.56 160.472 299.321C164.707 299.879 164.547 299.819 159.994 299.142C156.469 298.464 152.924 297.907 149.399 297.15C141.155 295.536 132.95 293.663 124.785 291.651C90.0146 283.125 55.5626 271.331 19.398 271.73C10.79 271.819 2.5017 275.004 -3.95207 280.703C-10.4058 286.402 -14.5941 294.234 -15.751 302.767C-18.061 319.98 -7.46658 337.53 9.87886 342.053C41.264 350.201 72.8681 357.87 104.432 365.48C139.183 373.847 174.75 379.425 210.556 376.397C229.973 374.724 249.25 371.576 268.547 368.887C261.617 369.863 272.53 368.409 273.785 368.249C278.903 367.632 284.04 366.994 289.178 366.516C297.064 365.786 304.977 365.367 312.916 365.261C346.771 364.903 370.091 368.987 404.344 381.198C420.912 387.175 439.672 375.82 446.044 360.719C453.154 343.865 446.303 326.594 431.586 316.553C416.522 306.024 399.551 298.533 381.621 294.5C362.922 290.516 341.135 299.978 336.555 320.099C332.213 339.204 342.29 360.062 362.145 365.181C390.025 372.393 419.717 354.942 423.66 325.558C423.939 323.566 426.887 308.306 423.521 319.043C422.582 322.172 420.893 325.023 418.602 327.351C414.44 330.219 413.544 330.897 415.874 329.343C423.262 324.542 410.835 329.92 417.626 328.347C420.992 327.57 424.258 326.554 427.583 325.876L386.361 272.248C378.714 290.038 374.97 308.704 382.059 327.49L448.593 299.421C446.024 295.636 448.076 298.166 448.593 300.676C448.925 305.311 449.084 306.227 449.071 303.425C449.071 301.333 449.071 301.433 448.872 304.003C447.259 310.158 451.64 299.64 448.872 304.899C446.104 310.158 451.979 300.915 448.733 305.377C445.984 309.083 451.461 302.887 452.138 302.23C454.508 299.879 454.946 300.237 452.138 302.07C456.121 299.401 460.004 296.771 464.087 294.241C472.358 288.851 480.914 283.91 489.717 279.439C491.987 278.324 494.137 277.686 490.553 278.981C492.684 278.204 494.834 277.407 497.005 276.71C499.674 275.893 502.641 275.495 505.25 274.559C510.328 272.766 497.623 275.017 507.381 274.3L497.623 202.184C474.841 209.996 452.669 219.484 431.288 230.572C409.163 241.827 385.644 256.33 371.544 277.367C363.199 290.055 359.768 305.352 361.895 320.389C364.021 335.427 371.559 349.172 383.095 359.046C401.854 375.342 426.468 385.103 450.645 389.944C497.523 399.367 547.169 397.335 594.367 391.458C641.564 385.581 695.213 377.513 727.036 337.67C743.167 317.509 754.399 292.05 751.451 265.654C748.185 236.588 733.409 213.997 710.01 196.924C670.738 168.297 616.153 172.58 570.848 179.832C491.549 192.542 419.936 232.066 342.23 250.693C332.054 253.143 321.818 255.035 311.522 256.769C301.227 258.502 317.636 256.251 311.244 256.769C308.137 257.028 305.05 257.426 301.944 257.685C296.739 258.123 291.542 258.402 286.351 258.522C274.892 258.731 263.431 258.212 252.038 256.968C244.072 256.131 249.549 256.629 251.242 256.968C247.478 256.41 243.714 255.773 239.97 255.095C233.08 253.86 226.209 252.466 219.359 251.111C192.215 245.473 164.813 240.493 136.933 242.067C134.085 242.226 131.217 242.465 128.37 242.704C125.522 242.943 110.048 245.075 118.134 243.899C110.725 244.975 103.257 245.533 96.2277 248.043C83.1852 252.371 70.8166 258.514 59.4857 266.291C48.8913 273.523 43.5541 286.213 48.931 298.564C51.357 304.31 55.7749 308.988 61.3726 311.736C66.9703 314.485 73.3718 315.12 79.4001 313.525H79.2409Z"
					fill="#F2F2F2"
				/>
			</g>
			<g opacity="0.48">
				<path
					d="M169.433 445.027C187.774 442.736 205.637 438.592 223.939 436.102C241.145 433.898 258.47 432.747 275.816 432.656C313.036 432.197 350.316 434.847 387.337 438.094C458.57 444.33 530.342 448.533 600.938 434.229C619.116 430.4 636.892 424.864 654.03 417.695C672.391 410.184 692.704 398.211 703.697 381.258C709.133 372.871 702.004 361.137 692.266 361.336C676.075 361.695 658.571 366.915 642.958 371.297C626.667 375.693 610.146 379.185 593.471 381.756C562.842 386.717 528.828 387.334 496.567 387.195C425.353 386.856 354.199 378.668 283.025 385.083C242.439 388.749 196.835 393.829 161.228 414.965C148.503 422.516 152.685 447.218 169.393 445.126L169.433 445.027Z"
					fill="#F2F2F2"
				/>
			</g>
		</g>
		<path
			d="M149.322 310.68C149.322 310.68 483.098 266.747 597.303 214.469"
			stroke="#F2F2F2"
			stroke-width="3"
			stroke-miterlimit="10"
		/>
		<path
			d="M153.331 327.717C153.331 327.717 278.917 321.546 599.307 225.493"
			stroke="#F2F2F2"
			stroke-width="3"
			stroke-miterlimit="10"
		/>
		<path
			d="M162.351 339.744C162.351 339.744 430.664 305.598 597.303 241.529"
			stroke="#F2F2F2"
			stroke-width="3"
			stroke-miterlimit="10"
		/>
		<path
			d="M99.7175 327.717C120.415 327.717 120.434 294.645 99.7175 294.645C79.0006 294.645 79.0006 327.717 99.7175 327.717Z"
			fill="url(#paint1_radial_656_17)"
		/>
		<path
			d="M63.1415 366.803C83.1548 366.803 83.1955 335.735 63.1415 335.735C43.0874 335.735 43.0874 366.803 63.1415 366.803Z"
			fill="url(#paint2_radial_656_17)"
		/>
		<path
			d="M299.689 302.544C303.631 302.435 307.383 300.82 310.171 298.031C312.96 295.242 314.575 291.49 314.684 287.547L314.154 283.621C313.435 281.115 312.083 278.837 310.229 277.005L307.187 274.669C304.894 273.325 302.287 272.614 299.63 272.608C297.619 272.516 295.62 272.964 293.84 273.903C291.995 274.515 290.335 275.582 289.012 277.005C287.581 278.322 286.512 279.985 285.91 281.834C284.967 283.648 284.526 285.681 284.634 287.723L285.164 291.649C285.877 294.158 287.23 296.437 289.09 298.265L292.132 300.601C294.428 301.953 297.044 302.665 299.708 302.662L299.689 302.544Z"
			fill="url(#paint3_radial_656_17)"
		/>
		<path
			d="M616.344 241.529C625.688 241.529 625.708 227.498 616.344 227.498C606.98 227.498 607.001 241.529 616.344 241.529Z"
			fill="url(#paint4_radial_656_17)"
		/>
		<path
			d="M635.431 184.403C638.584 184.265 641.586 183.068 643.916 181.022C646.054 178.796 647.294 175.909 647.412 172.882L646.983 169.815C646.43 167.899 645.374 166.153 643.916 164.742L641.483 162.934C639.626 161.882 637.505 161.338 635.349 161.361C633.747 161.296 632.154 161.635 630.729 162.344C629.253 162.809 627.928 163.636 626.885 164.742C625.736 165.743 624.883 167.018 624.411 168.439C623.657 169.804 623.297 171.338 623.369 172.882L623.798 175.949C624.351 177.869 625.415 179.618 626.885 181.022L629.298 182.83C631.16 183.87 633.278 184.413 635.431 184.403Z"
			fill="url(#paint5_radial_656_17)"
		/>
		<path
			d="M119.267 259.486C124.006 259.279 128.523 257.359 132.019 254.065C135.241 250.476 137.112 245.824 137.296 240.945L136.656 236.038C135.829 232.934 134.231 230.104 132.019 227.825L128.361 225.012C125.6 223.36 122.462 222.489 119.267 222.487C114.527 222.693 110.01 224.613 106.514 227.907C103.3 231.496 101.424 236.135 101.217 241.007L101.877 245.935C102.704 249.039 104.302 251.869 106.514 254.147L110.152 257.043C112.921 258.692 116.065 259.563 119.267 259.568V259.486Z"
			fill="url(#paint6_radial_656_17)"
		/>
		<defs>
			<linearGradient
				id="paint0_linear_656_17"
				x1="137.276"
				y1="228.5"
				x2="593.294"
				y2="228.5"
				gradientUnits="userSpaceOnUse"
			>
				<stop stop-color="#E852E6" />
				<stop offset="1" stop-color="#602A81" />
			</linearGradient>
			<radialGradient
				id="paint1_radial_656_17"
				cx="0"
				cy="0"
				r="1"
				gradientUnits="userSpaceOnUse"
				gradientTransform="translate(99.7175 311.181) scale(15.7974 16.2539)"
			>
				<stop stop-color="white" />
				<stop offset="0.09" stop-color="#FFEDD8" />
				<stop offset="0.21" stop-color="#FFD5A7" />
				<stop offset="0.33" stop-color="#FFC17D" />
				<stop offset="0.46" stop-color="#FFB05B" />
				<stop offset="0.59" stop-color="#FFA340" />
				<stop offset="0.72" stop-color="#FF9A2D" />
				<stop offset="0.86" stop-color="#FF9522" />
				<stop offset="1" stop-color="#FF931E" />
			</radialGradient>
			<radialGradient
				id="paint2_radial_656_17"
				cx="0"
				cy="0"
				r="1"
				gradientUnits="userSpaceOnUse"
				gradientTransform="translate(63.1415 351.279) scale(15.2996 15.2803)"
			>
				<stop stop-color="white" />
				<stop offset="0.09" stop-color="#FFEDD8" />
				<stop offset="0.21" stop-color="#FFD5A7" />
				<stop offset="0.33" stop-color="#FFC17D" />
				<stop offset="0.46" stop-color="#FFB05B" />
				<stop offset="0.59" stop-color="#FFA340" />
				<stop offset="0.72" stop-color="#FF9A2D" />
				<stop offset="0.86" stop-color="#FF9522" />
				<stop offset="1" stop-color="#FF931E" />
			</radialGradient>
			<radialGradient
				id="paint3_radial_656_17"
				cx="0"
				cy="0"
				r="1"
				gradientUnits="userSpaceOnUse"
				gradientTransform="translate(299.689 287.409) scale(0.726217 0.726324)"
			>
				<stop stop-color="white" />
				<stop offset="0.09" stop-color="#FFEDD8" />
				<stop offset="0.21" stop-color="#FFD5A7" />
				<stop offset="0.33" stop-color="#FFC17D" />
				<stop offset="0.46" stop-color="#FFB05B" />
				<stop offset="0.59" stop-color="#FFA340" />
				<stop offset="0.72" stop-color="#FF9A2D" />
				<stop offset="0.86" stop-color="#FF9522" />
				<stop offset="1" stop-color="#FF931E" />
			</radialGradient>
			<radialGradient
				id="paint4_radial_656_17"
				cx="0"
				cy="0"
				r="1"
				gradientUnits="userSpaceOnUse"
				gradientTransform="translate(616.344 234.504) scale(7.12382 6.88851)"
			>
				<stop stop-color="white" />
				<stop offset="0.09" stop-color="#FFEDD8" />
				<stop offset="0.21" stop-color="#FFD5A7" />
				<stop offset="0.33" stop-color="#FFC17D" />
				<stop offset="0.46" stop-color="#FFB05B" />
				<stop offset="0.59" stop-color="#FFA340" />
				<stop offset="0.72" stop-color="#FF9A2D" />
				<stop offset="0.86" stop-color="#FF9522" />
				<stop offset="1" stop-color="#FF931E" />
			</radialGradient>
			<radialGradient
				id="paint5_radial_656_17"
				cx="0"
				cy="0"
				r="1"
				gradientUnits="userSpaceOnUse"
				gradientTransform="translate(635.697 172.882) scale(0.756478 0.727453)"
			>
				<stop stop-color="white" />
				<stop offset="0.09" stop-color="#FFEDD8" />
				<stop offset="0.21" stop-color="#FFD5A7" />
				<stop offset="0.33" stop-color="#FFC17D" />
				<stop offset="0.46" stop-color="#FFB05B" />
				<stop offset="0.59" stop-color="#FFA340" />
				<stop offset="0.72" stop-color="#FF9A2D" />
				<stop offset="0.86" stop-color="#FF9522" />
				<stop offset="1" stop-color="#FF931E" />
			</radialGradient>
			<radialGradient
				id="paint6_radial_656_17"
				cx="0"
				cy="0"
				r="1"
				gradientUnits="userSpaceOnUse"
				gradientTransform="translate(119.446 240.945) scale(0.739568 0.759691)"
			>
				<stop stop-color="white" />
				<stop offset="0.09" stop-color="#FFEDD8" />
				<stop offset="0.21" stop-color="#FFD5A7" />
				<stop offset="0.33" stop-color="#FFC17D" />
				<stop offset="0.46" stop-color="#FFB05B" />
				<stop offset="0.59" stop-color="#FFA340" />
				<stop offset="0.72" stop-color="#FF9A2D" />
				<stop offset="0.86" stop-color="#FF9522" />
				<stop offset="1" stop-color="#FF931E" />
			</radialGradient>
		</defs>
	</svg>