<svg width="544" height="188" viewBox="0 0 544 188" fill="none" xmlns="http://www.w3.org/2000/svg">
<path d="M163.955 112.528V115.216C163.955 115.643 164.105 116.005 164.403 116.304C164.702 116.603 165.065 116.752 165.492 116.752H182.771C183.198 116.752 183.561 116.901 183.86 117.2C184.158 117.499 184.308 117.861 184.308 118.288V127.248C184.308 127.675 184.158 128.037 183.86 128.336C183.561 128.635 183.198 128.784 182.771 128.784H165.492C165.065 128.784 164.702 128.933 164.403 129.232C164.105 129.531 163.955 129.893 163.955 130.32V144.464C163.955 144.891 163.806 145.253 163.507 145.552C163.209 145.851 162.846 146 162.42 146H152.755C152.329 146 151.966 145.851 151.667 145.552C151.369 145.253 151.219 144.891 151.219 144.464V100.688C151.219 100.261 151.369 99.8987 151.667 99.6C151.966 99.3013 152.329 99.152 152.755 99.152H185.332C185.758 99.152 186.121 99.3013 186.42 99.6C186.718 99.8987 186.868 100.261 186.868 100.688V109.456C186.868 109.883 186.718 110.245 186.42 110.544C186.121 110.843 185.758 110.992 185.332 110.992H165.492C165.065 110.992 164.702 111.141 164.403 111.44C164.105 111.739 163.955 112.101 163.955 112.528ZM235.658 135.76V144.464C235.658 144.891 235.508 145.253 235.21 145.552C234.911 145.851 234.548 146 234.122 146H202.186C201.716 146 201.332 145.851 201.034 145.552C200.778 145.253 200.65 144.891 200.65 144.464V100.688C200.65 100.261 200.778 99.8987 201.034 99.6C201.332 99.3013 201.716 99.152 202.186 99.152H211.786C212.212 99.152 212.575 99.3013 212.874 99.6C213.172 99.8987 213.322 100.261 213.322 100.688V132.688C213.322 133.115 213.45 133.477 213.706 133.776C214.004 134.075 214.388 134.224 214.858 134.224H234.122C234.548 134.224 234.911 134.373 235.21 134.672C235.508 134.971 235.658 135.333 235.658 135.76ZM260.377 112.464V115.152C260.377 115.579 260.526 115.941 260.825 116.24C261.123 116.539 261.486 116.688 261.913 116.688H279.257C279.683 116.688 280.046 116.837 280.345 117.136C280.643 117.435 280.793 117.797 280.793 118.224V127.056C280.793 127.483 280.643 127.845 280.345 128.144C280.046 128.443 279.683 128.592 279.257 128.592H261.913C261.486 128.592 261.123 128.741 260.825 129.04C260.526 129.339 260.377 129.701 260.377 130.128V132.56C260.377 132.987 260.526 133.349 260.825 133.648C261.123 133.947 261.486 134.096 261.913 134.096H281.817C282.243 134.096 282.606 134.245 282.905 134.544C283.203 134.843 283.353 135.205 283.353 135.632V144.464C283.353 144.891 283.203 145.253 282.905 145.552C282.606 145.851 282.243 146 281.817 146H249.241C248.814 146 248.451 145.851 248.153 145.552C247.854 145.253 247.705 144.891 247.705 144.464V100.688C247.705 100.261 247.854 99.8987 248.153 99.6C248.451 99.3013 248.814 99.152 249.241 99.152H281.817C282.243 99.152 282.606 99.3013 282.905 99.6C283.203 99.8987 283.353 100.261 283.353 100.688V109.392C283.353 109.819 283.203 110.181 282.905 110.48C282.606 110.779 282.243 110.928 281.817 110.928H261.913C261.486 110.928 261.123 111.077 260.825 111.376C260.526 111.675 260.377 112.037 260.377 112.464ZM311.744 112.464V115.152C311.744 115.579 311.893 115.941 312.192 116.24C312.491 116.539 312.853 116.688 313.28 116.688H330.624C331.051 116.688 331.413 116.837 331.712 117.136C332.011 117.435 332.16 117.797 332.16 118.224V127.056C332.16 127.483 332.011 127.845 331.712 128.144C331.413 128.443 331.051 128.592 330.624 128.592H313.28C312.853 128.592 312.491 128.741 312.192 129.04C311.893 129.339 311.744 129.701 311.744 130.128V132.56C311.744 132.987 311.893 133.349 312.192 133.648C312.491 133.947 312.853 134.096 313.28 134.096H333.184C333.611 134.096 333.973 134.245 334.272 134.544C334.571 134.843 334.72 135.205 334.72 135.632V144.464C334.72 144.891 334.571 145.253 334.272 145.552C333.973 145.851 333.611 146 333.184 146H300.608C300.181 146 299.819 145.851 299.52 145.552C299.221 145.253 299.072 144.891 299.072 144.464V100.688C299.072 100.261 299.221 99.8987 299.52 99.6C299.819 99.3013 300.181 99.152 300.608 99.152H333.184C333.611 99.152 333.973 99.3013 334.272 99.6C334.571 99.8987 334.72 100.261 334.72 100.688V109.392C334.72 109.819 334.571 110.181 334.272 110.48C333.973 110.779 333.611 110.928 333.184 110.928H313.28C312.853 110.928 312.491 111.077 312.192 111.376C311.893 111.675 311.744 112.037 311.744 112.464ZM381.16 110.928H372.2C371.773 110.928 371.411 111.077 371.112 111.376C370.813 111.675 370.664 112.037 370.664 112.464V144.464C370.664 144.891 370.515 145.253 370.216 145.552C369.96 145.851 369.597 146 369.128 146H359.528C359.101 146 358.739 145.851 358.44 145.552C358.141 145.253 357.992 144.891 357.992 144.464V112.464C357.992 112.037 357.843 111.675 357.544 111.376C357.288 111.077 356.925 110.928 356.456 110.928H347.368C346.941 110.928 346.579 110.779 346.28 110.48C345.981 110.181 345.832 109.819 345.832 109.392V100.688C345.832 100.261 345.981 99.8987 346.28 99.6C346.579 99.3013 346.941 99.152 347.368 99.152H381.16C381.629 99.152 381.992 99.3013 382.248 99.6C382.547 99.8987 382.696 100.261 382.696 100.688V109.392C382.696 109.819 382.547 110.181 382.248 110.48C381.992 110.779 381.629 110.928 381.16 110.928Z" fill="white"/>
<path d="M123.166 9.44942C123.422 8.87342 123.838 8.39342 124.414 8.00942C125.054 7.56143 125.726 7.33743 126.43 7.33743H139.87C140.51 7.33743 141.118 7.56143 141.694 8.00942C142.334 8.39342 142.782 8.87342 143.038 9.44942L171.07 74.7294C171.326 75.3054 171.262 75.9134 170.878 76.5534C170.558 77.1934 169.886 77.5134 168.862 77.5134H152.446C151.742 77.5134 151.07 77.3214 150.43 76.9374C149.854 76.4894 149.406 75.9774 149.086 75.4014L146.494 69.6414C146.174 69.0654 145.694 68.5854 145.054 68.2014C144.478 67.7534 143.87 67.5294 143.23 67.5294H122.974C122.27 67.5294 121.598 67.7534 120.958 68.2014C120.382 68.5854 119.966 69.0654 119.71 69.6414L117.022 75.4014C116.766 75.9774 116.318 76.4894 115.678 76.9374C115.102 77.3214 114.494 77.5134 113.854 77.5134H97.3418C97.0218 77.5134 96.7018 77.4494 96.3818 77.3214C95.9978 77.1934 95.7098 77.0014 95.5178 76.7454C95.2618 76.4894 95.1018 76.1694 95.0378 75.7854C94.9738 75.4014 95.0698 74.9534 95.3258 74.4414L123.166 9.44942ZM128.83 51.2094H137.374C138.014 51.2094 138.462 51.0174 138.718 50.6334C139.038 50.1854 139.038 49.6734 138.718 49.0974C138.078 47.4974 137.31 45.6414 136.414 43.5294C135.518 41.3534 134.686 39.3374 133.918 37.4814C133.662 36.9054 133.374 36.6174 133.054 36.6174C132.734 36.6174 132.446 36.9054 132.19 37.4814L127.39 49.0974C127.134 49.6734 127.134 50.1854 127.39 50.6334C127.646 51.0174 128.126 51.2094 128.83 51.2094ZM227.877 62.1534V75.2094C227.877 75.8494 227.653 76.3934 227.205 76.8414C226.757 77.2894 226.213 77.5134 225.573 77.5134H177.669C176.965 77.5134 176.389 77.2894 175.941 76.8414C175.557 76.3934 175.365 75.8494 175.365 75.2094V9.54543C175.365 8.90542 175.557 8.36142 175.941 7.91343C176.389 7.46542 176.965 7.24142 177.669 7.24142H192.069C192.709 7.24142 193.253 7.46542 193.701 7.91343C194.149 8.36142 194.373 8.90542 194.373 9.54543V57.5454C194.373 58.1854 194.565 58.7294 194.949 59.1774C195.397 59.6254 195.973 59.8494 196.677 59.8494H225.573C226.213 59.8494 226.757 60.0734 227.205 60.5214C227.653 60.9694 227.877 61.5134 227.877 62.1534ZM257.51 9.44942C257.766 8.87342 258.182 8.39342 258.758 8.00942C259.398 7.56143 260.07 7.33743 260.774 7.33743H274.214C274.854 7.33743 275.462 7.56143 276.038 8.00942C276.678 8.39342 277.126 8.87342 277.382 9.44942L305.414 74.7294C305.67 75.3054 305.606 75.9134 305.222 76.5534C304.902 77.1934 304.23 77.5134 303.206 77.5134H286.79C286.086 77.5134 285.414 77.3214 284.774 76.9374C284.198 76.4894 283.75 75.9774 283.43 75.4014L280.838 69.6414C280.518 69.0654 280.038 68.5854 279.398 68.2014C278.822 67.7534 278.214 67.5294 277.574 67.5294H257.318C256.614 67.5294 255.942 67.7534 255.302 68.2014C254.726 68.5854 254.31 69.0654 254.054 69.6414L251.366 75.4014C251.11 75.9774 250.662 76.4894 250.022 76.9374C249.446 77.3214 248.838 77.5134 248.198 77.5134H231.686C231.366 77.5134 231.046 77.4494 230.726 77.3214C230.342 77.1934 230.054 77.0014 229.862 76.7454C229.606 76.4894 229.446 76.1694 229.382 75.7854C229.318 75.4014 229.414 74.9534 229.67 74.4414L257.51 9.44942ZM263.174 51.2094H271.718C272.358 51.2094 272.806 51.0174 273.062 50.6334C273.382 50.1854 273.382 49.6734 273.062 49.0974C272.422 47.4974 271.654 45.6414 270.758 43.5294C269.862 41.3534 269.03 39.3374 268.262 37.4814C268.006 36.9054 267.718 36.6174 267.398 36.6174C267.078 36.6174 266.79 36.9054 266.534 37.4814L261.734 49.0974C261.478 49.6734 261.478 50.1854 261.734 50.6334C261.99 51.0174 262.47 51.2094 263.174 51.2094ZM427.79 24.9054H414.35C413.71 24.9054 413.166 25.1294 412.718 25.5774C412.27 26.0254 412.046 26.5694 412.046 27.2094V75.2094C412.046 75.8494 411.822 76.3934 411.374 76.8414C410.99 77.2894 410.446 77.5134 409.742 77.5134H395.342C394.702 77.5134 394.158 77.2894 393.71 76.8414C393.262 76.3934 393.038 75.8494 393.038 75.2094V27.2094C393.038 26.5694 392.814 26.0254 392.366 25.5774C391.982 25.1294 391.438 24.9054 390.734 24.9054H377.102C376.462 24.9054 375.918 24.6814 375.47 24.2334C375.022 23.7854 374.798 23.2414 374.798 22.6014V9.54543C374.798 8.90542 375.022 8.36142 375.47 7.91343C375.918 7.46542 376.462 7.24142 377.102 7.24142H427.79C428.494 7.24142 429.038 7.46542 429.422 7.91343C429.87 8.36142 430.094 8.90542 430.094 9.54543V22.6014C430.094 23.2414 429.87 23.7854 429.422 24.2334C429.038 24.6814 428.494 24.9054 427.79 24.9054ZM455.06 77.5134H440.564C439.86 77.5134 439.284 77.2894 438.836 76.8414C438.452 76.3934 438.26 75.8494 438.26 75.2094V9.64143C438.26 9.00143 438.452 8.45743 438.836 8.00942C439.284 7.56143 439.86 7.33743 440.564 7.33743H455.06C455.7 7.33743 456.244 7.56143 456.692 8.00942C457.14 8.45743 457.364 9.00143 457.364 9.64143V75.2094C457.364 75.8494 457.14 76.3934 456.692 76.8414C456.244 77.2894 455.7 77.5134 455.06 77.5134ZM537.989 58.7934C536.133 61.8014 534.085 64.5534 531.845 67.0494C529.605 69.4814 527.077 71.5614 524.261 73.2894C521.509 75.0174 518.437 76.3614 515.045 77.3214C511.653 78.2814 507.909 78.7614 503.813 78.7614C498.693 78.7614 493.893 77.8014 489.413 75.8814C484.933 73.9614 480.997 71.3694 477.605 68.1054C474.277 64.8414 471.653 61.0014 469.733 56.5854C467.813 52.1694 466.853 47.4654 466.853 42.4734C466.853 37.4814 467.813 32.7774 469.733 28.3614C471.653 23.9454 474.277 20.1054 477.605 16.8414C480.997 13.5774 484.933 10.9854 489.413 9.06542C493.893 7.14542 498.693 6.18542 503.813 6.18542C508.037 6.18542 511.845 6.66542 515.237 7.62542C518.629 8.58542 521.701 9.92942 524.453 11.6574C527.205 13.3854 529.669 15.4974 531.845 17.9934C534.085 20.4254 536.133 23.1134 537.989 26.0574C538.309 26.5694 538.373 27.1134 538.181 27.6894C537.989 28.2654 537.605 28.6814 537.029 28.9374L523.397 34.3134C522.757 34.5694 522.117 34.5694 521.477 34.3134C520.837 34.0574 520.357 33.6734 520.037 33.1614C518.181 30.2174 515.941 27.9774 513.317 26.4414C510.693 24.8414 507.525 24.0414 503.813 24.0414C501.381 24.0414 499.077 24.5534 496.901 25.5774C494.789 26.6014 492.933 27.9774 491.333 29.7054C489.733 31.3694 488.485 33.3214 487.589 35.5614C486.693 37.8014 486.245 40.1054 486.245 42.4734C486.245 44.9054 486.693 47.2414 487.589 49.4814C488.485 51.6574 489.733 53.5774 491.333 55.2414C492.933 56.9054 494.789 58.2494 496.901 59.2734C499.077 60.2974 501.381 60.8094 503.813 60.8094C507.333 60.8094 510.501 59.9774 513.317 58.3134C516.197 56.5854 518.469 54.3774 520.133 51.6894C520.453 51.1774 520.901 50.7934 521.477 50.5374C522.117 50.2814 522.757 50.2814 523.397 50.5374L537.029 55.9134C537.605 56.1694 537.989 56.5854 538.181 57.1614C538.373 57.6734 538.309 58.2174 537.989 58.7934Z" fill="white"/>
<path d="M64.9307 34.7666C64.9307 34.7666 68.7247 30.8889 68.7659 27.9301L71.892 30.598L85.3564 15.5082C85.3564 15.5082 69.0581 -0.165999 44.2965 7.92141C44.2965 7.92141 20.7036 15.7565 20.9532 41.2684C20.9532 41.2684 33.2915 35.0162 37.2104 35.9339L32.2969 32.5156L25.8734 34.5156L31.0419 29.1798C31.0419 29.1798 33.9635 26.0962 37.2954 27.2621L42.2089 28.9301C42.2089 28.9301 53.7624 16.216 67.3861 23.0113C67.3861 23.0113 66.5893 37.7253 47.3336 39.8939L45.9884 44.7703C45.9884 44.7703 45.3005 48.4594 41.4559 48.7728L33.1773 49.3345L38.4892 45.3639L39.1532 39.55C39.1532 39.55 24.5839 43.773 22.8337 52.7753C22.8337 52.7753 27.7724 76.0974 58.2908 76.6591C58.2908 76.6591 77.1109 77.2846 88.3032 65.6541V34.7666H64.9307ZM67.8695 55.7965C67.8695 55.7965 52.186 63.5599 43.8702 50.8617C43.8702 50.8617 48.3721 50.0171 49.2472 41.951C49.2472 41.951 53.9576 41.368 56.0731 40.2246V53.0662H67.8695V55.7965Z" fill="white" stroke="white" stroke-width="2" stroke-linejoin="round"/>
<path d="M53.9124 33.9738C56.2718 33.9738 58.1845 32.0611 58.1845 29.7017C58.1845 27.3422 56.2718 25.4295 53.9124 25.4295C51.553 25.4295 49.6403 27.3422 49.6403 29.7017C49.6403 32.0611 51.553 33.9738 53.9124 33.9738Z" fill="white"/>
<path d="M23.7048 43.7703C23.7048 43.7703 7.69731 55.2746 33.334 76.1598H20.6412C20.6412 76.1598 1.00694 58.7141 23.7048 43.7703Z" fill="white" stroke="white" stroke-width="2" stroke-linejoin="round"/>
<path d="M369.086 34.2888C365.777 34.6621 362.492 35.2193 359.245 35.9578C359.245 35.9578 357.947 32.7125 353.949 35.4942L349.776 38.3802C349.776 38.3802 348.466 40.3273 350.796 39.8637L356.359 39.0756C347.794 42.0382 339.008 44.3208 330.084 45.9023C330.117 45.4081 329.991 44.9164 329.724 44.4993C329.457 44.0821 329.063 43.7614 328.601 43.5842C328.601 43.5842 329.829 45.1953 329.064 46.0298C328.272 46.3407 327.408 46.421 326.572 46.2616C326.487 45.8441 326.499 45.4125 326.607 45.0004C326.716 44.5883 326.918 44.2068 327.198 43.8856C327.3 43.7319 327.364 43.5561 327.384 43.3729C327.404 43.1896 327.381 43.0041 327.315 42.8318C327.249 42.6596 327.143 42.5055 327.006 42.3823C326.869 42.2592 326.704 42.1706 326.526 42.1238V41.1503C326.821 41.0334 327.082 40.8446 327.285 40.6011C327.489 40.3575 327.628 40.0669 327.69 39.7558C327.752 39.4447 327.735 39.1229 327.641 38.8199C327.547 38.5168 327.379 38.2421 327.152 38.0209C327.152 38.0209 326.433 34.3235 330.872 33.8831C330.872 33.8831 330.27 31.3332 332.843 31.7736C332.843 31.7736 332.472 28.5631 336.32 29.8033C336.32 29.8033 338.928 28.9456 338.986 28.9572C339.043 28.9688 341.118 25.7351 343.262 28.5747C344.34 28.5895 345.41 28.7613 346.438 29.0847C346.438 29.0847 336.111 20.0442 325.518 31.8896C323.943 33.9792 322.939 36.4429 322.606 39.0382C322.273 41.6334 322.621 44.2707 323.617 46.6905L321.391 46.8295C321.391 46.8295 316.373 34.3467 329.192 25.8162C329.192 25.8162 340.469 18.862 351.758 31.7852L367.915 20.4962C367.915 20.4962 352.732 -3.84355 323.478 7.54978C323.478 7.54978 294.641 19.9399 303.415 51.9873C303.415 51.9873 309.407 77.3354 340.608 77.4861C340.608 77.4861 358.307 75.678 368.193 61.3291L351.758 50.5964C351.758 50.5964 339.171 65.5943 325.332 52.6015C325.332 52.6015 292.798 51.0137 316.419 39.5044C316.419 39.5044 286.701 58.6285 357.287 42.4716C357.287 42.4716 358.446 46.7484 370.279 39.968C370.291 39.9333 380.792 33.7324 369.086 34.2888ZM338.197 27.8445C337.937 27.6006 337.627 27.4168 337.289 27.306C336.95 27.1951 336.591 27.16 336.237 27.2031C335.883 27.2463 335.543 27.3665 335.241 27.5555C334.939 27.7444 334.682 27.9974 334.488 28.2965C334.488 28.2965 336.076 24.576 338.197 27.8445ZM333.561 27.8445C333.561 27.8445 332.031 27.7054 331.614 28.8876C331.568 28.9224 331.568 27.01 333.515 27.8793L333.561 27.8445ZM331.336 29.8033C330.338 30.0451 329.428 30.5605 328.707 31.2915C327.986 32.0225 327.484 32.9401 327.256 33.941C327.256 33.941 326.236 29.3744 331.289 29.8381L331.336 29.8033ZM324.185 38.7742C322.898 40.3042 323.941 41.2778 323.941 41.2778C321.959 39.829 324.185 38.7742 324.185 38.7742ZM325.344 41.0923C325.344 41.0923 323.026 43.8624 325.552 46.0298C325.575 45.9255 321.507 43.9551 325.367 40.988L325.344 41.0923ZM325.935 39.9333C324.335 38.5424 326.352 37.7775 326.352 37.7775C326.025 38.0191 325.801 38.3748 325.723 38.7741C325.646 39.1733 325.722 39.587 325.935 39.9333ZM324.683 37.6152C324.683 37.6152 322.631 34.4742 326.352 34.3699C326.016 34.4543 325.702 34.6084 325.43 34.8221C325.157 35.0358 324.933 35.3044 324.771 35.6104C324.61 35.9165 324.514 36.2531 324.491 36.5985C324.468 36.9439 324.517 37.2903 324.637 37.6152H324.683ZM363.986 41.0923C363.484 41.0946 362.993 40.9474 362.575 40.6696C362.158 40.3918 361.832 39.9959 361.64 39.5324C361.448 39.0689 361.399 38.5587 361.498 38.0669C361.597 37.5751 361.84 37.1238 362.196 36.7707C362.553 36.4176 363.006 36.1786 363.499 36.0841C363.991 35.9897 364.501 36.044 364.963 36.2402C365.425 36.4365 365.817 36.7657 366.091 37.1861C366.365 37.6064 366.508 38.0987 366.501 38.6004C366.498 38.9326 366.429 39.261 366.299 39.5666C366.168 39.8721 365.978 40.1487 365.74 40.3804C365.502 40.6121 365.22 40.7943 364.911 40.9165C364.602 41.0387 364.272 41.0984 363.94 41.0923H363.986Z" fill="white"/>
<path d="M328.624 39.3308C328.624 39.3308 332.309 38.7744 331.127 34.5671C331.127 34.5671 334.233 39.2149 328.624 39.3308Z" fill="white"/>
<path d="M333.051 35.2971C333.453 35.2398 333.829 35.0668 334.133 34.7992C334.438 34.5316 334.658 34.181 334.767 33.7903C334.767 33.7903 335.335 35.7723 333.051 35.2971Z" fill="white"/>
<path d="M333.515 31.8895C334.106 32.0139 334.723 31.9251 335.255 31.6388C335.788 31.3524 336.202 30.887 336.424 30.3248C336.424 30.3248 336.262 33.5933 333.515 31.8895Z" fill="white"/>
<path d="M337.606 32.3881C338.127 32.5208 338.673 32.5136 339.19 32.367C339.707 32.2205 340.177 31.9398 340.55 31.5536C340.55 31.5536 340.063 34.1382 337.606 32.3881Z" fill="white"/>
<path d="M339.901 29.4325C340.311 29.6756 340.789 29.7798 341.263 29.7297C341.737 29.6796 342.182 29.4778 342.532 29.1543C342.532 29.1543 341.593 31.6231 339.901 29.4325Z" fill="white"/>
<path d="M330.733 43.4105C330.855 43.2838 330.947 43.131 331.001 42.9636C331.055 42.7962 331.071 42.6186 331.046 42.4443C331.022 42.2701 330.958 42.1037 330.859 41.9578C330.761 41.812 330.631 41.6904 330.478 41.6024C330.478 41.6024 332.703 42.379 330.733 43.4105Z" fill="white"/>
<path d="M361.169 44.9984C361.173 45.2498 361.122 45.4991 361.022 45.7295C360.921 45.96 360.773 46.1665 360.587 46.3353C360.4 46.5041 360.18 46.6313 359.941 46.7086C359.702 46.7858 359.449 46.8113 359.199 46.7834H352.326C352.326 46.7834 349.776 46.5747 352.071 44.9984L355.339 43.7583C355.895 43.562 356.498 43.5471 357.063 43.7158C357.627 43.8845 358.124 44.2281 358.48 44.6971L361.169 44.9984Z" fill="white"/>
<path d="M337.177 58.2693C333.839 58.2731 330.57 57.3111 327.766 55.4992C325.433 56.3643 322.963 56.8002 320.476 56.7857C312.722 56.7857 306.451 52.8797 306.451 48.0581C306.451 43.2366 312.386 39.5508 319.838 39.3538C320.154 35.7026 321.616 32.2448 324.015 29.4742C326.414 26.7035 329.627 24.7618 333.195 23.9263C336.764 23.0907 340.505 23.4042 343.884 24.8218C347.264 26.2395 350.109 28.6888 352.013 31.82L368.321 20.4963C363.934 14.0664 357.606 9.20839 350.26 6.63256C342.915 4.05672 334.939 3.89813 327.497 6.17996C320.055 8.4618 313.539 13.0644 308.9 19.3148C304.261 25.5652 301.744 33.1357 301.715 40.9193C301.687 48.703 304.149 56.2916 308.742 62.5757C313.335 68.8598 319.818 73.5097 327.243 75.8458C334.668 78.1818 342.645 78.0814 350.009 75.5592C357.373 73.0369 363.737 68.2252 368.17 61.8275L351.434 50.7819C349.837 53.087 347.707 54.9718 345.225 56.2756C342.742 57.5793 339.981 58.2634 337.177 58.2693Z" fill="white"/>
</svg>
