<svg width="17" height="17" viewBox="0 0 17 17" fill="none" xmlns="http://www.w3.org/2000/svg">
<path fill-rule="evenodd" clip-rule="evenodd" d="M8.64497 15.5659C12.7171 15.5659 16.0183 12.2647 16.0183 8.19257C16.0183 4.12046 12.7171 0.819257 8.64497 0.819257C4.57285 0.819257 1.27165 4.12046 1.27165 8.19257C1.27165 12.2647 4.57285 15.5659 8.64497 15.5659ZM8.64497 16.3851C13.1697 16.3851 16.8375 12.7173 16.8375 8.19257C16.8375 3.66782 13.1697 0 8.64497 0C4.12021 0 0.452393 3.66782 0.452393 8.19257C0.452393 12.7173 4.12021 16.3851 8.64497 16.3851Z" fill="#545454"/>
<path d="M3.72931 12.9566C3.72931 12.5334 4.04554 12.1758 4.46664 12.1291C7.62693 11.7793 9.67712 11.8108 12.8304 12.1369C12.9879 12.1534 13.1371 12.2155 13.2599 12.3154C13.3827 12.4154 13.4738 12.5489 13.5219 12.6998C13.57 12.8506 13.5732 13.0122 13.531 13.1648C13.4888 13.3174 13.4031 13.4544 13.2843 13.5591C9.56283 16.803 7.43604 16.7583 3.99147 13.5624C3.82352 13.4067 3.72931 13.1851 3.72931 12.9566Z" fill="#545454"/>
<path fill-rule="evenodd" clip-rule="evenodd" d="M12.7883 12.5441C9.65994 12.2205 7.63924 12.1902 4.51131 12.5363C4.40835 12.5483 4.31343 12.5978 4.24473 12.6755C4.17603 12.7531 4.13837 12.8533 4.13896 12.957C4.13896 13.0741 4.18771 13.1851 4.27004 13.2622C5.97738 14.8458 7.27098 15.5614 8.53551 15.5659C9.80454 15.5704 11.1678 14.8605 13.0152 13.2507C13.0739 13.1984 13.1161 13.1303 13.1368 13.0545C13.1575 12.9787 13.1557 12.8985 13.1317 12.8237C13.1076 12.7489 13.0624 12.6827 13.0014 12.6331C12.9405 12.5836 12.8664 12.5523 12.7883 12.5441ZM4.42161 11.722C7.61507 11.3684 9.69517 11.4004 12.8731 11.7293C13.11 11.7541 13.3345 11.8473 13.5192 11.9977C13.7039 12.1481 13.8408 12.349 13.913 12.576C13.9852 12.8029 13.9898 13.046 13.926 13.2755C13.8622 13.505 13.7329 13.7109 13.5539 13.868C11.6798 15.5016 10.1191 16.3913 8.53305 16.3852C6.94246 16.3794 5.45059 15.4746 3.71336 13.8627C3.58898 13.7468 3.48982 13.6066 3.42209 13.4507C3.35436 13.2948 3.3195 13.1266 3.3197 12.9566C3.31911 12.6512 3.43121 12.3563 3.63453 12.1284C3.83785 11.9005 4.11811 11.756 4.42161 11.722Z" fill="#545454"/>
<path d="M11.9219 6.55407C11.9219 7.42319 11.5766 8.25672 10.962 8.87128C10.3475 9.48584 9.51395 9.8311 8.64483 9.8311C7.77571 9.8311 6.94218 9.48584 6.32762 8.87128C5.71306 8.25672 5.3678 7.42319 5.3678 6.55407C5.3678 5.68495 5.71306 4.85142 6.32762 4.23686C6.94218 3.6223 7.77571 3.27704 8.64483 3.27704C9.51395 3.27704 10.3475 3.6223 10.962 4.23686C11.5766 4.85142 11.9219 5.68495 11.9219 6.55407Z" fill="#545454"/>
<path fill-rule="evenodd" clip-rule="evenodd" d="M8.64483 9.01184C9.29667 9.01184 9.92181 8.7529 10.3827 8.29198C10.8437 7.83105 11.1026 7.20591 11.1026 6.55407C11.1026 5.90223 10.8437 5.27708 10.3827 4.81616C9.92181 4.35524 9.29667 4.0963 8.64483 4.0963C7.99299 4.0963 7.36784 4.35524 6.90692 4.81616C6.446 5.27708 6.18706 5.90223 6.18706 6.55407C6.18706 7.20591 6.446 7.83105 6.90692 8.29198C7.36784 8.7529 7.99299 9.01184 8.64483 9.01184ZM8.64483 9.8311C9.51395 9.8311 10.3475 9.48584 10.962 8.87128C11.5766 8.25672 11.9219 7.42319 11.9219 6.55407C11.9219 5.68495 11.5766 4.85142 10.962 4.23686C10.3475 3.6223 9.51395 3.27704 8.64483 3.27704C7.77571 3.27704 6.94218 3.6223 6.32762 4.23686C5.71306 4.85142 5.3678 5.68495 5.3678 6.55407C5.3678 7.42319 5.71306 8.25672 6.32762 8.87128C6.94218 9.48584 7.77571 9.8311 8.64483 9.8311Z" fill="#545454"/>
</svg>
