<svg width="387" height="411" viewBox="0 0 387 411" fill="none" xmlns="http://www.w3.org/2000/svg">
<rect x="69" y="98.3503" width="222.621" height="283.068" rx="8" fill="#DB3D51"/>
<rect x="82.2686" y="114.568" width="197.558" height="250.633" rx="8" fill="white"/>
<path fill-rule="evenodd" clip-rule="evenodd" d="M127.235 100.562V121.202H229.7V100.562H217.906C204.637 75.9899 171.317 41.5892 144.19 100.562H127.235ZM181.048 104.248C186.747 104.248 191.368 99.627 191.368 93.9273C191.368 88.2276 186.747 83.6071 181.048 83.6071C175.348 83.6071 170.728 88.2276 170.728 93.9273C170.728 99.627 175.348 104.248 181.048 104.248Z" fill="#7A80A3"/>
<rect x="104.383" y="151.426" width="145.957" height="10.3202" fill="#7A80A3"/>
<rect x="161.882" y="192.706" width="94.3561" height="10.3202" fill="#7A80A3"/>
<rect x="161.882" y="233.987" width="94.3561" height="10.3202" fill="#7A80A3"/>
<circle cx="119.127" cy="198.604" r="8.84588" fill="#DB3D51"/>
<circle cx="119.127" cy="235.461" r="8.84588" fill="#DB3D51"/>
<path d="M112.492 299.594L129.447 313.6L161.882 278.217" stroke="#6162C5" stroke-width="7"/>
<rect x="320.461" y="156.495" width="56.2987" height="165.885" transform="rotate(45 320.461 156.495)" fill="#E19A39"/>
<rect x="347.357" y="183.391" width="18.2613" height="165.885" transform="rotate(45 347.357 183.391)" fill="#86530E"/>
<rect width="56.2987" height="37.8013" transform="matrix(0.707107 0.707107 0.707107 -0.707107 320.461 156.495)" fill="#DB3D51"/>
<path d="M190.631 326.132L203.163 273.794L242.969 313.6L190.631 326.132Z" fill="#EDE1D1"/>
<path d="M190.631 326.132L192.842 316.549L200.214 323.92L190.631 326.132Z" fill="black"/>
<line x1="72.4215" y1="15.6536" x2="93.4101" y2="6.73131" stroke="#6162C5" stroke-width="3"/>
<line x1="72.4215" y1="15.6536" x2="93.4101" y2="6.73131" stroke="#6162C5" stroke-width="3"/>
<line x1="72.4215" y1="15.6536" x2="93.4101" y2="6.73131" stroke="#6162C5" stroke-width="3"/>
<line x1="87.8862" y1="21.5755" x2="78.9639" y2="0.586872" stroke="#6162C5" stroke-width="3"/>
<line x1="87.8862" y1="21.5755" x2="78.9639" y2="0.586872" stroke="#6162C5" stroke-width="3"/>
<line x1="87.8862" y1="21.5755" x2="78.9639" y2="0.586872" stroke="#6162C5" stroke-width="3"/>
<circle cx="43.7648" cy="323.896" r="6.03697" transform="rotate(-113.03 43.7648 323.896)" fill="#7A80A3"/>
<circle cx="207.406" cy="402.109" r="6.03697" transform="rotate(-113.03 207.406 402.109)" fill="#6162C5"/>
<circle cx="308.438" cy="159.225" r="6.03697" transform="rotate(-113.03 308.438 159.225)" fill="#E19A39"/>
<circle cx="7.91765" cy="55.53" r="6.03697" transform="rotate(-113.03 7.91765 55.53)" fill="#DB3D51"/>
<line x1="338.98" y1="274.62" x2="359.969" y2="265.698" stroke="#E19A39" stroke-width="3"/>
<line x1="338.98" y1="274.62" x2="359.969" y2="265.698" stroke="#E19A39" stroke-width="3"/>
<line x1="338.98" y1="274.62" x2="359.969" y2="265.698" stroke="#E19A39" stroke-width="3"/>
<line x1="354.206" y1="279.981" x2="345.284" y2="258.993" stroke="#E19A39" stroke-width="3"/>
<line x1="354.206" y1="279.981" x2="345.284" y2="258.993" stroke="#E19A39" stroke-width="3"/>
<line x1="354.206" y1="279.981" x2="345.284" y2="258.993" stroke="#E19A39" stroke-width="3"/>
</svg>

