<svg width="426" height="321" viewBox="0 0 426 321" fill="none" xmlns="http://www.w3.org/2000/svg">
<path d="M113.919 189.215C112.324 114.505 154.463 55.9951 175.732 36.0792V28.0458H290.386V17H323.785L327.275 28.0458C337.644 33.6692 331.595 41.4347 327.275 44.6146V171.642H290.386V44.6146H193.18C237.845 76.3463 247.017 155.575 246.02 191.223C296.667 213.315 269.117 241.933 249.011 253.481L222.092 258H137.348L132.862 243.942L126.88 237.917H87C87 211.005 104.946 194.235 113.919 189.215Z" fill="#DB3D51"/>
<circle cx="182" cy="119" r="35" fill="white"/>
<circle cx="181.5" cy="118.5" r="13.5" fill="#E19A39"/>
<circle cx="308.5" cy="61.5" r="8.5" fill="white"/>
<circle cx="308.5" cy="113.5" r="8.5" fill="white"/>
<circle cx="308.5" cy="87.5" r="8.5" fill="white"/>
<rect x="280" y="171" width="58" height="90" rx="4" fill="#DE596A"/>
<circle cx="237" cy="225" r="36" fill="#E19A39"/>
<path d="M185.033 296.344C183.529 299.176 179.471 299.176 177.967 296.344L159.937 262.375C158.523 259.711 160.454 256.5 163.47 256.5H199.53C202.546 256.5 204.477 259.711 203.063 262.375L185.033 296.344Z" fill="#E19A39"/>
<path d="M217.5 226L234.5 240.5L266.5 194.5" stroke="white" stroke-width="8"/>
<line x1="414.5" y1="153" x2="414.5" y2="175.806" stroke="#6162C5" stroke-width="3"/>
<line x1="414.5" y1="153" x2="414.5" y2="175.806" stroke="#6162C5" stroke-width="3"/>
<line x1="414.5" y1="153" x2="414.5" y2="175.806" stroke="#6162C5" stroke-width="3"/>
<line x1="403" y1="164.916" x2="425.806" y2="164.916" stroke="#6162C5" stroke-width="3"/>
<line x1="403" y1="164.916" x2="425.806" y2="164.916" stroke="#6162C5" stroke-width="3"/>
<line x1="403" y1="164.916" x2="425.806" y2="164.916" stroke="#6162C5" stroke-width="3"/>
<circle cx="142.037" cy="6.03697" r="6.03697" fill="#7A80A3"/>
<circle cx="6.03697" cy="126.037" r="6.03697" fill="#6162C5"/>
<circle cx="190.037" cy="314.037" r="6.03697" fill="#E19A39"/>
<circle cx="403.037" cy="78.037" r="6.03697" fill="#DB3D51"/>
<line x1="71.8911" y1="297" x2="71.8911" y2="319.807" stroke="#E19A39" stroke-width="3"/>
<line x1="71.8911" y1="297" x2="71.8911" y2="319.807" stroke="#E19A39" stroke-width="3"/>
<line x1="71.8911" y1="297" x2="71.8911" y2="319.807" stroke="#E19A39" stroke-width="3"/>
<line x1="61" y1="308.916" x2="83.8063" y2="308.916" stroke="#E19A39" stroke-width="3"/>
<line x1="61" y1="308.916" x2="83.8063" y2="308.916" stroke="#E19A39" stroke-width="3"/>
<line x1="61" y1="308.916" x2="83.8063" y2="308.916" stroke="#E19A39" stroke-width="3"/>
</svg>
