<svg width="359" height="381" viewBox="0 0 359 381" fill="none" xmlns="http://www.w3.org/2000/svg">
<line x1="96.5913" y1="345.449" x2="114.031" y2="310.568" stroke="#DB3D51" stroke-width="9"/>
<line x1="189.039" y1="349.215" x2="174.282" y2="314.334" stroke="#DB3D51" stroke-width="9"/>
<rect x="42" y="90" width="267" height="228" rx="20" fill="#6162C5"/>
<rect y="89.8838" width="289.775" height="228.063" rx="20" fill="#E19A39"/>
<rect x="13.4155" y="130.13" width="262.944" height="177.085" rx="15" fill="white"/>
<circle cx="303.004" cy="105.004" r="55.0035" fill="#DB3D51"/>
<circle cx="289.775" cy="104.641" r="55.0035" fill="#7A80A3"/>
<line x1="54.8203" y1="159.644" x2="54.8203" y2="277.701" stroke="#6162C5" stroke-width="5"/>
<line x1="52.3203" y1="275.201" x2="237.454" y2="275.201" stroke="#6162C5" stroke-width="5"/>
<path d="M55.0034 234.1L101.958 202.574L139.521 215.99L165.681 185.805H222.697" stroke="#6162C5" stroke-width="5"/>
<circle cx="226.722" cy="186.475" r="10.7324" fill="#E19A39"/>
<circle cx="35.5511" cy="44.9418" r="6.03697" fill="#7A80A3"/>
<circle cx="328.009" cy="374.963" r="6.03697" fill="#6162C5"/>
<circle cx="28.8431" cy="362.889" r="6.03697" fill="#E19A39"/>
<circle cx="247.516" cy="6.03697" r="6.03697" fill="#DB3D51"/>
<line x1="145.046" y1="49.6372" x2="145.046" y2="72.4435" stroke="#6162C5" stroke-width="3"/>
<line x1="145.046" y1="49.6372" x2="145.046" y2="72.4435" stroke="#6162C5" stroke-width="3"/>
<line x1="145.046" y1="49.6372" x2="145.046" y2="72.4435" stroke="#6162C5" stroke-width="3"/>
<line x1="134.155" y1="61.5527" x2="156.961" y2="61.5527" stroke="#6162C5" stroke-width="3"/>
<line x1="134.155" y1="61.5527" x2="156.961" y2="61.5527" stroke="#6162C5" stroke-width="3"/>
<line x1="134.155" y1="61.5527" x2="156.961" y2="61.5527" stroke="#6162C5" stroke-width="3"/>
<line x1="275.176" y1="330.021" x2="275.176" y2="352.828" stroke="#E19A39" stroke-width="3"/>
<line x1="275.176" y1="330.021" x2="275.176" y2="352.828" stroke="#E19A39" stroke-width="3"/>
<line x1="275.176" y1="330.021" x2="275.176" y2="352.828" stroke="#E19A39" stroke-width="3"/>
<line x1="264.285" y1="341.937" x2="287.091" y2="341.937" stroke="#E19A39" stroke-width="3"/>
<line x1="264.285" y1="341.937" x2="287.091" y2="341.937" stroke="#E19A39" stroke-width="3"/>
<line x1="264.285" y1="341.937" x2="287.091" y2="341.937" stroke="#E19A39" stroke-width="3"/>
<path d="M277.154 131.808V138.635C277.154 139.388 277.76 140 278.506 140H283.912C284.271 140 284.614 139.856 284.868 139.6C285.121 139.344 285.264 138.997 285.264 138.635V131.808H287.967V138.635C287.967 139.388 288.573 140 289.319 140H294.725C295.084 140 295.428 139.856 295.681 139.6C295.935 139.344 296.077 138.997 296.077 138.635V131.808H296.531C307.301 131.808 315 126.166 315 116.406C315 108.203 309.556 103.719 303.181 103.08V102.599C308.426 101.278 312.28 97.2798 312.28 90.6386C312.28 82.2715 306.063 77.1923 296.574 77.1923H296.077V70.3654C296.077 70.0033 295.935 69.656 295.681 69.3999C295.428 69.1439 295.084 69 294.725 69H289.319C288.96 69 288.616 69.1439 288.363 69.3999C288.11 69.656 287.967 70.0033 287.967 70.3654V77.1923H284.869V70.3654C284.869 70.0033 284.727 69.656 284.473 69.3999C284.22 69.1439 283.876 69 283.518 69H278.506C278.147 69 277.803 69.1439 277.55 69.3999C277.296 69.656 277.154 70.0033 277.154 70.3654V77.1923L266.352 77.2524C265.993 77.2524 265.649 77.3962 265.396 77.6523C265.142 77.9084 265 78.2556 265 78.6178V84.0192C265 84.7675 265.595 85.3846 266.341 85.3846L270.423 85.3573C271.494 85.3645 272.518 85.7993 273.273 86.5667C274.027 87.3341 274.451 88.3718 274.451 89.4535V119.519C274.451 120.606 274.023 121.647 273.263 122.416C272.503 123.184 271.471 123.615 270.396 123.615L266.352 123.675C265.993 123.675 265.649 123.819 265.396 124.075C265.142 124.331 265 124.679 265 125.041V130.502C265 131.256 265.606 131.868 266.352 131.868L277.154 131.808ZM284.869 85.3136H294.163C299.061 85.3136 301.938 88.0335 301.938 92.4792C301.938 97.2362 298.829 99.9178 291.79 99.9178H284.869V85.3136ZM284.869 107.438H294.817C300.965 107.438 304.311 110.606 304.311 115.762C304.311 120.967 300.927 123.681 292.644 123.681H284.869V107.438Z" fill="white"/>
</svg>

