<svg width="305" height="361" viewBox="0 0 305 361" fill="none" xmlns="http://www.w3.org/2000/svg">
<rect x="34" y="36.3503" width="222.621" height="283.068" rx="8" fill="#E19A39"/>
<rect x="47.269" y="52.5677" width="197.558" height="250.633" rx="8" fill="white"/>
<path fill-rule="evenodd" clip-rule="evenodd" d="M92.2354 38.5618V59.2022H194.7V38.5618H182.906C169.637 13.9899 136.317 -20.4108 109.19 38.5618H92.2354ZM146.048 42.2476C151.748 42.2476 156.368 37.6271 156.368 31.9274C156.368 26.2277 151.748 21.6072 146.048 21.6072C140.348 21.6072 135.728 26.2277 135.728 31.9274C135.728 37.6271 140.348 42.2476 146.048 42.2476Z" fill="#7A80A3"/>
<rect x="79" y="167" width="133" height="7" fill="#7A80A3"/>
<rect x="79" y="138" width="133" height="7" fill="#7A80A3"/>
<rect x="79" y="223" width="133" height="7" fill="#7A80A3"/>
<rect x="79" y="195" width="133" height="7" fill="#7A80A3"/>
<circle cx="238" cy="318" r="35" fill="white"/>
<path d="M238 275C214.35 275 195 294.35 195 318C195 341.65 214.35 361 238 361C261.65 361 281 341.65 281 318C281 294.35 261.65 275 238 275ZM229.4 339.5L207.9 318L213.963 311.937L229.4 327.331L262.037 294.694L268.1 300.8L229.4 339.5Z" fill="#DB3D51"/>
<line x1="11.5" y1="254" x2="11.5" y2="276.806" stroke="#6162C5" stroke-width="3"/>
<line x1="11.5" y1="254" x2="11.5" y2="276.806" stroke="#6162C5" stroke-width="3"/>
<line x1="11.5" y1="254" x2="11.5" y2="276.806" stroke="#6162C5" stroke-width="3"/>
<line y1="265.916" x2="22.8063" y2="265.916" stroke="#6162C5" stroke-width="3"/>
<line y1="265.916" x2="22.8063" y2="265.916" stroke="#6162C5" stroke-width="3"/>
<line y1="265.916" x2="22.8063" y2="265.916" stroke="#6162C5" stroke-width="3"/>
<circle cx="176.037" cy="29.037" r="6.03697" fill="#7A80A3"/>
<circle cx="287.037" cy="47.037" r="6.03697" fill="#6162C5"/>
<circle cx="298.037" cy="254.037" r="6.03697" fill="#E19A39"/>
<circle cx="9.03697" cy="6.03697" r="6.03697" fill="#DB3D51"/>
<line x1="66.8911" y1="330" x2="66.8911" y2="352.806" stroke="#E19A39" stroke-width="3"/>
<line x1="66.8911" y1="330" x2="66.8911" y2="352.806" stroke="#E19A39" stroke-width="3"/>
<line x1="66.8911" y1="330" x2="66.8911" y2="352.806" stroke="#E19A39" stroke-width="3"/>
<line x1="56" y1="341.915" x2="78.8063" y2="341.915" stroke="#E19A39" stroke-width="3"/>
<line x1="56" y1="341.915" x2="78.8063" y2="341.915" stroke="#E19A39" stroke-width="3"/>
<line x1="56" y1="341.915" x2="78.8063" y2="341.915" stroke="#E19A39" stroke-width="3"/>
</svg>
