<svg width="426" height="321" viewBox="0 0 426 321" fill="none" xmlns="http://www.w3.org/2000/svg">
<rect x="110" y="43" width="267" height="228" rx="20" fill="#6162C5"/>
<rect x="70" y="43" width="289.775" height="228.063" rx="20" fill="#E19A39"/>
<circle cx="214.5" cy="238.5" r="12.5" fill="white"/>
<rect x="87" y="76" width="256" height="133" rx="15" fill="white"/>
<path d="M226.304 166.712L219.844 158.127C219.887 157.347 219.844 156.523 219.844 155.916L226.304 147.288C226.625 146.868 226.844 146.379 226.942 145.86C227.039 145.34 227.014 144.805 226.868 144.297C225.775 140.3 224.187 136.455 222.142 132.851C221.878 132.393 221.515 132 221.08 131.7C220.645 131.4 220.149 131.201 219.627 131.117L209.005 129.599L207.401 127.995L205.883 117.373C205.799 116.851 205.6 116.355 205.3 115.92C205 115.485 204.607 115.122 204.149 114.858C200.546 112.813 196.7 111.225 192.703 110.132C192.195 109.986 191.66 109.961 191.14 110.058C190.621 110.156 190.132 110.375 189.712 110.696L181.127 117.113H178.873L170.288 110.696C169.868 110.375 169.379 110.156 168.86 110.058C168.34 109.961 167.805 109.986 167.297 110.132C163.3 111.225 159.455 112.813 155.851 114.858C155.393 115.122 155 115.485 154.7 115.92C154.4 116.355 154.201 116.851 154.117 117.373L152.599 127.995L150.995 129.599L140.373 131.117C139.851 131.201 139.355 131.4 138.92 131.7C138.485 132 138.122 132.393 137.858 132.851C135.813 136.455 134.225 140.3 133.132 144.297C132.986 144.805 132.961 145.34 133.058 145.86C133.156 146.379 133.375 146.868 133.696 147.288L140.156 155.873V158.084L133.696 166.712C133.375 167.132 133.156 167.621 133.058 168.14C132.961 168.66 132.986 169.195 133.132 169.703C134.225 173.7 135.813 177.546 137.858 181.149C138.122 181.607 138.485 182 138.92 182.3C139.355 182.6 139.851 182.799 140.373 182.883L150.995 184.401L152.599 186.005L154.117 196.627C154.201 197.149 154.4 197.645 154.7 198.08C155 198.515 155.393 198.878 155.851 199.142C159.455 201.187 163.3 202.775 167.297 203.868C167.593 203.953 167.899 203.997 168.207 203.998C168.959 204.008 169.693 203.763 170.288 203.304L178.873 196.887H181.127L189.712 203.304C190.132 203.625 190.621 203.844 191.14 203.942C191.66 204.039 192.195 204.014 192.703 203.868C196.7 202.775 200.546 201.187 204.149 199.142C204.607 198.878 205 198.515 205.3 198.08C205.6 197.645 205.799 197.149 205.883 196.627L207.401 185.962C207.921 185.441 208.528 184.878 208.962 184.401L219.627 182.883C220.149 182.799 220.645 182.6 221.08 182.3C221.515 182 221.878 181.607 222.142 181.149C224.187 177.546 225.775 173.7 226.868 169.703C227.014 169.195 227.039 168.66 226.942 168.14C226.844 167.621 226.625 167.132 226.304 166.712ZM180 176.077C176.227 176.077 172.539 174.958 169.402 172.862C166.264 170.765 163.819 167.786 162.376 164.3C160.932 160.815 160.554 156.979 161.29 153.278C162.026 149.578 163.843 146.179 166.511 143.511C169.179 140.843 172.578 139.026 176.278 138.29C179.979 137.554 183.815 137.932 187.3 139.376C190.786 140.819 193.765 143.264 195.862 146.402C197.958 149.539 199.077 153.227 199.077 157C199.077 162.059 197.067 166.912 193.489 170.489C189.912 174.067 185.059 176.077 180 176.077Z" fill="#DB3D51"/>
<path d="M250.5 109.828C246.411 109.828 242.414 111.04 239.014 113.312C235.615 115.584 232.965 118.813 231.4 122.59C229.835 126.368 229.426 130.525 230.224 134.536C231.021 138.546 232.99 142.23 235.882 145.121C238.773 148.013 242.457 149.982 246.467 150.78C250.477 151.577 254.634 151.168 258.411 149.603C262.189 148.038 265.418 145.388 267.689 141.989C269.961 138.589 271.173 134.591 271.173 130.502C271.173 125.019 268.995 119.76 265.118 115.883C261.241 112.006 255.983 109.828 250.5 109.828ZM250.5 142.316C248.164 142.316 245.88 141.624 243.937 140.325C241.994 139.027 240.48 137.182 239.586 135.023C238.692 132.865 238.458 130.489 238.914 128.198C239.369 125.906 240.495 123.801 242.147 122.149C243.799 120.496 245.904 119.371 248.195 118.915C250.487 118.459 252.862 118.693 255.021 119.588C257.179 120.482 259.024 121.996 260.322 123.939C261.621 125.882 262.313 128.166 262.313 130.502C262.304 133.633 261.056 136.632 258.843 138.845C256.629 141.059 253.63 142.307 250.5 142.316ZM291.109 137.886L285.903 130.945V130.059L291.109 123.119C291.504 122.578 291.776 121.957 291.904 121.3C292.031 120.642 292.012 119.965 291.847 119.316C290.893 115.774 289.478 112.373 287.638 109.2C287.308 108.613 286.846 108.111 286.288 107.734C285.731 107.356 285.094 107.112 284.427 107.022L275.899 105.804L275.197 105.102L273.979 96.5738C273.889 95.9065 273.645 95.2692 273.267 94.7119C272.89 94.1546 272.388 93.6925 271.801 93.3619C268.628 91.5219 265.227 90.1068 261.686 89.1531C261.038 88.9774 260.358 88.9526 259.699 89.0806C259.04 89.2086 258.419 89.486 257.883 89.8915L250.98 95.0601H250.02L243.117 89.8915C242.576 89.4956 241.955 89.2241 241.298 89.0965C240.641 88.9688 239.963 88.9881 239.314 89.1531C235.773 90.1068 232.372 91.5219 229.199 93.3619C228.612 93.6925 228.11 94.1546 227.733 94.7119C227.355 95.2692 227.111 95.9065 227.021 96.5738L225.803 105.102C225.551 105.317 225.316 105.552 225.101 105.804L216.573 107.022C215.906 107.112 215.269 107.356 214.712 107.734C214.154 108.111 213.692 108.613 213.362 109.2C211.522 112.373 210.107 115.774 209.153 119.316C208.977 119.964 208.953 120.644 209.081 121.303C209.209 121.962 209.486 122.583 209.891 123.119L215.097 130.059V130.945L209.891 137.886C209.496 138.426 209.224 139.047 209.096 139.705C208.969 140.362 208.988 141.04 209.153 141.689C210.107 145.231 211.522 148.632 213.362 151.805C213.692 152.391 214.154 152.893 214.712 153.271C215.269 153.649 215.906 153.893 216.573 153.983L225.101 155.201L225.803 155.903L227.021 164.431C227.111 165.098 227.355 165.735 227.733 166.293C228.11 166.85 228.612 167.312 229.199 167.643C232.372 169.483 235.773 170.898 239.314 171.852C239.686 171.957 240.072 172.007 240.459 171.999C241.418 172.005 242.352 171.693 243.117 171.113L250.02 165.945H250.98L257.883 171.113C258.424 171.509 259.045 171.781 259.702 171.908C260.359 172.036 261.037 172.017 261.686 171.852C265.227 170.898 268.628 169.483 271.801 167.643C272.388 167.312 272.89 166.85 273.267 166.293C273.645 165.735 273.889 165.098 273.979 164.431L275.234 155.866L275.862 155.238L284.427 153.983C285.094 153.893 285.731 153.649 286.288 153.271C286.846 152.893 287.308 152.391 287.638 151.805C289.478 148.632 290.893 145.231 291.847 141.689C292.023 141.041 292.047 140.361 291.919 139.702C291.791 139.042 291.514 138.421 291.109 137.886ZM280.956 145.528L273.093 146.673C272.109 146.818 271.2 147.286 270.509 148.002C269.881 148.666 268.7 149.885 268.109 150.402C267.33 151.105 266.821 152.058 266.67 153.097L265.525 160.96C264.19 161.636 262.808 162.216 261.39 162.696L255.041 157.896C254.203 157.269 253.167 156.968 252.124 157.047H248.876C247.833 156.974 246.799 157.275 245.959 157.896L239.61 162.696C238.192 162.216 236.81 161.636 235.475 160.96L234.33 153.097C234.179 152.058 233.67 151.105 232.891 150.402C232.073 149.695 231.308 148.93 230.602 148.113C229.899 147.333 228.945 146.824 227.907 146.673L220.044 145.528C219.368 144.193 218.788 142.811 218.308 141.393L223.108 135.043C223.696 134.241 224.007 133.269 223.994 132.274C223.957 131.351 223.92 129.653 223.957 128.878C224.03 127.836 223.728 126.802 223.108 125.961L218.308 119.611C218.788 118.193 219.368 116.812 220.044 115.476L227.907 114.332C228.945 114.181 229.899 113.671 230.602 112.892C231.308 112.075 232.073 111.31 232.891 110.603C233.67 109.9 234.179 108.947 234.33 107.908L235.475 100.044C236.81 99.3683 238.192 98.7884 239.61 98.309L245.959 103.108C246.796 103.735 247.833 104.037 248.876 103.958C249.946 103.921 251.054 103.921 252.124 103.958C253.167 104.037 254.203 103.735 255.041 103.108L261.39 98.309C262.808 98.7884 264.19 99.3683 265.525 100.044L266.67 107.908C266.821 108.947 267.33 109.9 268.109 110.603C268.927 111.31 269.692 112.075 270.398 112.892C271.101 113.671 272.055 114.181 273.093 114.332L280.956 115.476C281.632 116.812 282.212 118.193 282.692 119.611L277.892 125.961C277.299 126.759 276.999 127.737 277.043 128.73C277.043 129.653 277.08 131.351 277.043 132.127C276.964 133.17 277.266 134.206 277.892 135.043L282.692 141.393C282.212 142.811 281.632 144.193 280.956 145.528Z" fill="#6162C5"/>
<line x1="414.5" y1="153" x2="414.5" y2="175.806" stroke="#6162C5" stroke-width="3"/>
<line x1="414.5" y1="153" x2="414.5" y2="175.806" stroke="#6162C5" stroke-width="3"/>
<line x1="414.5" y1="153" x2="414.5" y2="175.806" stroke="#6162C5" stroke-width="3"/>
<line x1="403" y1="164.916" x2="425.806" y2="164.916" stroke="#6162C5" stroke-width="3"/>
<line x1="403" y1="164.916" x2="425.806" y2="164.916" stroke="#6162C5" stroke-width="3"/>
<line x1="403" y1="164.916" x2="425.806" y2="164.916" stroke="#6162C5" stroke-width="3"/>
<circle cx="142.037" cy="6.03697" r="6.03697" fill="#7A80A3"/>
<circle cx="6.03697" cy="126.037" r="6.03697" fill="#6162C5"/>
<circle cx="190.037" cy="314.037" r="6.03697" fill="#E19A39"/>
<circle cx="403.037" cy="78.037" r="6.03697" fill="#DB3D51"/>
<line x1="71.8911" y1="297" x2="71.8911" y2="319.807" stroke="#E19A39" stroke-width="3"/>
<line x1="71.8911" y1="297" x2="71.8911" y2="319.807" stroke="#E19A39" stroke-width="3"/>
<line x1="71.8911" y1="297" x2="71.8911" y2="319.807" stroke="#E19A39" stroke-width="3"/>
<line x1="61" y1="308.916" x2="83.8063" y2="308.916" stroke="#E19A39" stroke-width="3"/>
<line x1="61" y1="308.916" x2="83.8063" y2="308.916" stroke="#E19A39" stroke-width="3"/>
<line x1="61" y1="308.916" x2="83.8063" y2="308.916" stroke="#E19A39" stroke-width="3"/>
</svg>