<svg width="415" height="384" viewBox="0 0 415 384" fill="none" xmlns="http://www.w3.org/2000/svg">
<rect x="95" y="45" width="267" height="228" rx="20" fill="#6162C5"/>
<rect x="55" y="45" width="289.775" height="228.063" rx="20" fill="#E19A39"/>
<rect x="95" y="45" width="267" height="228" rx="20" fill="#6162C5"/>
<rect x="55" y="45" width="289.775" height="228.063" rx="20" fill="#E19A39"/>
<rect x="72" y="78" width="256" height="133" rx="15" fill="white"/>
<line x1="136.5" y1="92" x2="136.5" y2="198" stroke="#6162C5" stroke-width="5"/>
<line x1="134" y1="195.5" x2="266" y2="195.5" stroke="#6162C5" stroke-width="5"/>
<path d="M136 159L169.6 130.278L196.48 142.5L215.2 115H256" stroke="#6162C5" stroke-width="5"/>
<ellipse cx="258.5" cy="116" rx="7.5" ry="10" fill="#E19A39"/>
<circle cx="142.037" cy="6.03697" r="6.03697" fill="#7A80A3"/>
<circle cx="6.03697" cy="126.037" r="6.03697" fill="#6162C5"/>
<circle cx="190.037" cy="314.037" r="6.03697" fill="#E19A39"/>
<circle cx="403.037" cy="78.037" r="6.03697" fill="#DB3D51"/>
<line x1="71.8911" y1="297" x2="71.8911" y2="319.807" stroke="#E19A39" stroke-width="3"/>
<line x1="71.8911" y1="297" x2="71.8911" y2="319.807" stroke="#E19A39" stroke-width="3"/>
<line x1="71.8911" y1="297" x2="71.8911" y2="319.807" stroke="#E19A39" stroke-width="3"/>
<line x1="61" y1="308.916" x2="83.8063" y2="308.916" stroke="#E19A39" stroke-width="3"/>
<line x1="61" y1="308.916" x2="83.8063" y2="308.916" stroke="#E19A39" stroke-width="3"/>
<line x1="61" y1="308.916" x2="83.8063" y2="308.916" stroke="#E19A39" stroke-width="3"/>
<path fill-rule="evenodd" clip-rule="evenodd" d="M241.181 269.004C230.966 311.706 257.302 354.603 300.004 364.819C342.706 375.034 385.603 348.698 395.818 305.996C406.033 263.294 379.698 220.397 336.996 210.182C294.294 199.967 251.397 226.302 241.181 269.004ZM282.029 278.776C276.953 299.992 290.039 321.306 311.255 326.382C332.472 331.457 353.786 318.372 358.861 297.155C363.937 275.939 350.852 254.625 329.635 249.549C308.418 244.474 287.104 257.559 282.029 278.776Z" fill="#DB3D51"/>
<path fill-rule="evenodd" clip-rule="evenodd" d="M349.207 260.885C358.008 270.25 362.074 283.722 358.861 297.155C353.786 318.372 332.472 331.457 311.255 326.382C310.438 326.186 309.634 325.967 308.842 325.724L299.518 364.701C299.68 364.74 299.842 364.78 300.004 364.819C342.706 375.034 385.603 348.698 395.818 305.996C402.532 277.931 393.457 249.781 374.324 230.88L349.207 260.885Z" fill="#E19A39"/>
<path fill-rule="evenodd" clip-rule="evenodd" d="M299.518 364.701L308.842 325.724C289.216 319.713 277.339 299.5 281.916 279.262L241.067 269.49C231.205 311.869 257.264 354.317 299.518 364.701Z" fill="#6162C5"/>
<circle cx="199.5" cy="240.5" r="12.5" fill="white"/>
<line x1="391.5" y1="177" x2="391.5" y2="199.806" stroke="#6162C5" stroke-width="3"/>
<line x1="391.5" y1="177" x2="391.5" y2="199.806" stroke="#6162C5" stroke-width="3"/>
<line x1="391.5" y1="177" x2="391.5" y2="199.806" stroke="#6162C5" stroke-width="3"/>
<line x1="380" y1="188.916" x2="402.806" y2="188.916" stroke="#6162C5" stroke-width="3"/>
<line x1="380" y1="188.916" x2="402.806" y2="188.916" stroke="#6162C5" stroke-width="3"/>
<line x1="380" y1="188.916" x2="402.806" y2="188.916" stroke="#6162C5" stroke-width="3"/>
</svg>

