<svg width="427" height="321" viewBox="0 0 427 321" fill="none" xmlns="http://www.w3.org/2000/svg">
<path d="M154.547 103.011C154.547 147.374 208.323 183.344 274.646 183.344C286.144 183.355 297.615 182.238 308.895 180.009C341.703 215.148 387.869 212.421 387.869 212.421C394.773 206.739 387.869 202.084 387.869 202.084C363.996 189.281 354.582 175.685 351.302 164.859C377.853 150.117 394.757 127.884 394.757 103C394.757 58.6326 340.97 22.6571 274.657 22.6571C208.323 22.6571 154.558 58.6272 154.558 103.011" fill="#DB3D51"/>
<path d="M168.899 101.192C102.559 101.192 48.7998 137.167 48.7998 181.535C48.7998 206.419 65.7256 228.657 92.2551 243.394C88.9688 254.22 79.5553 267.816 55.682 280.619C55.682 280.619 48.7781 285.268 55.682 290.956C55.682 290.956 101.853 293.677 134.657 258.538C145.504 260.7 156.987 261.879 168.905 261.879C235.234 261.879 289.004 225.903 289.004 181.541C289.01 137.167 235.228 101.192 168.899 101.192Z" fill="#E19A39"/>
<circle cx="136.871" cy="181.397" r="10.0201" fill="white"/>
<circle cx="168.514" cy="181.397" r="10.0201" fill="white"/>
<circle cx="200.156" cy="181.397" r="10.0201" fill="white"/>
<circle cx="243.401" cy="100.181" r="10.0201" fill="white"/>
<circle cx="275.044" cy="100.181" r="10.0201" fill="white"/>
<circle cx="306.686" cy="100.181" r="10.0201" fill="white"/>
<line x1="415.429" y1="153.371" x2="415.429" y2="176.028" stroke="#6162C5" stroke-width="3"/>
<line x1="415.429" y1="153.371" x2="415.429" y2="176.028" stroke="#6162C5" stroke-width="3"/>
<line x1="415.429" y1="153.371" x2="415.429" y2="176.028" stroke="#6162C5" stroke-width="3"/>
<line x1="403.472" y1="164.943" x2="427" y2="164.943" stroke="#6162C5" stroke-width="3"/>
<line x1="403.472" y1="164.943" x2="427" y2="164.943" stroke="#6162C5" stroke-width="3"/>
<line x1="403.472" y1="164.943" x2="427" y2="164.943" stroke="#6162C5" stroke-width="3"/>
<circle cx="142.043" cy="6.1" r="6.1" fill="#7A80A3"/>
<circle cx="6.1" cy="126.357" r="6.1" fill="#6162C5"/>
<ellipse cx="190.407" cy="314.586" rx="5.66429" ry="6.1" fill="#E19A39"/>
<ellipse cx="403.907" cy="78.4286" rx="5.66429" ry="6.1" fill="#DB3D51"/>
<line x1="72.0859" y1="298.029" x2="72.0859" y2="320.686" stroke="#E19A39" stroke-width="3"/>
<line x1="72.0859" y1="298.029" x2="72.0859" y2="320.686" stroke="#E19A39" stroke-width="3"/>
<line x1="72.0859" y1="298.029" x2="72.0859" y2="320.686" stroke="#E19A39" stroke-width="3"/>
<line x1="61" y1="309.6" x2="83.6571" y2="309.6" stroke="#E19A39" stroke-width="3"/>
<line x1="61" y1="309.6" x2="83.6571" y2="309.6" stroke="#E19A39" stroke-width="3"/>
<line x1="61" y1="309.6" x2="83.6571" y2="309.6" stroke="#E19A39" stroke-width="3"/>
</svg>
